<?xml version="1.0" encoding="UTF-8" standalone="no"?>
<!-- Created with Inkscape (http://www.inkscape.org/) -->

<svg
   xmlns:dc="http://purl.org/dc/elements/1.1/"
   xmlns:cc="http://creativecommons.org/ns#"
   xmlns:rdf="http://www.w3.org/1999/02/22-rdf-syntax-ns#"
   xmlns:svg="http://www.w3.org/2000/svg"
   xmlns="http://www.w3.org/2000/svg"
   xmlns:sodipodi="http://sodipodi.sourceforge.net/DTD/sodipodi-0.dtd"
   xmlns:inkscape="http://www.inkscape.org/namespaces/inkscape"
   width="300"
   height="300"
   id="svg2"
   version="1.1"
   inkscape:version="0.48.4 r9939"
   sodipodi:docname="aim.svg">
  <defs
     id="defs4" />
  <sodipodi:namedview
     id="base"
     pagecolor="#ffffff"
     bordercolor="#666666"
     borderopacity="1.0"
     inkscape:pageopacity="0.0"
     inkscape:pageshadow="2"
     inkscape:zoom="0.7"
     inkscape:cx="33.361966"
     inkscape:cy="103.1681"
     inkscape:document-units="px"
     inkscape:current-layer="layer1"
     showgrid="false"
     inkscape:window-width="1106"
     inkscape:window-height="788"
     inkscape:window-x="767"
     inkscape:window-y="227"
     inkscape:window-maximized="0"
     fit-margin-top="0"
     fit-margin-left="0"
     fit-margin-right="0"
     fit-margin-bottom="0" />
  <metadata
     id="metadata7">
    <rdf:RDF>
      <cc:Work
         rdf:about="">
        <dc:format>image/svg+xml</dc:format>
        <dc:type
           rdf:resource="http://purl.org/dc/dcmitype/StillImage" />
        <dc:title></dc:title>
      </cc:Work>
    </rdf:RDF>
  </metadata>
  <g
     inkscape:label="Layer 1"
     inkscape:groupmode="layer"
     id="layer1"
     transform="translate(-220,-240.93362)">
    <path
       sodipodi:type="arc"
       style="fill:#439cbc;fill-opacity:0.75294118;fill-rule:evenodd;stroke:none"
       id="path2985"
       sodipodi:cx="370"
       sodipodi:cy="390.93362"
       sodipodi:rx="150"
       sodipodi:ry="150"
       d="m 520,390.93362 c 0,82.84272 -67.15729,150 -150,150 -82.84271,0 -150,-67.15728 -150,-150 0,-82.84271 67.15729,-150 150,-150 82.84271,0 150,67.15729 150,150 z" />
    <rect
       style="fill:#ffffff;fill-opacity:1"
       id="rect5211"
       width="180"
       height="10"
       x="280"
       y="385.93362" />
    <rect
       style="fill:#ffffff;fill-opacity:1"
       id="rect5211-7"
       width="180"
       height="10"
       x="300.93362"
       y="-375"
       transform="matrix(0,1,-1,0,0,0)" />
    <path
       transform="matrix(0.46152797,0,0,0.46152797,199.23465,210.50682)"
       sodipodi:type="arc"
       style="fill:#ffffff;fill-opacity:1;fill-rule:evenodd;stroke:none"
       id="path2985-9"
       sodipodi:cx="370"
       sodipodi:cy="390.93362"
       sodipodi:rx="150"
       sodipodi:ry="150"
       d="m 520,390.93362 c 0,82.84272 -67.15729,150 -150,150 -82.84271,0 -150,-67.15728 -150,-150 0,-82.84271 67.15729,-150 150,-150 82.84271,0 150,67.15729 150,150 z" />
    <path
       transform="matrix(0.35713703,0,0,0.35713703,237.8593,251.31675)"
       sodipodi:type="arc"
       style="fill:#439cbc;fill-opacity:1;fill-rule:evenodd;stroke:none"
       id="path2985-9-4"
       sodipodi:cx="370"
       sodipodi:cy="390.93362"
       sodipodi:rx="150"
       sodipodi:ry="150"
       d="m 520,390.93362 c 0,82.84272 -67.15729,150 -150,150 -82.84271,0 -150,-67.15728 -150,-150 0,-82.84271 67.15729,-150 150,-150 82.84271,0 150,67.15729 150,150 z" />
    <path
       transform="matrix(0.19128737,0,0,0.19128737,299.22367,316.15296)"
       sodipodi:type="arc"
       style="fill:#aa0000;fill-opacity:1;fill-rule:evenodd;stroke:none"
       id="path2985-9-4-1"
       sodipodi:cx="370"
       sodipodi:cy="390.93362"
       sodipodi:rx="150"
       sodipodi:ry="150"
       d="m 520,390.93362 c 0,82.84272 -67.15729,150 -150,150 -82.84271,0 -150,-67.15728 -150,-150 0,-82.84271 67.15729,-150 150,-150 82.84271,0 150,67.15729 150,150 z" />
  </g>
</svg>
