<?xml version="1.0" encoding="UTF-8" standalone="no"?>
<!-- Created with Inkscape (http://www.inkscape.org/) -->

<svg
   xmlns:dc="http://purl.org/dc/elements/1.1/"
   xmlns:cc="http://creativecommons.org/ns#"
   xmlns:rdf="http://www.w3.org/1999/02/22-rdf-syntax-ns#"
   xmlns:svg="http://www.w3.org/2000/svg"
   xmlns="http://www.w3.org/2000/svg"
   xmlns:sodipodi="http://sodipodi.sourceforge.net/DTD/sodipodi-0.dtd"
   xmlns:inkscape="http://www.inkscape.org/namespaces/inkscape"
   version="1.1"
   width="106.54664"
   height="165.97778"
   id="svg2"
   xml:space="preserve"
   inkscape:version="0.48.5 r10040"
   sodipodi:docname="alfabank.svg"><sodipodi:namedview
     pagecolor="#ffffff"
     bordercolor="#666666"
     borderopacity="1"
     objecttolerance="10"
     gridtolerance="10"
     guidetolerance="10"
     inkscape:pageopacity="0"
     inkscape:pageshadow="2"
     inkscape:window-width="1920"
     inkscape:window-height="1015"
     id="namedview7"
     showgrid="false"
     fit-margin-top="0"
     fit-margin-left="0"
     fit-margin-right="0"
     fit-margin-bottom="0"
     inkscape:zoom="0.31716402"
     inkscape:cx="293.02435"
     inkscape:cy="83.039656"
     inkscape:window-x="-2"
     inkscape:window-y="-3"
     inkscape:window-maximized="1"
     inkscape:current-layer="svg2" /><metadata
     id="metadata8"><rdf:RDF><cc:Work
         rdf:about=""><dc:format>image/svg+xml</dc:format><dc:type
           rdf:resource="http://purl.org/dc/dcmitype/StillImage" /><dc:title /></cc:Work></rdf:RDF></metadata><defs
     id="defs6" /><g
     transform="matrix(1.25,0,0,-1.25,-233.15674,454.98535)"
     id="g10"><path
       d="m 229.0791,342.98828 -11.7666,-35.32519 23.71973,0 -11.80664,35.32519 z m -41.23535,-94.06055 c -0.72949,0 -1.31836,-0.60351 -1.31836,-1.35058 l 0,-15.02149 c 0,-0.74902 0.58887,-1.34961 1.31836,-1.34961 l 82.61133,0 c 0.72363,0 1.30762,0.60059 1.30762,1.34961 l 0,15.02149 c 0,0.74707 -0.58399,1.35058 -1.30762,1.35058 l -82.61133,0 m 41.30566,115.06055 c 9.04102,0 11.88282,-6.47558 14.25782,-12.95801 1.00781,-2.74121 24.49121,-67.04687 25.19238,-68.97656 0.19727,-0.53125 0.0674,-1.4209 -0.76172,-1.7373 -0.83203,-0.31641 -13.03613,-5.0625 -13.70898,-5.31543 -0.67481,-0.25391 -1.43457,0.12109 -1.68262,0.79199 -0.25,0.66699 -5.30762,14.68359 -5.87891,16.25391 -1.68164,0 -33.11328,0 -34.79297,0 -0.57226,-1.57032 -5.68261,-15.61231 -5.91796,-16.25391 -0.23438,-0.6416 -0.96582,-1.0752 -1.67872,-0.79199 -0.71582,0.28515 -12.97363,5.03418 -13.69824,5.31543 -0.70117,0.2666 -1.02344,1.06347 -0.77441,1.7373 0.86426,2.41406 23.98828,65.68555 25.17285,68.97656 2.28711,6.37891 5.23437,12.95801 14.27148,12.95801 z"
       id="path14"
       style="fill:#ee2922;fill-opacity:1;fill-rule:nonzero;stroke:none"
       inkscape:connector-curvature="0" /></g></svg>