<?xml version="1.0" encoding="UTF-8" standalone="no"?>
<svg
   xmlns:dc="http://purl.org/dc/elements/1.1/"
   xmlns:cc="http://creativecommons.org/ns#"
   xmlns:rdf="http://www.w3.org/1999/02/22-rdf-syntax-ns#"
   xmlns:svg="http://www.w3.org/2000/svg"
   xmlns="http://www.w3.org/2000/svg"
   xmlns:sodipodi="http://sodipodi.sourceforge.net/DTD/sodipodi-0.dtd"
   xmlns:inkscape="http://www.inkscape.org/namespaces/inkscape"
   version="1.1"
   width="119.54421"
   height="77.120346"
   id="svg4965"
   inkscape:version="0.48.5 r10040"
   sodipodi:docname="citibank.svg">
  <sodipodi:namedview
     pagecolor="#ffffff"
     bordercolor="#666666"
     borderopacity="1"
     objecttolerance="10"
     gridtolerance="10"
     guidetolerance="10"
     inkscape:pageopacity="0"
     inkscape:pageshadow="2"
     inkscape:window-width="1920"
     inkscape:window-height="1015"
     id="namedview13"
     showgrid="false"
     fit-margin-top="0"
     fit-margin-left="0"
     fit-margin-right="0"
     fit-margin-bottom="0"
     inkscape:zoom="1.5866667"
     inkscape:cx="514.61749"
     inkscape:cy="-72.018873"
     inkscape:window-x="-2"
     inkscape:window-y="-3"
     inkscape:window-maximized="1"
     inkscape:current-layer="svg4965" />
  <defs
     id="defs4967" />
  <metadata
     id="metadata4970">
    <rdf:RDF>
      <cc:Work
         rdf:about="">
        <dc:format>image/svg+xml</dc:format>
        <dc:type
           rdf:resource="http://purl.org/dc/dcmitype/StillImage" />
        <dc:title />
      </cc:Work>
    </rdf:RDF>
  </metadata>
  <g
     transform="translate(-299.9885,-474.70039)"
     id="layer1">
    <g
       transform="matrix(2.4662885,0,0,-2.4662885,-772.5069,719.18727)"
       id="g4940">
      <path
         d="m 449.6213,73.9054 -0.0867,-0.0839 c -1.3975,-1.4238 -3.015,-2.1784 -4.6817,-2.1784 -3.479,0 -6.0044,2.6099 -6.0044,6.211 0,3.5946 2.5254,6.2082 6.0044,6.2082 1.6667,0 3.2842,-0.7577 4.6817,-2.1853 l 0.0867,-0.0864 2.2374,2.7054 -0.0598,0.0734 c -1.8607,2.1988 -4.0933,3.2692 -6.838,3.2692 -2.7542,0 -5.2719,-0.9269 -7.0864,-2.5985 -1.9715,-1.8102 -3.0124,-4.3631 -3.0124,-7.386 0,-3.0214 1.0409,-5.5806 3.0124,-7.3913 1.8145,-1.6793 4.3322,-2.6011 7.0864,-2.6011 2.7447,0 4.9773,1.0698 6.838,3.2695 l 0.0598,0.0683 -2.2374,2.7059 z"
         id="path1274"
         style="fill:#003b70;fill-opacity:1;fill-rule:nonzero;stroke:none"
         inkscape:connector-curvature="0" />
      <path
         d="m 454.1196,68.2299 3.9526,0 0,19.2952 -3.9526,0 0,-19.2952 z"
         id="path1276"
         style="fill:#003b70;fill-opacity:1;fill-rule:nonzero;stroke:none"
         inkscape:connector-curvature="0" />
      <path
         d="m 473.5548,72.4255 c -1.0545,-0.6421 -2.0359,-0.9649 -2.9172,-0.9649 -1.277,0 -1.8541,0.674 -1.8541,2.1753 l 0,10.2381 4.0255,0 0,3.6335 -4.0255,0 0,6.0038 -3.8741,-2.0733 0,-3.9305 -3.3421,0 0,-3.6335 3.3421,0 0,-10.8912 c 0,-2.9673 1.7577,-4.9944 4.3815,-5.0471 1.7816,-0.0349 2.8556,0.4958 3.5079,0.8838 l 0.0382,0.0284 0.9516,3.7204 -0.2338,-0.1428 z"
         id="path1278"
         style="fill:#003b70;fill-opacity:1;fill-rule:nonzero;stroke:none"
         inkscape:connector-curvature="0" />
      <path
         d="m 476.8285,68.2299 3.9552,0 0,19.2952 -3.9552,0 0,-19.2952 z"
         id="path1280"
         style="fill:#003b70;fill-opacity:1;fill-rule:nonzero;stroke:none"
         inkscape:connector-curvature="0" />
      <path
         d="m 483.1512,90.9488 c -3.6182,5.125 -9.627,8.1827 -15.7405,8.1827 -6.111,0 -12.121,-3.0577 -15.7332,-8.1827 l -0.1853,-0.2637 4.5558,0 0.0505,0.0547 c 3.1008,3.2004 7.1486,4.8929 11.3122,4.8929 4.1641,0 8.2111,-1.6925 11.3179,-4.8929 l 0.0504,-0.0547 4.5544,0 -0.1822,0.2637 z"
         id="path1284"
         style="fill:#d9261c;fill-opacity:1;fill-rule:evenodd;stroke:none"
         inkscape:connector-curvature="0" />
    </g>
  </g>
</svg>
