<?xml version="1.0" encoding="UTF-8" standalone="no"?>
<svg
   xmlns:dc="http://purl.org/dc/elements/1.1/"
   xmlns:cc="http://creativecommons.org/ns#"
   xmlns:rdf="http://www.w3.org/1999/02/22-rdf-syntax-ns#"
   xmlns:svg="http://www.w3.org/2000/svg"
   xmlns="http://www.w3.org/2000/svg"
   xmlns:sodipodi="http://sodipodi.sourceforge.net/DTD/sodipodi-0.dtd"
   xmlns:inkscape="http://www.inkscape.org/namespaces/inkscape"
   viewBox="0 0 59.249327 59.359826"
   height="59.359825"
   width="59.249329"
   version="1.1"
   id="svg2"
   inkscape:version="0.48.5 r10040"
   sodipodi:docname="gazprombank.svg">
  <sodipodi:namedview
     pagecolor="#ffffff"
     bordercolor="#666666"
     borderopacity="1"
     objecttolerance="10"
     gridtolerance="10"
     guidetolerance="10"
     inkscape:pageopacity="0"
     inkscape:pageshadow="2"
     inkscape:window-width="1920"
     inkscape:window-height="1015"
     id="namedview6"
     showgrid="false"
     fit-margin-top="0"
     fit-margin-left="0"
     fit-margin-right="0"
     fit-margin-bottom="0"
     inkscape:zoom="1.6514361"
     inkscape:cx="144.11698"
     inkscape:cy="29.679911"
     inkscape:window-x="-2"
     inkscape:window-y="-3"
     inkscape:window-maximized="1"
     inkscape:current-layer="svg2" />
  <metadata
     id="metadata8">
    <rdf:RDF>
      <cc:Work
         rdf:about="">
        <dc:format>image/svg+xml</dc:format>
        <dc:type
           rdf:resource="http://purl.org/dc/dcmitype/StillImage" />
        <dc:title />
      </cc:Work>
    </rdf:RDF>
  </metadata>
  <defs
     id="defs6" />
  <path
     id="path3338"
     d="M 25.262674,59.052158 C 22.517295,58.660738 17.925622,57.10757 15.365133,55.704238 7.6997015,51.503035 2.2928272,44.127948 0.44771105,35.356572 -0.14759035,32.526607 -0.14957625,26.81825 0.44376105,23.997632 2.4703047,14.363778 8.9116435,6.3192643 17.610382,2.5584373 c 6.858914,-2.96539502 13.912663,-3.35586502 20.888938,-1.156337 5.157987,1.626246 8.823033,3.936063 12.720057,8.0165436 5.327056,5.5778291 8.029945,12.3936911 8.029945,20.2490641 0,7.855373 -2.702889,14.671235 -8.029945,20.249065 -3.889357,4.072451 -7.563561,6.390784 -12.689897,8.007014 -4.468493,1.408826 -8.747254,1.772742 -13.266806,1.128371 z M 36.399106,57.48827 c 7.969615,-1.849174 15.213957,-7.630553 19.021961,-15.180562 0.443846,-0.88 1.214188,-2.824 1.711868,-4.32 0.855072,-2.570307 0.904871,-3.028195 0.904871,-8.32 0,-5.291806 -0.0498,-5.749694 -0.904871,-8.32 C 54.408532,13.158303 49.02819,7.0711623 41.39811,3.5458483 34.827816,0.51018528 26.493797,0.23386928 19.502674,2.8198993 11.226516,5.8812673 4.3614142,13.416582 1.8299754,22.217914 1.226378,24.316508 1.1138612,25.487032 1.1138612,29.667708 c 0,4.180675 0.1125168,5.3512 0.7161142,7.449795 1.6181788,5.626099 5.4450041,11.438387 9.7476286,14.804956 7.374447,5.770109 15.799233,7.659229 24.821502,5.565811 z M 26.643471,51.444875 C 21.061856,50.562834 15.46784,47.439522 14.234375,44.516498 14.004326,43.97133 13.30284,43.208072 12.675519,42.820367 c -1.491646,-0.921888 -2.452845,-2.517379 -2.452845,-4.071469 0,-0.977309 -0.213544,-1.444819 -0.9982435,-2.185449 -0.924309,-0.8724 -0.985834,-1.062426 -0.830688,-2.565652 0.115208,-1.116249 0.02718,-1.815446 -0.281756,-2.237939 -1.090296,-1.491068 0.0012,-4.660984 2.1748315,-6.315904 3.379484,-2.573057 9.974524,-4.621454 21.375856,-6.639267 2.024,-0.358209 4.112,-0.778822 4.64,-0.934697 1.918995,-0.566522 -0.203341,-0.842476 -6.4,-0.832152 -5.21609,0.0087 -6.48922,0.112428 -8.96,0.730085 -3.871916,0.967919 -5.849943,1.727329 -9.345207,3.58784 -2.6027895,1.385451 -2.9154955,1.485417 -2.6896495,0.859832 0.561897,-1.556435 6.9605155,-4.680753 12.4323345,-6.070463 2.438229,-0.619251 3.592847,-0.708185 8.882522,-0.684173 3.344,0.01518 6.78518,0.179274 7.647065,0.364654 1.465683,0.315248 1.61832,0.285801 2.359274,-0.455153 0.435712,-0.435713 0.666534,-0.908185 0.512934,-1.049936 -0.740368,-0.683256 -4.786969,-1.358351 -9.118332,-1.521213 -3.609117,-0.135704 -5.437661,-0.04909 -7.996558,0.37879 -4.06551,0.679802 -8.110567,1.828591 -10.242179,2.90876 -1.552746,0.786837 -1.589969,0.790654 -1.234586,0.126613 0.767239,-1.433598 6.874983,-3.598361 13.079896,-4.635896 3.917862,-0.655113 9.127247,-0.521881 12.775039,0.326726 1.288406,0.29973 2.416899,0.470618 2.507766,0.379752 0.287008,-0.28701 -1.376022,-1.199307 -3.794915,-2.081794 -2.207888,-0.8055061 -2.641171,-0.8508731 -7.935404,-0.8308731 -5.046574,0.01907 -5.860901,0.10116 -8.24,0.8307191 -1.452,0.445261 -2.64,0.762099 -2.64,0.704086 0,-0.265736 2.619182,-1.3974241 4.643873,-2.0065111 7.948828,-2.3912406 17.606734,-0.613826 20.552363,3.7824021 0.403299,0.601907 1.199133,1.372247 1.768515,1.711868 1.811629,1.080578 3.097251,2.529469 3.312615,3.733302 0.112214,0.627249 0.616777,1.552626 1.121251,2.056392 1.181808,1.18015 1.774339,3.048223 1.26734,3.995555 -0.303433,0.566972 -0.245772,0.849928 0.332612,1.632235 1.254742,1.697129 0.68774,3.831298 -1.536807,5.784479 -1.605264,1.40944 -5.715497,3.302781 -8.964211,4.129283 -2.21231,0.562829 -13.01535,2.560352 -14.017551,2.591898 -0.176,0.0055 -0.07461,0.153152 0.225312,0.328022 0.299923,0.174874 2.062624,0.487507 3.917113,0.694742 5.650672,0.631447 12.188637,-0.426953 18.177574,-2.942684 1.188,-0.499034 2.16,-0.787767 2.16,-0.641629 0,0.938637 -4.821981,2.997027 -9.76,4.16632 -5.957231,1.410633 -11.128188,1.408755 -16.860362,-0.0061 -1.875817,-0.463011 -2.728377,-0.533293 -3.588438,-0.295818 -1.70544,0.470896 -1.649493,0.815088 0.247883,1.524986 7.462668,2.792144 16.068966,2.873712 25.167061,0.238531 3.004138,-0.870122 3.293984,-0.415591 0.459511,0.720605 -8.134199,3.260576 -18.671558,3.473804 -26.485227,0.535945 -2.627847,-0.988041 -2.991453,-1.053885 -3.420427,-0.619369 -0.427025,0.432537 -0.411342,0.537091 0.142108,0.947331 0.857815,0.635849 5.261016,2.306294 8.168037,3.098707 1.9462,0.530509 3.39494,0.659712 7.529855,0.671545 4.968339,0.01421 6.54534,-0.190467 11.999999,-1.557507 0.778509,-0.19511 0.782963,-0.186707 0.16584,0.312759 -0.768886,0.622294 -4.713216,1.896931 -7.539977,2.436595 -2.842605,0.542691 -8.645529,0.546342 -11.345862,0.0071 -2.168089,-0.432922 -5.035052,-1.330855 -7.68,-2.405376 l -1.28,-0.520003 1.12,0.989315 c 1.80757,1.596659 6.073203,3.499865 9.035241,4.031273 2.917498,0.523415 7.220602,0.370029 10.408467,-0.371014 1.007056,-0.234096 1.873376,-0.38327 1.925152,-0.331491 0.139293,0.139293 -3.090691,1.376931 -4.56886,1.750659 -1.871012,0.47305 -6.147735,0.666378 -8.059203,0.364314 z M 14.382674,40.540082 c 0,-0.372989 -1.276591,-1.062451 -1.518778,-0.820262 -0.267148,0.267148 0.912561,1.48478 1.241545,1.281456 0.152478,-0.09424 0.277233,-0.301773 0.277233,-0.461194 z m 2.88,-2.062208 0.8,-0.447158 -1.516199,-0.674797 c -1.210028,-0.538534 -1.651738,-0.602259 -2.187407,-0.315578 -0.738181,0.395063 -0.704146,0.470893 0.581181,1.294884 1.082114,0.693715 1.311332,0.707795 2.322425,0.142649 z m 4.935392,-1.760809 c 0.44938,-0.170855 4.238755,-0.95704 8.420832,-1.747079 11.173327,-2.110761 15.985234,-3.695612 17.651263,-5.813628 0.64024,-0.81393 0.865194,-1.749302 0.506877,-2.107618 -0.0911,-0.0911 -1.423098,0.457971 -2.96,1.220156 -3.332665,1.652748 -8.01438,2.885065 -16.75527,4.410313 -6.533908,1.140137 -11.479094,2.322076 -11.479094,2.7436 0,0.257142 2.765694,1.534361 3.419168,1.578998 0.208543,0.01424 0.746843,-0.113888 1.196224,-0.284742 z M 12.142674,35.420082 c 0,-0.372989 -1.276591,-1.062451 -1.518778,-0.820262 -0.267148,0.267149 0.912561,1.484781 1.241545,1.281456 0.152478,-0.09424 0.277233,-0.301773 0.277233,-0.461194 z m 3.537205,-2.241152 c 1.899642,-0.969123 6.493508,-2.102345 12.942795,-3.192742 3.168,-0.535622 7.56,-1.412474 9.759999,-1.948559 4.194848,-1.022178 8.438051,-2.720023 8.112848,-3.246216 -0.105037,-0.169953 -0.666755,-0.507799 -1.248262,-0.750768 -0.975709,-0.407677 -1.312176,-0.358892 -4.360934,0.632299 -1.817008,0.590733 -4.671651,1.318295 -6.343651,1.616804 -7.659095,1.36741 -13.179271,2.516581 -15.68,3.26421 -2.765879,0.826899 -6.4,2.546355 -6.4,3.028115 0,0.210406 1.453695,1.177699 1.852748,1.232822 0.05101,0.007 0.665017,-0.279136 1.364457,-0.635965 z m -1.661546,-4.693337 c 2.691271,-1.1943 6.613701,-2.230632 13.098162,-3.460626 8.585542,-1.628533 12.349266,-2.433847 12.642687,-2.705125 0.34304,-0.317153 -3.006652,-0.972134 -4.971673,-0.972134 -2.66504,0 -8.498166,0.968845 -13.592236,2.257584 -7.422978,1.877924 -11.2925995,3.952002 -11.2925995,6.05272 0,1.275053 0.2972525,1.366147 1.4044115,0.43039 0.547574,-0.4628 1.767635,-1.184067 2.711248,-1.602809 z m 34.156673,-6.322982 c -0.226566,-0.902712 -0.870227,-1.060396 -1.454547,-0.356333 -0.308707,0.371968 -0.210349,0.547943 0.520819,0.931822 1.078893,0.566441 1.201386,0.490944 0.933728,-0.575489 z M 44.07147,20.529563 c 0.391162,-0.27398 0.711203,-0.62076 0.711203,-0.770623 0,-0.149862 -0.865206,-0.564662 -1.922681,-0.921777 l -1.922685,-0.6493 -1.308026,0.742973 -1.308028,0.742972 2.03071,0.643179 c 2.55001,0.807655 2.845782,0.824558 3.719507,0.212576 z m 1.351203,-2.961986 c 0,-0.143072 -0.426793,-0.669024 -0.948429,-1.168784 -0.803091,-0.76941 -1.025391,-0.844781 -1.450659,-0.491842 -0.701584,0.582265 -0.463494,1.011187 0.818407,1.474366 1.356252,0.490045 1.580681,0.516491 1.580681,0.18626 z"
     style="fill:#00457c;fill-opacity:1"
     inkscape:connector-curvature="0"
     sodipodi:nodetypes="ssssssssssssssssssssssscsssssssssssssssssssssssssssssssssssssscsssssssssssssssssscscssscsccsscsscssssssssssscssscsssssssssscsssssssssssssssscccsssssss" />
</svg>
