<?xml version="1.0" encoding="UTF-8" standalone="no"?>
<!-- Created with Inkscape (http://www.inkscape.org/) -->
<svg id="svg2" xmlns:rdf="http://www.w3.org/1999/02/22-rdf-syntax-ns#" xmlns="http://www.w3.org/2000/svg" height="256.66" width="397.58" version="1.0" xmlns:cc="http://creativecommons.org/ns#" xmlns:dc="http://purl.org/dc/elements/1.1/">
 <metadata id="metadata13">
  <rdf:RDF>
   <cc:Work rdf:about="">
    <dc:format>image/svg+xml</dc:format>
    <dc:type rdf:resource="http://purl.org/dc/dcmitype/StillImage"/>
   </cc:Work>
  </rdf:RDF>
 </metadata>
 <g id="g2436" transform="matrix(1.4776 0 0 1.4776 -619.89 -52.25)">
  <path id="path422" fill="#fff" d="m425.99 209.07h196.84l8.775-14.865 5.42-29.785-10.38-32.28-13.745-19.86-7.005-2.26-5.655 2.48-2.25 9.03-27.105 4.06-14.205-10.605-12.65-31.605-7.665-21.9-1.59-9.02-3.61-4.295-19.645-3.16-11.955 5.865-14.45-5.865-12.64-0.44999-4.73 7.905-2.94 5.64-4.065 10.16-3.38 14.67 2.48 23.475 1.365 17.385-0.915 10.15 4.29 16.705-4.515 13.54-6.995 17.84-4.52 2.26-6.545-2.94-6.995 3.84-7.45 2.935-4.515 6.77 0.67498 10.38 2.265 3.8z"/>
  <path id="path426" fill="#fff" d="m630.62 75.487-5.39-4.75-13.9-3.055-0.63999-5.09 9.505-2.715 5.98 4.745 5.385 1.02 2.84 0.33499 8.865 11.2-12.645-1.69z"/>
  <path id="path430" fill="#eb6606" d="m514.96 101.86v-2.72h-4.985l-0.44499 0.90002 5.43 1.82zm-25.335-2.72c-1.355-1.355-3.155 0-5.42-0.45499 0 0.45499-0.44999 1.815 0.89998 2.71 1.815-1.355 4.055-2.255 4.52-2.255m31.205-25.785s0.89998 0 0-0.45499l-10.405-0.90503c-1.355 0.90503-3.165 0.90503-3.615 2.27l-0.90499 0.44999c0.90499 3.625 0.90499 7.69 0.90499 11.755 1.81 0.455 4.065 1.815 4.065 4.53 1.815 0.90503 4.085 1.35 5.43 2.71 0.90499-0.44999 1.81-1.805 2.26-3.16-2.26-2.265-6.335-0.90498-6.335-4.975l-2.7-1.355c0-2.73 0-5.435-0.91003-7.245l0.91003-0.90499c0 0.90499 0.44499 1.355 1.345 2.27 1.815 0 4.085 0.44499 5.43-0.91499 0.90499-0.44999 0.90499-2.71 2.26-2.71 0.455 0 1.81 0 2.265-1.36m-27.585 0.90999c0-0.90999-0.90499-1.815-2.265-2.27h-10.395-0.90999c0 1.36 1.36 2.72 2.715 2.72 0 1.355 1.365 2.26 2.265 2.71 0.90002 0.91499 1.815 0.91499 3.165 0 1.34 0.91499 1.805-1.355 2.26 0 0 2.715 0 4.065-0.45499 6.335-0.46501 3.165-3.615 2.71-5.42 4.525-0.44999 0.89497-1.815 3.62-0.44999 4.975 1.35-0.91 2.715-1.355 4.515-2.26 0-1.355 1.81-2.715 3.61-4.075 0-4.07 1.365-8.14 1.365-12.66m4.07-10.855c-1.35-0.915-4.07 0.44498-5.435 1.355-1.8 0.45-3.61 1.8-3.61 3.165h5.425c0.90002-1.365 2.27-3.165 3.62-4.52m15.825 4.52c0-1.365-0.44999-1.365-0.90999-1.805-2.255 0-2.255-3.63-4.06-2.715-1.36 0-2.265-0.915-3.16 0-0.46 0.44498 0 0.44498 0.44999 0.44498 2.71 0 1.35 3.62 3.16 4.075h4.52zm15.825-2.715c0.915-2.72 1.37-6.785-0.45003-9.495-1.355-1.355-3.62-2.715-5.88-4.075l-3.615 1.36c-1.81 1.36-2.715 2.715-2.715 5.425 3.17 1.36 6.79 4.98 8.14 8.135h1.355c1.36-1.35 2.715 0 3.165-1.35m-42.045-6.785c-0.44999-4.525-5.885-5.425-8.59-6.785h-1.36c-4.07 0.90503-4.98 4.97-5.43 8.145 1.36 4.065 4.07 1.35 6.325 4.065 1.81-1.36 6.79-4.52 9.055-5.425m-55.62 138.41c-0.455 0-1.815-1.36-3.16-1.36-1.37 2.71 0 4.98 0 8.135 0 0.91499-0.455 2.735-0.455 2.735-0.91499 0-2.72-2.28-3.62-3.63v-7.685l4.515-5.435c2.72 1.805 3.62 4.525 2.72 7.24m12.66-5.435c0 2.255-0.44999 4.075-1.81 5.435-0.44999-1.805-1.805-4.075-4.07-4.075-1.805 3.61-2.265 4.965-0.455 10.85-1.35 0.91499-2.715 1.375-4.075 2.735-0.89501-2.28-1.35-5.445-1.35-7.25 0-3.165 0.89502-6.335 1.8-9.0499 0.90999-1.795 2.275-4.065 3.625-5.435l4.98-0.44002c-1.81 0.44002-1.81 2.72-1.81 4.08 0.90503 0.43998 3.165 0.88497 3.165 3.15m16.275 2.72c0 4.065-5.88 9.49-5.88 9.49 0-2.71 0.90999-5.425 1.36-8.135 0 0-1.81-1.82-4.07-1.82-1.355 0.46501-1.355 1.82-1.805 3.18-1.36 2.715-4.075 5.41-4.97 8.15-0.44498 0-0.44498-0.46-0.44498-0.46 0-4.07 0.44498-12.675 3.605-15.835 2.72-2.71 4.065-2.71 6.78-3.17l2.72 0.46-1.815 2.71c1.815 0.90499 4.52 2.71 4.52 5.43m76.425 1.355-1.35 1.36c-1.36-1.36-0.465-5.435-2.72-5.89-2.255 0-4.075-2.255-4.975-2.695l1.35-0.91499s1.37-0.44503 2.265 0c0.90999 0.91499 1.81 1.355 1.81 2.71 0.90999 0.89998 2.27 0 3.165 0.89998 0.455 1.36 0.90499 3.175 0.455 4.53m16.285-6.785c-0.46001 1.355-0.91 3.615-1.365 5.43-1.35-2.72-2.26-6.785-5.425-6.785-0.44999-1.815-0.89998-3.165-2.715-4.08l-4.065-0.44999c0.44999 1.365 3.165 1.805 1.815 4.53 1.35 1.355 3.155 1.355 4.065 3.61 0.89998 1.36 0 3.175 0.44999 4.53l-3.165 1.36c0-2.715 0.89998-6.79-2.715-8.145-2.715 0.90499-3.165-2.71-4.98-4.08-0.89498-0.44002-0.89498-2.71-2.255-1.355-2.255 1.355-5.43 0-7.695 1.355l2.265-4.065c1.805-1.355 4.07-0.45499 5.88-1.355l3.62-0.455c4.075 0 7.235 1.81 10.86 3.165 1.8 1.355 2.71 2.71 2.71 4.99 1.35 0.44503 3.17 0.44503 2.715 1.8m73.235-0.43998c-0.90499 1.345-1.32 1.795-1.79 2.695 0-2.255-2.72-3.61-4.51-7.69l1.79-3.165c1.825 0.45499 3.19 1.81 3.19 4.08 0 0.44002-0.46997 1.81 0 2.72 0 0.44503 1.32 0.44503 1.32 1.36m-152.83 1.345-1.36 4.525-3.16-8.14c-4.07-4.08-8.135-4.53-10.855-5.89-1.355-0.89998-1.355 0.45499-2.71 0 0-1.355 0.44999-2.71 1.81-4.065h2.71l2.71 1.355c1.81 1.355 4.975 1.355 4.975 4.07 0 0.90999-0.44498 1.355 0.46 2.72l4.97 1.81 0.44999 3.615zm138.37-4.985c0 0.46-0.90002 1.37-0.90002 1.37-2.25-1.37-4.06-2.26-6.785-2.26 0-1.36-0.90002-3.63-1.805-3.63-3.165 0-2.72 1.36-4.97 1.36l4.075-4.07c0.43497-0.89998 0.89497-0.89998 1.8-0.89998 1.35 0.89998 1.8 1.355 3.165 1.355 0 0.90002 0 1.355-0.44002 2.71 0.89998 0.90503 2.25 0 3.15 0.90503 1.36 0.44999 2.71 1.355 2.71 3.16m-53.36 2.725h-0.44498c-0.90999-1.355-1.35-2.725-2.265-2.725 1.355-5.42-1.355-9.495-2.255-14.02l-0.45499-1.345c1.795 2.255 5.42 4.515 4.975 7.235 0.44498 4.065 0.90499 7.69 0.44498 10.855m-77.78-4.53-3.165 3.175c-0.89501-1.37 0-4.08-1.81-5.435 0-0.45499 1.36-1.355 0.915-1.81-0.915-0.90002-6.335-2.71-6.335-2.71-2.26-1.36-4.075-2.72-5.885-4.975-2.255-0.46-3.61 0.90999-5.88 1.355-0.44999-0.44502-0.44999-1.355-0.44999-1.355 1.365-1.365 1.365-4.065 4.075-4.065 1.355 0 3.165 0 4.515 1.345 1.815 0 2.725 1.82 4.065 2.26 2.27 2.715 4.08 3.17 5.895 4.525-0.46501 1.365 0.44502 2.265 1.34 2.72 2.72 0 1.81 2.71 2.72 4.97m148.78-7.235c0 2.72 0 3.62-1.355 5.88l-3.155-4.07c1.32-1.355 1.32-3.62 2.7-5.42 0.455 0 1.81 3.155 1.81 3.61m-80.495 3.165c-2.26-1.355-4.98-1.355-6.335-3.62-1.35-0.45003-3.165-0.45003-5.43-0.45003-1.8 0.45003-4.07 0.45003-5.88 0.45003-0.44999 0 0-0.45003-0.89498-1.355-2.72 1.355-5.89 1.355-8.605 4.075l2.265-5.43c1.805 0 3.165-1.355 4.52-1.355 1.365-0.46 3.17-0.46 4.525-0.46v0.46c5.435 0 11.305-0.46 15.38 4.065l0.45499 3.62zm67.84-4.07c0 1.815-0.44999 2.255-0.90002 4.525-3.635-0.455-3.165-4.075-4.09-4.525-1.81-2.705-5.42-0.90499-8.135-0.90499-0.45003-2.71 0.89998-2.71 0.89998-4.075 1.375 0 2.725-1.355 4.085-0.44002 2.25-0.915 3.605 1.345 5.875 1.345 0.90002 1.37 1.815 3.17 2.265 4.075m-133.87-6.78c0 1.36-0.45499 7.23-0.45499 7.23-0.90503-3.615-3.165-6.785-5.865-6.785-1.815-1.345-3.175-2.71-3.625-4.065-1.36-1.355-2.71-0.455-4.52-1.355-1.815 0-4.075 0-6.33 0.90002v-0.90002l3.165-4.08c3.615 0.90502 7.685 0 9.045 2.715 1.8 1.365 4.07 2.265 4.965 3.61v1.37c0.90999 0.46 2.72 0.90999 3.62 1.36m19.9-0.89998c-1.815 1.345-3.625 1.345-5.43 0.89998l-2.72-4.075c1.805 0.455 4.525 0.455 6.795 0l1.355 3.175zm79.155 2.26c0 2.255-3.185 5.42-4.07 7.235 0.885-2.72 1.345-7.235 0-7.235-0.915-0.46-2.74 0.44002-2.74-0.915 0-1.345 0.46-3.175 0.46-4.52 0-1.35-1.355-2.265-1.355-3.61 0-2.725 3.165-3.175 4.075-4.985 0.90498 1.81 0.44498 4.07 0.44498 5.88 0.46 1.365 1.355 4.06 0.46 6.34 0 1.35 2.725 0.44999 2.725 1.81m-34.38 0c-2.265 0-4.08 0-5.43-2.26-0.46 0-1.355-1.365-2.265-0.46-1.805 1.805-4.515-1.37-7.235-0.90503-1.36 1.365-3.175 2.265-4.975 2.71l-0.45499-0.44498c0-1.36 1.355-2.73 2.72-4.075 3.16 1.345 5.43-4.98 8.5949-1.35 0.90002 0.44999 2.715 0.44999 3.615 0.44999 3.165 0.90002 4.065 4.075 5.43 6.335m-32.115-2.72h-0.44502c-0.915 0-4.085-1.37-4.985-2.715-0.44499-0.90002-0.44499-2.265-0.44499-2.265 1.345 0 2.26-0.44999 3.61-0.44999l2.265 5.43zm102.66 2.72c-3.17 0-1.35-6.335-8.15-6.335-1.8 0-2.7 2.245-4.51 2.71 0-0.46496 0.46-3.16 0.46-3.16 0-1.365 0.44002-2.725 2.25-4.075 3.61 0 2.71 1.35 5.425 2.255 1.81 0.45499 2.725 1.82 4.525 1.82v6.785zm-47.49-4.98c0 2.72-1.35 5.42-1.815 8.14 0-3.16-0.89001-5.42-2.705-7.25 0-0.89001 1.355-1.345 0.455-2.245 0 0-2.715-1.365-2.715-3.175 0-2.26 1.81-3.625 2.715-4.985 0-0.43998 1.8 0.92501 1.8 3.635 0 0.89998 0 1.815-0.44002 3.16-0.46 1.365 2.705 1.365 2.705 2.72m22.165-9.05c0 1.81-0.90999 3.17-0.44498 4.985-1.365-2.725-2.74-5.45-4.08-8.15-0.45499 0-0.89497 0-0.89497-0.44999l1.33-0.90503c0.90498 0 2.28 0 2.28 0.90503 0.90002 0.90999 1.81 2.255 1.81 3.615m27.585 3.615c-1.375-0.44499-4.51-0.91-4.51-2.255 0-1.825-0.91996-2.265-3.165-2.265-2.275 0-3.635 0.43998-6.345 1.365 0 0-1.365-1.82-1.815-3.625 0.915-0.44999 4.525-1.82 6.335-1.82 3.185 0 6.78 0 6.78 1.82 0 1.355 2.72 2.26 2.72 6.78m-118.49-9.49c-0.43998 2.71-1.8 3.61-4.065 6.77-1.8 0.915-4.52 1.365-7.235 2.72 0.45003-1.355 1.81-1.805 2.715-3.155 1.35-1.365 2.72-3.625 3.155-5.445 2.28-0.89001 3.63-0.89001 5.43-0.89001m84.135 6.335c0 2.71-0.46497 6.335-0.46497 9.48-1.35 0-1.35-1.345-1.35-2.695-0.90002-2.725-1.355-5.435-2.25-8.15-1.37-4.08-3.63-7.23-5.435-11.315-0.45499-2.255-2.73-3.165-4.525-4.52 2.255 0 4.525 0.45003 6.33 1.815 0 1.355 0.44498 1.81 1.8 3.17 3.18 0 2.725 4.06 5.43 6.33 0 0.44002-0.89001 0.44002-1.35 1.365-0.90002 0-1.355 1.795-1.355 1.795 1.355 0.90503 2.705 1.36 3.17 2.725m-92.72-10.41c-1.365 2.72-2.715 5.43-5.425 6.785-1.81 0-4.065 0.89998-6.785 0 1.355-1.355 2.72-1.82 4.52-2.71l4.07-4.075h3.62zm27.13 6.785c-1.355 0.89998-4.07 1.355-5.415 1.355-3.63-1.805-3.63-5.42-6.79-6.78-0.46-0.46-0.90999-1.36-0.90999-1.81l7.7 1.35c-0.46001 1.355 0.44502 1.82 1.345 1.82 1.36 1.355 2.715 2.71 4.07 4.065m53.36 0c-0.44002 0.89998-1.355 1.355-1.795 1.355 0 0-2.27-2.25-2.715-4.065-0.465-2.26 0.89999-5.43 0.89999-5.43 0.45003 0 0.90002 0.90499 1.815 0.90499 0.43998 0.45003 0 1.81 0.43998 3.17 0.915 1.355 2.27 2.71 1.355 4.065m-93.15-8.14-2.255 6.785c-2.27 2.255-5.43 1.355-8.14 1.355 4.07-1.355 6.78-5.425 8.14-8.14 0.89502-0.44999 1.345 0 2.255 0m56.075 5.43h-1.35c-5.43 1.355-9.51-1.82-13.58-4.525 2.715-0.90499 4.98-0.90499 6.785-1.355h1.365l1.805 2.705c1.355 0.46 3.625 1.82 4.975 3.175m87.73-0.455c-3.145 0-6.325-1.365-6.785-2.72-0.89001-0.89998-0.44002-2.705-2.255-2.705-1.34 0-2.255 1.355-2.255 1.355-1.37 0.45003-4.08-1.355-4.08 0 0 2.265-2.25 3.17-4.075 3.17-1.35 0-1.8 0-3.165-0.46496v-4.525c6.34 0 5.885-2.255 8.6-2.255 1.805 0 3.165 1.36 4.975 1.36 2.255 0 0.915-0.90002 3.17-0.90002 2.275 0 3.15 1.795 4.975 2.26 0 1.355 0.89502 3.165 0.89502 5.425m-150.16-10.87c0 1.805-1.36 4.525-3.63 6.79-0.44002 0.45003-1.8 1.35-1.8 1.35 0-2.705 1.36-5.425 1.36-7.69 1.35-0.44999 2.71-1.36 4.07-0.44999m70.55 5.885c-2.27 0-5.435 0-7.235-1.36-2.73-1.81-3.625-2.72-4.985-4.075 1.82-1.36 4.07-1.36 5.43-1.805 1.355 1.805 3.61 5.43 6.79 7.24m22.6-2.265c0 1.35-0.89998 1.815-1.805 2.715 0 0-1.81-2.26-1.81-3.62s0-2.715 0.44999-4.07c1.36 1.355 3.165 3.16 3.165 4.975m20.805 0.90502c-4.065-2.72-6.775-6.79-10.385-10.85 3.61 0 4.965 3.605 7.67 4.06 0.915 0.91 1.82 1.355 2.715 2.715v4.075zm-84.12-11.31c0 3.175-0.455 7.235-3.605 8.59l-1.37-4.525c1.81-0.89001 3.175-2.25 4.975-4.065m-9.945 7.235c-2.715-2.715-4.99-5.42-4.99-8.13 1.37 0 2.72 0 4.085 1.355 0 2.26 1.35 4.06 0.90503 6.775m129.34-0.44999c-4.075-1.81-9.955-3.61-13.12-3.61-1.8 0-7.235 2.255-9.49 4.51l-0.90002-4.51c3.155-0.455 3.155-2.715 4.955-2.715 1.365 0 3.175-0.46 4.545-0.46 1.34 0 2.24-1.355 3.165-1.355 1.8 0 0.89001 2.71 2.7 2.71 1.365 0 1.815-0.89502 3.17-0.89502 2.275 0 4.52 3.605 4.975 6.325m-108.99 0.44999c-2.27-1.36-6.33-1.805-5.88-4.515 1.355-2.26 2.71-2.72 3.61-4.075 0.46 3.17 0.90999 5.875 2.27 8.5899m41.61-2.715-2.26 0.91c-4.975 0-7.695-1.365-9.955-3.615 1.81 0 4.525-1.815 4.525-1.815 2.265 1.815 5.43 4.065 7.69 4.52m-88.18-4.52c-1.815 1.815-4.08 3.175-5.435 5.875 0-1.355-0.44502-2.7-0.90002-4.06 0.455-1.355 1.81-2.71 2.71-3.17 0.91004 0.45997 2.26 0.45997 3.625 1.355m57.87 5.43c-1.805 0.44498-4.97 1.355-6.325-0.91-2.72-4.06-0.90999-8.14 0.44999-11.29 0.90503 2.705 1.36 5.415 1.805 8.125 0.46 1.82 3.165 2.71 4.07 4.075m35.73-7.69c-1.81 0.90502-5.42 1.365-8.13-0.455l3.61-2.255c1.355 1.35 3.17 2.255 4.52 2.71m51.12-1.36c-2.735 0-3.635-0.44503-5.885-0.44503-1.825 0-4.53 1.35-6.34 3.17-0.91003-1.365-0.44002-2.725 0-4.075 1.35-1.365 3.615-3.165 5.88-3.165 3.18 0 6.345 2.71 6.345 4.515m-133.42 4.975c-3.165-0.89502-6.325-3.615-7.685-6.325-0.91-1.8-1.35-4.075-1.35-5.89 1.8 0.45504 3.16 1.815 4.07 2.725v0.44002c1.8 2.725 4.515 5.435 4.965 9.05m5.8799-7.69-0.89998 6.335c-1.815-2.715-3.17-5.425-3.62-9.045l4.52 2.71zm46.58 5.44c-2.72 0.89501-4.525-1.365-6.335-2.725-1.355-2.715-1.355-5.425-2.255-7.24 2.255 1.815 5.87 1.815 5.42 5.89 0 1.35 1.82 2.71 3.17 4.075m10.855-5.44c-2.715 0-5.88 1.365-7.23-1.36 0.89502-0.44002 1.8-1.795 3.165-2.71l4.065 4.07zm70.555-4.525c-3.18-0.89497-5.435-1.805-8.155-1.805-1.35 0-5.425 0.91-5.87 1.805-1.37-1.355 0.91499-5.41 2.705-6.32 1.815-0.90499 3.165-0.44999 4.09 0 0 2.715 3.15 1.36 4.96 2.255 0.90002 1.35 1.825 2.71 2.27 4.065m-61.955-2.255c-0.91003 1.36-2.265 0-3.175 0h-4.07c-0.455-1.35-0.90499-1.81-1.355-2.705 2.27-0.44999 3.615-1.36 4.98-0.44999 1.355 1.345 1.8 3.155 3.62 3.155m-38.91-7.23c-0.44002 2.715-1.355 7.23-4.06 8.59 0-1.36-1.36-2.71-2.265-4.065-0.44502 0 0 1.355-0.44502 1.355 0 1.35-0.44999 2.71-0.44999 4.975-1.37 0.44499-3.18 1.355-4.98 0.44499v-1.36c-0.91003-1.35-0.91003-2.71-0.91003-4.06l-0.43998-0.46c-0.915 0.46-0.915 1.81-0.915 2.71-0.44999 0.46001-1.8 1.81-1.8 3.17-1.37 0-2.72-0.44499-4.085-1.36v-4.52c0-0.89501 0-0.89501-0.44498-0.89501l-2.275 2.705c-1.785-1.81-2.24-5.425-2.24-8.145 7.675-4.065 16.72-2.71 22.61-0.43501 0.89498 0.43501 1.8 0.43501 2.7 1.35m35.29-3.625c-2.71 0-4.08-1.355-5.43-4.07 0-1.35-0.46-3.17 0-5.425 0.44999 1.355 0.89998 2.715 1.805 3.61 1.81-0.89498 1.81 1.355 2.26 1.815 0.46 1.36 1.365 2.715 1.365 4.07m-9.97-22.148c0 0.465-0.91499 4.07-0.91499 4.07l-3.62 1.37 2.27-10.41c0.89502 1.805 2.265 3.62 2.265 4.97m-71.905-7.685-1.82 2.715c0.45499 4.97-1.8 8.145-1.8 12.21l-2.265-7.24c0.44999-2.255 0.90999-4.065 2.265-6.325l3.62-1.36zm70.99 28.5c-5.43-3.175-11.765-5.425-18.545-5.885 0 1.355 0 2.71-0.44999 3.17 5.43 2.715 10.85 5.4249 15.375 9.5v4.075c-4.525-4.525-9.945-9.505-16.285-10.86-0.44999 0.90503-1.795 2.26-2.71 3.63-3.17-2.275-6.785-4.08-10.845-4.985-1.37 0-1.81-1.82-1.81-3.175l-0.46-2.255c2.27-0.45499 4.08-2.265 4.53-4.52 0.44502 0.44999 1.35 0.44999 2.25 0.44999 0.90999-0.44999 0.90999-1.36 0.90999-2.72 0-2.705-5.875-2.705-8.5899-2.705-3.165 0-5.435-0.46501-7.69 1.355-0.90498 0-0.46 1.35-0.46 2.26 0 0.44999 1.365 1.36 1.365 1.36 1.35 0 1.81-0.91003 2.72-0.91003-0.465 2.715 0.89998 4.52 3.155 5.43l-0.43998 4.07c-1.365 1.36-3.625 0.44999-5.435 1.36-2.715 1.355-5.425 2.71-8.14 4.065-1.35-1.355-2.26-2.71-3.16-4.065-4.525 1.355-7.235 4.065-11.755 6.785-1.36 0.90498-3.625 2.715-3.625 2.715-0.44999-0.44999 0-1.81 0-3.165 4.065-4.075 9.495-5.43 14.02-8.155v-3.61c-1.81-0.45499-3.615 0-5.875 0-4.08 0.90002-8.145 2.72-11.305 4.97 0-1.36-0.90999-2.715 0.44499-3.61 4.98-2.715 10.86-4.525 17.185-4.075v-1.805c-0.44999-0.91003-0.44999-2.27-1.36-2.27-2.705-3.17-5.415-6.775-5.415-9.945l1.35-0.915c-0.89998-2.705-1.35-9.495 0-12.655-2.71-0.90499-5.42-3.62-6.32-5.425-0.90999-2.27-1.82-3.62-2.265-6.335 0.90498-2.71 2.265-4.07 3.605-6.785 0.91 0 2.27-0.44999 2.72-1.36 2.26-0.45 4.07-2.715 6.785-1.355 1.81 0 3.62 0.90498 4.97 1.355 0 0.91003 0 1.36 1.365 2.265 2.69 0.44999 2.69 3.17 4.06 5.42 1.35 0.46 2.715 0.46 4.065 0.46 2.72 0.90002 4.525 0.90002 5.895 2.26 3.605-2.26 7.68-2.72 11.74-2.26 0.46-1.81 1.37-3.17 1.815-5.43 0.915 0.90503 0.45499-0.44999 1.36-0.44999 2.26-1.355 4.52-3.62 7.69-2.715 2.255 1.36 5.42 0.45 6.785 3.165 1.805 1.36 2.71 4.075 4.07 6.785-1.36 2.71 0 6.785-2.72 8.135l-2.715 2.725c-0.89998 0-1.355 0.89502-2.715 0.89502 1.36 3.17 0.45504 8.155-0.90498 11.305 0.90498-0.44502 2.265-0.44502 2.72-1.8 0.44999 0.44999 0 1.355 0 1.8-0.45499 0.915-0.45499 1.365-0.45499 1.365 0.45499 2.72-1.36 4.97-3.165 6.79-0.90002 2.705-3.165 6.33-6.33 6.78v1.36c6.78 0 12.67 1.355 18.995 4.965v3.175zm101.73-29.858c-1.36-1.355-2.71-2.715-4.52-2.715-1.345-1.81-3.14-4.065-4.98-4.065 1.37-0.45499 3.175-1.36 5.435-1.36 1.355 2.255 2.705 4.065 3.165 5.425l0.90002 2.715zm-173.64-5.425-3.165 1.35 0.455-2.705c0.90002-1.36 1.355-2.725 2.71-4.075v5.43zm159.19-4.52c-1.81 0-3.155 0.43998-5 0-0.885-0.90999-2.235 0-3.135 0.43998-0.91996 0-1.805-0.43998-3.165-1.35 2.7 0 4.065-1.805 6.3-2.72 1.845 1.36 3.63 2.27 5 3.63m-99.955 130.72c0-1.805-1.36-2.715-3.165-2.715-1.355 0-3.165 1.81-3.165 2.715 0 1.815-1.36 12.21-1.36 12.21h3.62c1.36-4.52 4.07-9.95 4.07-12.21m-10.395-0.46501h-0.46l-3.61-3.61h-0.46c-0.90002 0.89501-1.36 2.27-2.26 3.61 0 4.085 1.36 8.615 2.26 12.675h4.07c0-4.52 0.46-8.59 0.46-12.675m72.815-5.425-4.515 0.455c1.35 1.36 1.35 3.17 1.35 4.075 0 1.36-0.45499 2.71-1.35 3.62-1.37-0.90999-1.37-2.26-2.28-3.62-0.90503 0-1.35 2.25-1.35 3.175 0 4.52 1.8 7.695 3.17 10.395h4.525c-0.46497-4.06-1.355-7.24-1.355-11.32 0-2.25 1.355-4.965 1.805-6.78m102.19-43.425c0-18.995-6.325-39.345-23.52-56.53-2.74-2.715-6.32-5.89-9.955-8.145-6.785-4.515-13.095-10.86-16.735-17.64-2.26-2.72-4.065-4.075-6.79-5.425 0.46496 1.35 1.355 2.705 1.81 4.065h-0.455c-2.695 0-4.95-1.36-6.785-2.715l1.835-1.805c-0.455-0.90499-1.835-0.90499-2.74-0.90499-8.11-1.355-14.9 2.71-22.135 4.065v0.915c4.52 1.805 5.435 7.235 8.13 9.945h2.74c1.34 0 2.705 1.36 3.595 0.90999 0-0.90999-0.89001-2.27-0.89001-2.72 0.89001-0.89998 1.805-0.89998 2.705 0 2.25 1.355 5.855-0.89998 7.66 2.72-2.69 0-5.41 0.44999-7.66 1.35 0 0.45504 1.375 1.81 0.90498 2.725-2.26-0.91499-4.975 0-6.315-2.27l-0.47001 0.90499c3.175 3.165 7.255 5.88 11.32 7.245 6.315 1.355 11.74-1.815 17.625-0.46 6.79 3.165 12.205 7.24 16.73 11.765 14.925 15.83 20.365 32.555 20.365 47.48 0 18.55-5.44 31.67-13.575 39.81-4.99 4.99-11.315 9.5-19.005 9.5-1.8 0-5.43-0.45499-7.685-2.26 1.35-5.435 2.255-11.31 2.255-19.895 0-4.995 0-18.1-6.32-33.48-1.37-3.165-6.35-13.125-12.67-19.895-4.975-4.98-10.855-9.505-16.715-9.505-2.725 0-5.44 0.45499-7.71 2.275-2.25 2.25-3.61 5.875-3.15 8.58-4.075 2.255-9.96 4.07-14.935 4.07-5.875 0-12.2-3.17-17.64-6.775v-6.795c-3.165-1.355-4.065-2.71-4.51-5.4249l0.44498-0.46001c1.355 0.46001 2.275 1.36 3.165 1.82-0.44999-3.175-0.88997-6.785-2.705-9.5-1.36 0-2.715-0.44999-4.085-1.36-1.795-1.36-2.705-3.16-2.705-5.425 1.365 2.265 3.62 1.36 4.975 2.715-2.27-5.425-1.355-8.145-5.43-16.735-1.35-4.08-5.425-6.335-8.14-9.05-1.35-1.36-1.81-2.72-4.065-2.72-1.355-0.45499-1.355-2.705-1.8-4.065 0.89998 0 1.8 0.90499 2.705 1.36-2.26-6.785-4.52-13.575-10.865-17.645l-0.90002 0.90999c-2.715 0.44002-5.42 0.44002-7.685 0.44002 0.89998-1.35 2.71-1.8 4.52-2.7-1.81-1.36-3.16-1.815-5.875-1.815-0.90999 0.45499-3.17 1.815-4.975 1.815h-0.45499c0-1.36-0.44499-3.18 2.26-4.075-2.705-0.46-4.975-0.46-8.135 0-0.46 2.26-2.265 3.62-2.265 5.425-1.355 1.35-1.81 2.71-3.16 4.07 0-3.16 1.35-5.875 1.805-8.6-1.805 0.45499-4.06 1.82-5.43 1.82-3.62-1.82-8.14-4.075-9.96-4.075 2.72 2.255 1.37 5.435 1.82 8.135l-1.82-1.35c-0.88997-1.805-2.69-3.165-3.605-5.425-2.71 0-4.52 0.89502-6.78 2.26l-0.44499 0.45499c1.805 0 3.615 1.36 4.515 2.71-3.17 0-5.425-1.35-8.585-1.35 0 0 0-0.45503-0.91003-0.45503-1.36 0.45503-2.72 1.805-3.625 2.715-3.16 2.705-5.42 5.425-7.23 9.495 0.90999 0 2.265 0 2.72 0.45499-1.365 0.89998-2.72 2.715-4.52 3.61v6.795c-1.355 1.805-3.165 3.155-4.075 5.425-2.265 8.14-2.715 16.74-2.715 26.235-0.90499 1.355-1.81 1.805-2.7 2.265v8.14s3.15-3.17 4.51-4.08c0 1.815-0.44999 4.53-0.44999 6.34-1.36 0-3.17 1.82-3.17 3.62 0 1.81 0.44999 3.625 0.44999 5.43 0 0.89001 0 1.35 0.45504 2.25 0.45499-0.89998 1.355-2.25 2.265-2.71 0.44999 0 1.355-0.89501 2.71-0.89501-0.89998 1.355-1.355 3.605-2.26 5.415l-1.36 1.36s-0.44999 0.90999-0.44999 1.35c1.36 9.5099 4.52 18.555 8.145 28.055-3.17 6.32-6.335 13.115-7.695 18.085-1.355 3.62-3.15 10.86-3.15 10.86-2.265-2.255-5.44-2.71-8.155-2.71-3.16 0.45499-5.875 1.355-8.14 4.065-2.71-1.355-6.33-0.90499-8.1399 1.355-4.065 3.635-4.065 5.435-4.065 8.145-1.36 1.36-3.17 3.63-3.17 6.785 0 4.53 0.90999 7.23 3.17 10.86h71.89c-0.90002-1.355-1.81-3.165-2.715-4.52-1.35-2.72-0.44498-6.34-0.44498-9.05 1.35-2.715 3.16-5.43 4.53-8.14 0.43502-1.355 0-1.355 0.89998-1.815l3.165-1.35c1.8 0 3.17-0.915 5.43-0.915 1.8 2.265 1.8-1.805 4.07-2.71 5.43-0.45499 9.945 0 12.66 4.065 0 0.90999 0.90499 0.90999 0.90499 1.37h-2.265c-2.715-1.37-6.33-2.725-9.5-1.37 0 1.37-0.45499 1.37-0.45499 2.725v2.26c1.815 0.45003 3.17 1.805 4.98 3.165 0.89998-1.815 3.62-3.165 5.875-3.165 2.265 0 5.885 1.35 5.885 5.435 0 1.805-0.45499 3.62-0.45499 5.425 1.805 1.35 4.525 1.79 6.79 3.155-0.90999 1.375-2.265 1.375-3.615 1.375h-4.08c-0.45504-0.46-1.36-0.46-1.36-1.375-1.355 1.375-2.26 3.625-3.165 5.435h55.185c-0.90498-1.81-1.825-3.165-2.265-4.52-1.355-2.72-0.91499-6.34-1.355-9.05l5.42-7.225c2.725 0 5.435-0.91499 10.405-1.36 0.89497-1.37 0-2.28 4.06-2.72 3.615 0 5.89 1.35 6.805 1.81 0.44002 0.90999 0.44002 0.90999 0 1.815-0.91499 0.89501-2.72-0.90499-4.08-0.45996-0.89998 0.91499 0.45499 1.355 0.45499 2.26 0.90499 0.90002-4.065-0.90499-4.065-0.90499s-1.365 2.71-1.815 4.07c0 0 2.26 1.36 2.7 2.715 0.915 1.36-0.88496 2.71-0.88496 4.075-1.365-0.45503-2.74-1.825-3.175-1.365-0.90503 3.62 0 6.8-0.47001 10.86h4.99l0.90503-8.145c0.46-4.53 5.88-13.105 9.045-13.105 2.275 0 3.175 0.89501 4.985 2.25 1.34 1.355 3.15 2.715 3.15 3.61 0 0.46501-1.35 1.375-3.61 1.375-0.89998 0-1.35-1.375-2.25-2.27l-2.725 2.715s3.165 2.71 3.165 4.98c0 1.79-0.44002 3.155-2.265 4.07l-2.7-5.43c-1.355 0-3.64 2.71-3.64 4.515s-0.90498 2.735-0.90498 5.435h29.385c3.19 0 5.895-0.915 9.07-2.7h5.87c8.155 0 18.555-1.36 29.39-11.775 17.19-16.28 18.1-38.46 18.1-47.05m-183.15 61.525c-2.26-4.52-2.715-10.86-2.715-12.21 0-2.715 0-5.89 1.35-8.145l-5.415 1.355c-0.915 1.355-1.365 2.715-1.365 3.61l1.805-0.89501c0.91003 0 1.37 0.89501 1.81 1.36-0.44002 2.715-3.165 2.715-4.53 3.605-1.345 4.52 2.72 7.26 3.63 11.32h5.43z"/>
 </g>
</svg>
