<?xml version="1.0" encoding="UTF-8" standalone="no"?>
<!-- Generator: Adobe Illustrator 12.0.0, SVG Export Plug-In  -->

<svg
   xmlns:dc="http://purl.org/dc/elements/1.1/"
   xmlns:cc="http://creativecommons.org/ns#"
   xmlns:rdf="http://www.w3.org/1999/02/22-rdf-syntax-ns#"
   xmlns:svg="http://www.w3.org/2000/svg"
   xmlns="http://www.w3.org/2000/svg"
   xmlns:sodipodi="http://sodipodi.sourceforge.net/DTD/sodipodi-0.dtd"
   xmlns:inkscape="http://www.inkscape.org/namespaces/inkscape"
   version="1.1"
   width="241.44434"
   height="241.4292"
   viewBox="-0.3168945 -0.0917969 241.44434 241.4292"
   enable-background="new -0.3168945 -0.0917969 516 259"
   xml:space="preserve"
   id="svg2"
   inkscape:version="0.48.5 r10040"
   sodipodi:docname="mtsbank.svg"><metadata
     id="metadata22"><rdf:RDF><cc:Work
         rdf:about=""><dc:format>image/svg+xml</dc:format><dc:type
           rdf:resource="http://purl.org/dc/dcmitype/StillImage" /></cc:Work></rdf:RDF></metadata><sodipodi:namedview
     pagecolor="#ffffff"
     bordercolor="#666666"
     borderopacity="1"
     objecttolerance="10"
     gridtolerance="10"
     guidetolerance="10"
     inkscape:pageopacity="0"
     inkscape:pageshadow="2"
     inkscape:window-width="1920"
     inkscape:window-height="1015"
     id="namedview20"
     showgrid="false"
     fit-margin-top="0"
     fit-margin-left="0"
     fit-margin-right="0"
     fit-margin-bottom="0"
     inkscape:zoom="0.91119691"
     inkscape:cx="249.72607"
     inkscape:cy="76.427877"
     inkscape:window-x="-2"
     inkscape:window-y="-3"
     inkscape:window-maximized="1"
     inkscape:current-layer="svg2" /><defs
     id="defs4" /><rect
     width="514.99951"
     height="258.3125"
     id="rect6"
     x="-8.2739258"
     y="-8.3969746"
     style="opacity:0;fill:#ffffff" /><polygon
     points="7.9570313,8.3051758 7.9570313,249.73438 7.9570313,249.73438 249.40137,249.73438 249.40137,8.3051758 "
     id="polygon8"
     style="fill:#ff0000"
     transform="translate(-8.2739258,-8.3969743)" /><path
     d="m 120.40284,24.705076 c 34.31152,0 70.97754,61.342285 70.97754,114.463374 0,41.72559 -24.52784,77.32031 -70.97754,77.32031 -46.484382,0 -70.948249,-35.59472 -70.948249,-77.32031 0,-53.121089 36.631836,-114.463374 70.948249,-114.463374"
     id="path10"
     inkscape:connector-curvature="0"
     style="fill:#ffffff" /><polygon
     points="301.12061,158.46387 284.20947,158.46387 284.20947,100.50586 284.20947,100.50586 309.63037,100.50586 317.93408,134.60352 318.0708,134.60352 326.38428,100.50586 351.78467,100.50586 351.78467,158.46387 334.89404,158.46387 334.89404,121.26514 334.71631,121.26514 324.6665,158.46387 311.3374,158.46387 301.26807,121.26514 301.12061,121.26514 "
     id="polygon14"
     style="fill:#ffffff"
     transform="translate(-8.2739258,-8.3969743)" /><polygon
     points="411.87939,100.50586 411.87939,115.34912 395.60889,115.34912 395.60889,158.46387 377.76025,158.46387 377.76025,115.34912 377.76025,115.34912 361.52979,115.34912 361.52979,100.50586 "
     id="polygon16"
     style="fill:#ffffff"
     transform="translate(-8.2739258,-8.3969743)" /><path
     d="m 446.71778,113.67773 c -0.3252,-2.08789 -1.96484,-8.51563 -9.31934,-8.51563 -8.38281,0 -11.06738,8.12793 -11.06738,15.93897 0,7.79882 2.68457,15.90429 11.06738,15.90429 5.98243,0 8.35157,-4.21875 9.39844,-9.68847 h 17.54395 c 0,11.69336 -9.50782,24.14258 -26.47852,24.14258 -18.76758,0 -29.37988,-13.23438 -29.37988,-30.3584 0,-18.28321 11.52148,-30.364744 29.37988,-30.364744 15.92481,0.06445 24.7002,8.421876 26.21094,22.941404 h -17.35547 l 0,0 z"
     id="path18"
     inkscape:connector-curvature="0"
     style="fill:#ffffff" /></svg>