<?xml version="1.0" encoding="UTF-8" standalone="no"?>
<!-- Created with Inkscape (http://www.inkscape.org/) -->

<svg
   xmlns:dc="http://purl.org/dc/elements/1.1/"
   xmlns:cc="http://creativecommons.org/ns#"
   xmlns:rdf="http://www.w3.org/1999/02/22-rdf-syntax-ns#"
   xmlns:svg="http://www.w3.org/2000/svg"
   xmlns="http://www.w3.org/2000/svg"
   xmlns:sodipodi="http://sodipodi.sourceforge.net/DTD/sodipodi-0.dtd"
   xmlns:inkscape="http://www.inkscape.org/namespaces/inkscape"
   version="1.0"
   width="48.947559"
   height="38.515324"
   viewBox="0 0 112.37773 85.120759"
   id="svg2"
   xml:space="preserve"
   sodipodi:version="0.32"
   inkscape:version="0.48.5 r10040"
   sodipodi:docname="nordea.svg"
   inkscape:output_extension="org.inkscape.output.svg.inkscape"><metadata
     id="metadata14"><rdf:RDF><cc:Work
         rdf:about=""><dc:format>image/svg+xml</dc:format><dc:type
           rdf:resource="http://purl.org/dc/dcmitype/StillImage" /></cc:Work></rdf:RDF></metadata><sodipodi:namedview
     inkscape:window-height="573"
     inkscape:window-width="744"
     inkscape:pageshadow="2"
     inkscape:pageopacity="0.0"
     guidetolerance="10.0"
     gridtolerance="10.0"
     objecttolerance="10.0"
     borderopacity="1.0"
     bordercolor="#666666"
     pagecolor="#ffffff"
     id="base"
     height="52.94px"
     width="239.12398px"
     inkscape:zoom="2.2384804"
     inkscape:cx="-69.672193"
     inkscape:cy="12.829572"
     inkscape:window-x="88"
     inkscape:window-y="116"
     inkscape:current-layer="svg2"
     showgrid="false"
     fit-margin-top="0"
     fit-margin-left="0"
     fit-margin-right="0"
     fit-margin-bottom="0"
     inkscape:window-maximized="0" /><defs
     id="defs4" /><path
     d="M 16.38248,36.876279 C 12.81805,23.917429 7.03466,12.986184 9.9e-4,5.4349513 47.50058,-5.4377933 81.14699,-3.8375188 85.83876,9.2492358 93.89366,31.715542 50.06559,73.645906 11.11962,86.153629 19.1448,75.880736 22.0588,57.515258 16.38248,36.876279 l 0,0 z M 90.09129,28.181851 C 94.7533,18.574255 95.80031,9.9908738 93.22937,2.691482 92.57302,0.83143564 91.64099,-0.78966016 90.50275,-2.2719467 103.65098,-0.40000236 115.34766,19.152297 111.70292,41.279511 108.9069,58.254915 102.39178,73.095627 95.24606,81.908041 86.10349,77.386821 66.86152,76.292209 45.29649,79.778306 40.41237,80.567538 36.52868,81.353795 32.10167,82.472203 56.75026,69.500461 80.63538,47.666729 90.09129,28.181851 l 0,0 z"
     style="fill:#ffffff"
     id="path18"
     inkscape:connector-curvature="0" /><path
     d="M 16.38248,36.876279 C 22.0588,57.515258 19.1438,75.880736 11.11865,86.154618 50.06459,73.646898 93.89267,31.715542 85.83776,9.2502268 81.146,-3.8365274 47.4996,-5.4368019 0,5.4359427 7.03564,12.986184 12.81904,23.917429 16.38248,36.876279 l 0,0 z"
     style="fill:#0065a4"
     id="path20"
     inkscape:connector-curvature="0" /><path
     d="M 90.09129,28.181851 C 94.7533,18.574255 95.80031,9.9908738 93.22937,2.691482 92.57302,0.83143564 91.64099,-0.78966016 90.50275,-2.2719467 103.65098,-0.40000236 115.34766,19.152297 111.70292,41.279511 108.9069,58.254915 102.39178,73.095627 95.24606,81.908041 86.10349,77.386821 66.86152,76.292209 45.29649,79.778306 40.41237,80.567538 36.52868,81.353795 32.10167,82.472203 56.75026,69.500461 80.63538,47.666729 90.09129,28.181851 l 0,0 z"
     style="fill:#0065a4"
     id="path22"
     inkscape:connector-curvature="0" /></svg>