<?xml version="1.0" encoding="UTF-8" standalone="no"?>
<svg
   xmlns:dc="http://purl.org/dc/elements/1.1/"
   xmlns:cc="http://creativecommons.org/ns#"
   xmlns:rdf="http://www.w3.org/1999/02/22-rdf-syntax-ns#"
   xmlns:svg="http://www.w3.org/2000/svg"
   xmlns="http://www.w3.org/2000/svg"
   xmlns:sodipodi="http://sodipodi.sourceforge.net/DTD/sodipodi-0.dtd"
   xmlns:inkscape="http://www.inkscape.org/namespaces/inkscape"
   viewBox="0 0 71.489334 71.437332"
   height="71.437332"
   width="71.489334"
   xml:space="preserve"
   version="1.1"
   id="svg2"
   inkscape:version="0.48.5 r10040"
   sodipodi:docname="promsvyazbank.svg"><sodipodi:namedview
     pagecolor="#ffffff"
     bordercolor="#666666"
     borderopacity="1"
     objecttolerance="10"
     gridtolerance="10"
     guidetolerance="10"
     inkscape:pageopacity="0"
     inkscape:pageshadow="2"
     inkscape:window-width="1920"
     inkscape:window-height="1015"
     id="namedview23"
     showgrid="false"
     fit-margin-top="0"
     fit-margin-left="0"
     fit-margin-right="0"
     fit-margin-bottom="0"
     inkscape:zoom="2.0884956"
     inkscape:cx="-52.458785"
     inkscape:cy="15.23467"
     inkscape:window-x="-2"
     inkscape:window-y="-3"
     inkscape:window-maximized="1"
     inkscape:current-layer="svg2" /><metadata
     id="metadata8"><rdf:RDF><cc:Work
         rdf:about=""><dc:format>image/svg+xml</dc:format><dc:type
           rdf:resource="http://purl.org/dc/dcmitype/StillImage" /></cc:Work></rdf:RDF></metadata><defs
     id="defs6" /><g
     transform="matrix(1.3333333,0,0,-1.3333333,-243.57066,216.70266)"
     id="g10"><g
       transform="scale(0.1,0.1)"
       id="g12"><path
         id="path162"
         style="fill:#2647a3;fill-opacity:1;fill-rule:nonzero;stroke:none"
         d="m 2362.95,1494.82 c 0,72.06 -58.4,130.45 -130.45,130.45 l -184.3,0 c -59.47,0 -110.19,-40.07 -125.58,-95.47 l 222.77,0 c 85.7,0 122.07,-39.86 122.07,-133.41 l 0,-211.43 c 55.27,15.39 95.49,66.29 95.49,125.53 l 0,184.33"
         inkscape:connector-curvature="0" /><path
         id="path164"
         style="fill:#f1511b;fill-opacity:1;fill-rule:nonzero;stroke:none"
         d="m 1826.78,1219.94 c 0,-72.07 58.42,-130.45 130.47,-130.45 l 184.29,0 c 59.48,0 110.18,40.06 125.57,95.47 l -222.77,0 c -85.69,0 -122.07,39.86 -122.07,133.42 l 0,211.42 c -55.28,-15.41 -95.49,-66.3 -95.49,-125.54 l 0,-184.32"
         inkscape:connector-curvature="0" /><path
         id="path166"
         style="fill:#2647a3;fill-opacity:1;fill-rule:nonzero;stroke:none"
         d="m 2200.06,1419.24 0,0.56 c 10.33,3.27 24.12,11.88 24.12,34.5 0,25.45 -20.68,37.13 -49.79,37.13 l -49.41,0 0,-60.9 -29.08,0 c -39.06,0 -47.11,-27.41 -47.11,-42.33 0,-21.23 12.26,-30.64 34.86,-41.91 13.79,-6.88 30.22,-11.09 30.22,-26.82 0,-8.26 -7.62,-18.22 -24.08,-18.22 l -30.65,0 c 4.59,7.87 6.5,16.48 6.5,23.96 0,9.75 -3.43,48.83 -57.83,48.83 l -44.43,0 0,-150.68 30.25,0 0,65.66 12.27,-12.26 82.73,0 c 38.64,0 57.03,19.9 57.03,43.65 0,8.42 -1.54,15.18 -4.21,20.68 l 31.03,0 c 47.87,0 58.98,23.75 58.98,42.35 0,18.92 -12.26,32.93 -31.4,35.8 z m -192.25,-117.99 -14.18,0 0,49.26 14.18,0 c 17.62,0 25.67,-10.71 25.67,-23.73 0,-12.11 -7.29,-25.53 -25.67,-25.53 z m 117.17,93.46 0,-36.55 c -7.28,4.38 -15.66,7.84 -24.47,11.66 -9.59,4.22 -19.92,9.59 -19.92,21.68 0,6.14 3.82,15.28 22.2,15.28 l 34.07,0 -11.88,-12.07 z m 30.25,73.14 13.79,0 c 23.36,0 24.52,-14.33 24.52,-18.73 0,-6.5 -3.44,-18.59 -23.36,-18.59 l -14.95,0 0,37.32 z m 17.25,-103.01 -17.25,0 0,41.94 17.25,0 c 21.06,0 26.8,-10.16 26.8,-20.88 0,-10.72 -7.64,-21.06 -26.8,-21.06"
         inkscape:connector-curvature="0" /></g></g></svg>