<?xml version="1.0" encoding="UTF-8" standalone="no"?>
<svg
   xmlns:dc="http://purl.org/dc/elements/1.1/"
   xmlns:cc="http://creativecommons.org/ns#"
   xmlns:rdf="http://www.w3.org/1999/02/22-rdf-syntax-ns#"
   xmlns:svg="http://www.w3.org/2000/svg"
   xmlns="http://www.w3.org/2000/svg"
   xmlns:xlink="http://www.w3.org/1999/xlink"
   xmlns:sodipodi="http://sodipodi.sourceforge.net/DTD/sodipodi-0.dtd"
   xmlns:inkscape="http://www.inkscape.org/namespaces/inkscape"
   version="1.0"
   width="37.237881"
   height="37.516655"
   viewBox="0 0 253.5913 255.79537"
   id="svg2"
   inkscape:version="0.48.5 r10040"
   sodipodi:docname="unicredit.svg">
  <metadata
     id="metadata64">
    <rdf:RDF>
      <cc:Work
         rdf:about="">
        <dc:format>image/svg+xml</dc:format>
        <dc:type
           rdf:resource="http://purl.org/dc/dcmitype/StillImage" />
      </cc:Work>
    </rdf:RDF>
  </metadata>
  <sodipodi:namedview
     pagecolor="#ffffff"
     bordercolor="#666666"
     borderopacity="1"
     objecttolerance="10"
     gridtolerance="10"
     guidetolerance="10"
     inkscape:pageopacity="0"
     inkscape:pageshadow="2"
     inkscape:window-width="1920"
     inkscape:window-height="1015"
     id="namedview62"
     showgrid="false"
     fit-margin-top="0"
     fit-margin-left="0"
     fit-margin-right="0"
     fit-margin-bottom="0"
     inkscape:zoom="2.4127801"
     inkscape:cx="305.81129"
     inkscape:cy="-5.0030555"
     inkscape:window-x="-2"
     inkscape:window-y="-3"
     inkscape:window-maximized="1"
     inkscape:current-layer="svg2" />
  <defs
     id="defs4">
    <filter
       id="filter-bg-shadow"
       color-interpolation-filters="sRGB">
      <feGaussianBlur
         stdDeviation="2.5365493"
         id="feGaussianBlur7" />
    </filter>
    <linearGradient
       id="lg1">
      <stop
         style="stop-color:#ffebe3;stop-opacity:1"
         offset="0"
         id="stop10" />
      <stop
         style="stop-color:#f39672;stop-opacity:1"
         offset="0.14676516"
         id="stop12" />
      <stop
         style="stop-color:#e2001a;stop-opacity:1"
         offset="0.36621189"
         id="stop14" />
      <stop
         style="stop-color:#cf001a;stop-opacity:1"
         offset="0.70826375"
         id="stop16" />
      <stop
         style="stop-color:#af0819;stop-opacity:1"
         offset="0.84236193"
         id="stop18" />
      <stop
         style="stop-color:#b30414;stop-opacity:1"
         offset="1"
         id="stop20" />
    </linearGradient>
    <radialGradient
       id="rg1"
       cx="-15.762797"
       cy="5.373209"
       r="11.5015"
       fx="-15.762797"
       fy="5.373209"
       xlink:href="#lg1"
       gradientUnits="userSpaceOnUse"
       gradientTransform="matrix(9.2538966,9.2538963,9.8402399,-9.8402234,151.20406,246.25517)" />
    <linearGradient
       id="lg2"
       x1="921.27448"
       y1="14.045666"
       x2="1026.6995"
       y2="-57.260788"
       gradientUnits="userSpaceOnUse"
       gradientTransform="matrix(1.6311504,0,0,1.6311504,-1487.2357,142.60073)">
      <stop
         style="stop-color:#464648;stop-opacity:1"
         offset="0"
         id="stop24" />
      <stop
         style="stop-color:#464648;stop-opacity:1"
         offset="0.04910786"
         id="stop26" />
      <stop
         style="stop-color:#919294;stop-opacity:1"
         offset="0.09470124"
         id="stop28" />
      <stop
         style="stop-color:#464648;stop-opacity:1"
         offset="0.15467197"
         id="stop30" />
      <stop
         style="stop-color:#515153;stop-opacity:1"
         offset="0.90608072"
         id="stop32" />
      <stop
         style="stop-color:#919294;stop-opacity:1"
         offset="0.95977587"
         id="stop34" />
      <stop
         style="stop-color:#515153;stop-opacity:1"
         offset="0.98384809"
         id="stop36" />
      <stop
         style="stop-color:#515153;stop-opacity:1"
         offset="1"
         id="stop38" />
      <stop
         style="stop-color:#515153;stop-opacity:1"
         offset="1"
         id="stop40" />
    </linearGradient>
    <g
       id="signet">
      <path
         d="m 100.00005,9.9298405 c -49.78173,0 -90.070085,40.3393765 -90.070085,90.1210595 0,23.21094 8.765786,44.38414 23.19292,60.35257 -0.586578,0.82529 -4.131557,5.82686 -4.230797,5.96389 -1.480301,2.05205 -4.399653,5.40302 -1.47823,8.41062 2.921423,2.99975 8.283553,-1.31926 10.19469,-2.75257 0.236599,-0.17672 3.298774,-2.47891 4.28177,-3.21132 15.690917,13.2621 35.941306,21.25592 58.109732,21.25592 49.74245,0 90.06994,-40.28442 90.06994,-90.01911 0,-16.542002 -4.46315,-32.044847 -12.23363,-45.36637 2.89807,-3.024692 4.58517,-5.541133 4.53672,-7.595044 -0.11744,-4.299892 2.4389,-9.58942 -16.20946,-11.570974 -1.10429,-0.117769 -2.32488,-0.228018 -3.61919,-0.30584 C 146.34514,19.571456 124.2932,9.9298405 100.00005,9.9298405 z"
         style="opacity:0.58064515;fill:#00001a;fill-opacity:1;fill-rule:nonzero;stroke:none;filter:url(#filter-bg-shadow)"
         id="path43"
         inkscape:connector-curvature="0" />
      <path
         d="m 183.97812,92.48321 c 0,49.73469 -40.32025,90.05503 -90.062831,90.05503 -49.781731,0 -90.1020075,-40.32034 -90.1020075,-90.05503 0,-49.781682 40.3202765,-90.1098532 90.1020075,-90.1098532 49.742581,0 90.062831,40.3281712 90.062831,90.1098532"
         style="fill:url(#rg1);fill-opacity:1;fill-rule:nonzero;stroke:none"
         id="path45"
         inkscape:connector-curvature="0" />
      <path
         d="m 86.263269,44.784898 c 1.879738,1.433292 11.309745,6.95503 14.129351,8.717276 l 0.96336,0.689242 0.46993,-0.697072 c 0.99471,-1.6526 1.38632,-2.984075 -1.43329,-4.746337 -2.819606,-1.770076 -12.249613,-7.283984 -14.129351,-8.717276 l -3.078062,-2.490652 c 1.16699,3.226888 1.95022,6.383278 3.078062,7.244819"
         style="fill:#4b4b4d;fill-opacity:1;fill-rule:nonzero;stroke:none"
         id="path47"
         inkscape:connector-curvature="0" />
      <path
         d="m 88.197814,67.451381 c 0,0 10.401209,-13.463614 11.395901,-15.116214 0.994695,-1.660429 1.386295,-2.984075 -1.433292,-4.754167 -2.819606,-1.762246 -12.249629,-7.276138 -14.129351,-8.709446 -1.871908,-1.433292 -1.542954,-6.735721 3.978768,-7.840059 5.513892,-1.104354 53.40801,-5.075292 72.06439,-3.085908 18.64855,1.981554 16.96461,8.725105 16.22055,11.583875 -1.08085,4.166758 -7.51111,10.487368 -17.66169,19.643243 0,0 -16.77664,15.562659 -29.01843,26.269318 -12.24961,10.69883 -51.42645,43.688207 -59.039371,49.656357 -7.620768,5.96817 -37.140463,27.92976 -39.059348,29.36306 -1.911072,1.43329 -7.268325,5.74886 -10.189748,2.74911 -2.921423,-3.00758 0,-6.35977 1.480302,-8.41182 1.480285,-2.04421 60.973935,-86.052766 65.391319,-91.347349"
         style="fill:#ffffff;fill-opacity:1;fill-rule:nonzero;stroke:none"
         id="path49"
         inkscape:connector-curvature="0" />
      <path
         d="m 175.14351,33.052213 c 0.75979,1.832744 1.44112,5.333748 1.15127,6.477249 -1.0808,4.166758 -7.51112,10.487368 -17.66161,19.643243 0,0 -16.77666,15.562659 -29.01844,26.269318 -12.24961,10.69883 -51.426455,43.688207 -59.039392,49.656357 -7.620751,5.96817 -37.140447,27.92976 -39.059348,29.36305 -1.456797,1.09652 -7.957551,2.03638 -10.824151,1.95806 0.924209,1.32365 2.576809,2.77261 4.276403,4.43305 3.01541,2.91359 8.278675,-1.30799 10.197577,-2.74912 1.911056,-1.4333 31.438581,-23.41054 39.051519,-29.36304 7.612921,-5.96816 46.789762,-38.957527 59.039372,-49.656373 12.24179,-10.706659 29.01849,-26.269302 29.01849,-26.269302 10.15049,-9.155892 15.69575,-14.137197 16.77655,-18.303938 0.50125,-1.926731 1.17492,-7.941892 -3.90824,-11.458554"
         style="fill:url(#lg2);fill-opacity:1"
         id="path51"
         inkscape:connector-curvature="0" />
    </g>
  </defs>
  <use
     x="38.900002"
     y="5"
     transform="matrix(1.32,0,0,1.32,-58.654261,-9.732831)"
     width="264.20001"
     height="264.20001"
     xlink:href="#signet"
     id="use53" />
</svg>
