<?xml version="1.0" encoding="UTF-8" standalone="no"?>
<!-- Created with sK1/UniConvertor (http://sk1project.org/) -->

<svg
   xmlns:dc="http://purl.org/dc/elements/1.1/"
   xmlns:cc="http://creativecommons.org/ns#"
   xmlns:rdf="http://www.w3.org/1999/02/22-rdf-syntax-ns#"
   xmlns:svg="http://www.w3.org/2000/svg"
   xmlns="http://www.w3.org/2000/svg"
   xmlns:sodipodi="http://sodipodi.sourceforge.net/DTD/sodipodi-0.dtd"
   xmlns:inkscape="http://www.inkscape.org/namespaces/inkscape"
   width="648.89032"
   height="357.16498"
   viewBox="0 0 519.11228 285.73197"
   id="svg2"
   version="1.1"
   inkscape:version="0.48.5 r10040"
   sodipodi:docname="zenit.svg">
  <metadata
     id="metadata106">
    <rdf:RDF>
      <cc:Work
         rdf:about="">
        <dc:format>image/svg+xml</dc:format>
        <dc:type
           rdf:resource="http://purl.org/dc/dcmitype/StillImage" />
        <dc:title></dc:title>
      </cc:Work>
    </rdf:RDF>
  </metadata>
  <sodipodi:namedview
     pagecolor="#ffffff"
     bordercolor="#666666"
     borderopacity="1"
     objecttolerance="10"
     gridtolerance="10"
     guidetolerance="10"
     inkscape:pageopacity="0"
     inkscape:pageshadow="2"
     inkscape:window-width="1920"
     inkscape:window-height="1015"
     id="namedview104"
     showgrid="false"
     inkscape:zoom="0.22425732"
     inkscape:cx="291.02036"
     inkscape:cy="154.82874"
     inkscape:window-x="-2"
     inkscape:window-y="-3"
     inkscape:window-maximized="1"
     inkscape:current-layer="svg2"
     fit-margin-top="0"
     fit-margin-left="0"
     fit-margin-right="0"
     fit-margin-bottom="0" />
  <defs
     id="defs4">
    <marker
       id="ArrowEnd"
       viewBox="0 0 10 10"
       refX="0"
       refY="5"
       markerUnits="strokeWidth"
       markerWidth="4"
       markerHeight="3"
       orient="auto">
      <path
         d="M 0,0 10,5 0,10 z"
         id="path7"
         inkscape:connector-curvature="0" />
    </marker>
    <marker
       id="ArrowStart"
       viewBox="0 0 10 10"
       refX="10"
       refY="5"
       markerUnits="strokeWidth"
       markerWidth="4"
       markerHeight="3"
       orient="auto">
      <path
         d="M 10,0 0,5 10,10 z"
         id="path10"
         inkscape:connector-curvature="0" />
    </marker>
  </defs>
  <g
     id="g12"
     transform="translate(-64.8217,-259.07604)">
    <g
       id="g14">
      <g
         id="g16">
        <g
           id="g18">
          <path
             style="fill:#000000;stroke:none"
             d="m 438.836,456.164 -7.488,0 0,-29.883 38.669,0 0,29.596 -5.762,0 0,6.696 23.764,0 0,-6.696 -6.697,0 0,-56.599 6.697,0 0,-5.689 -23.764,0 0,5.689 5.762,0 0,21.242 -38.669,0 0,-21.242 7.344,0 0,-5.689 -23.978,0 0,5.689 5.76,-0.144 0,56.743 -5.76,0 0,6.841 24.122,0 0,-6.554 z"
             id="path20"
             inkscape:connector-curvature="0" />
          <path
             style="fill:#000000;stroke:none"
             d="m 516.895,422.825 -2.09,1.872 2.09,2.088 9.648,9.506 19.659,19.514 -4.897,0 0,6.768 28.444,0 0,-6.696 -9.145,0 -33.557,-32.549 27.508,-23.978 8.713,0 0,-5.761 -27.22,0 0,5.689 7.417,0 -16.922,15.05 -9.648,8.497 z"
             id="path22"
             inkscape:connector-curvature="0" />
          <path
             style="fill:#000000;stroke:none"
             d="m 518.983,462.573 0,-6.696 -2.088,0 -4.537,0 0,-56.599 4.537,0 2.088,0 0,-5.689 -2.088,0 -20.812,0 0,5.689 4.969,0 0,56.599 -4.969,0 0,6.696 20.812,0 2.088,0 z"
             id="path24"
             inkscape:connector-curvature="0" />
          <path
             style="fill:#000000;stroke:none"
             d="m 330.824,462.645 21.818,0 0,-6.84 -7.057,0 9.505,-21.531 13.178,0 13.61,0 11.16,21.603 -8.137,0 0,6.696 27.94,0 0,-6.696 -6.12,0 -36.221,-70.137 -2.232,4.609 -31.108,65.528 -6.336,0 0,6.768 z m 36.652,-56.311 0.792,1.584 10.801,20.955 -10.801,0 -10.729,0 9.937,-22.539 z"
             id="path26"
             inkscape:connector-curvature="0" />
          <path
             style="fill:#000000;stroke:none"
             d="m 554.699,471.431 -28.156,0 -1.08,0 0,15.338 1.08,0 4.105,0 0,-9.65 18.434,0 0,56.6 -6.913,0 0,6.768 12.53,0 12.529,0 0,-6.768 -6.912,0 0,-56.6 18.506,0 0,9.65 5.112,0 0,-15.338 -29.235,0 z"
             id="path28"
             inkscape:connector-curvature="0" />
          <path
             style="fill:#000000;stroke:none"
             d="m 427.531,477.048 5.544,0 0,21.243 -37.516,0 0,-21.243 7.129,0 0,-5.69 -23.259,0 0,5.69 5.617,-0.145 0,56.671 -5.617,0 0,6.913 23.403,0 0,-6.553 -7.273,0 0,-29.883 37.516,0 0,29.523 -5.544,0 0,6.768 23.043,0 0,-6.768 -6.48,0 0,-56.526 6.48,0 0,-5.69 -23.043,0 0,5.69 z"
             id="path30"
             inkscape:connector-curvature="0" />
          <path
             style="fill:#000000;stroke:none"
             d="m 330.824,443.491 c 0,-0.36 0.071,-0.72 0.071,-1.081 0,-0.504 0,-0.935 -0.071,-1.439 -0.577,-11.594 -8.787,-20.235 -20.667,-20.235 l -18.506,0 0,13.394 6.12,0 0,-8.641 5.401,0 c 6.768,0 15.193,5.977 15.122,13.97 -0.073,7.993 -3.529,16.418 -15.626,16.418 l -15.626,0 0,-56.599 29.091,0 0,10.081 7.129,0 0,-15.77 -56.671,0 0,5.689 8.282,0 0,56.599 -8.282,0 0,6.696 37.444,0 c 14.259,0 26.068,-7.345 26.789,-19.082 z"
             id="path32"
             inkscape:connector-curvature="0" />
          <path
             style="fill:#000000;stroke:none"
             d="m 521.647,533.719 0,-65.601 -4.752,5.04 -45.87,48.391 0,-44.43 6.985,0 0,-5.688 -24.411,0 0,5.76 6.048,0 0,67.617 49.759,-52.999 0,41.91 -5.833,0 0,6.768 13.322,0 9.648,0 1.081,0 0,-6.768 -1.081,0 -4.896,0 z"
             id="path34"
             inkscape:connector-curvature="0" />
          <path
             style="fill:#000000;stroke:none"
             d="m 296.763,500.306 c 8.569,-1.728 14.761,-6.625 14.689,-14.618 -0.071,-7.921 -6.984,-14.257 -23.762,-14.257 l -27.363,0 0,15.338 7.704,0 0,-9.578 19.227,0 c 5.473,0 11.81,4.176 11.737,10.729 -0.072,6.554 -5.832,10.658 -12.169,10.658 l -13.61,0 0,13.394 6.409,0 0,-8.642 8.497,0 c 7.777,0 13.825,7.274 13.61,15.483 -0.144,8.28 -4.105,14.906 -16.995,14.906 l -16.706,0 0,-8.425 -7.704,0 0,15.193 28.803,0 c 8.568,0 18.29,-3.241 23.043,-10.369 4.032,-5.977 4.104,-14.978 1.008,-19.73 -4.104,-6.409 -8.066,-8.21 -16.418,-10.082 z"
             id="path36"
             inkscape:connector-curvature="0" />
          <path
             style="fill:#000000;stroke:none"
             d="m 368.411,533.719 -0.143,0 -32.332,0 0,-30.676 16.994,0 0,8.929 6.552,0 0,-14.69 -23.546,0 0,-20.163 27.723,0 0,9.65 4.609,0 2.736,0 0,-15.338 -2.736,0 -37.444,0 -11.811,0 0,5.76 6.193,0 0,56.528 -6.193,0 0,6.768 11.811,0 37.444,0 6.697,0 0,-15.265 -6.554,0 0,8.497 z"
             id="path38"
             inkscape:connector-curvature="0" />
        </g>
        <g
           id="g40">
          <path
             style="fill:#008099;stroke:none"
             d="m 168.371,426.353 -2.953,-65.672 c -0.143,-0.072 -0.215,-0.072 -0.359,-0.072 -0.649,-0.144 -1.368,-0.288 -2.017,-0.432 l -3.384,74.601 c 1.8,-1.656 3.601,-3.385 5.401,-5.113 1.08,-1.08 2.232,-2.232 3.312,-3.312 z"
             id="path42"
             inkscape:connector-curvature="0" />
          <path
             style="fill:#008099;stroke:none"
             d="m 150.801,460.197 c -0.865,0.648 -1.657,1.224 -2.521,1.872 l -3.024,67.472 5.545,0 5.544,0 -3.24,-71.072 c -0.792,0.576 -1.512,1.152 -2.304,1.728 z"
             id="path44"
             inkscape:connector-curvature="0" />
          <path
             style="fill:#008099;stroke:none"
             d="m 170.82,349.088 -3.241,-70.425 c -0.576,-0.144 -1.152,-0.288 -1.728,-0.432 l -0.792,17.281 -2.377,52.351 c 0.792,0.216 1.584,0.36 2.377,0.504 1.872,0.36 3.816,0.577 5.761,0.721 z"
             id="path46"
             inkscape:connector-curvature="0" />
          <path
             style="fill:#008099;stroke:none"
             d="m 154.69,439.314 -3.745,-83.17 c -0.073,0 -0.144,0 -0.144,-0.072 -0.648,-0.215 -1.224,-0.504 -1.8,-0.792 l -4.177,92.459 c 2.017,-1.656 4.033,-3.312 5.977,-4.968 1.296,-1.152 2.592,-2.304 3.889,-3.457 z"
             id="path48"
             inkscape:connector-curvature="0" />
          <path
             style="fill:#008099;stroke:none"
             d="m 170.603,529.541 -3.744,-82.233 c -0.576,0.503 -1.224,1.08 -1.8,1.584 -0.649,0.576 -1.297,1.08 -1.944,1.656 l -3.601,78.993 5.545,0 5.544,0 z"
             id="path50"
             inkscape:connector-curvature="0" />
          <path
             style="fill:#008099;stroke:none"
             d="m 184.861,529.541 -4.248,-94.691 c -0.433,0.36 -0.865,0.792 -1.296,1.224 -0.432,0.431 -0.937,0.864 -1.369,1.297 l -4.177,92.17 5.546,0 5.544,0 z"
             id="path52"
             inkscape:connector-curvature="0" />
          <path
             style="fill:#008099;stroke:none"
             d="m 195.447,394.741 -1.585,-36.004 c -0.072,0 -0.216,0 -0.288,0.071 -0.648,0.217 -1.296,0.361 -1.944,0.577 l -1.944,42.917 c 1.295,-1.656 2.592,-3.312 3.888,-5.04 0.648,-0.792 1.296,-1.657 1.873,-2.521 z"
             id="path54"
             inkscape:connector-curvature="0" />
          <path
             style="fill:#008099;stroke:none"
             d="m 199.119,529.541 -4.897,-108.733 c -0.216,0.216 -0.432,0.432 -0.648,0.648 -0.216,0.216 -0.432,0.504 -0.648,0.721 l -4.896,107.364 5.544,0 5.545,0 z"
             id="path56"
             inkscape:connector-curvature="0" />
          <path
             style="fill:#008099;stroke:none"
             d="m 181.98,411.663 -2.303,-50.262 c -0.073,0 -0.217,0 -0.36,0 -0.649,0.072 -1.369,0.072 -2.089,0.144 l -2.592,58.256 c 1.584,-1.657 3.168,-3.385 4.681,-5.185 0.863,-0.936 1.8,-1.944 2.663,-2.953 z"
             id="path58"
             inkscape:connector-curvature="0" />
          <path
             style="fill:#008099;stroke:none"
             d="m 157.353,346.351 -3.384,-73.809 c -0.36,-0.288 -0.792,-0.577 -1.152,-0.864 l -2.016,44.429 -1.224,27.004 c 0.359,0.215 0.792,0.36 1.224,0.576 2.088,1.008 4.249,1.944 6.552,2.664 z"
             id="path60"
             inkscape:connector-curvature="0" />
          <path
             style="fill:#008099;stroke:none"
             d="m 89.6654,495.697 -1.5125,33.844 5.5447,0 5.5444,0 -1.6559,-37.372 c -1.2959,0.576 -2.5921,1.152 -3.8885,1.728 -1.2962,0.649 -2.6646,1.224 -4.0322,1.8 z"
             id="path62"
             inkscape:connector-curvature="0" />
          <path
             style="fill:#008099;stroke:none"
             d="m 75.1196,501.602 -1.2245,27.939 5.5447,0 5.5447,0 -1.4402,-31.25 c -1.3684,0.575 -2.736,1.151 -4.1045,1.655 -1.4399,0.576 -2.8801,1.08 -4.3202,1.656 z"
             id="path64"
             inkscape:connector-curvature="0" />
          <path
             style="fill:#008099;stroke:none"
             d="m 104.283,488.928 -1.873,40.613 5.546,0 5.544,0 -2.016,-44.357 c -1.152,0.576 -2.305,1.224 -3.528,1.873 -1.224,0.576 -2.449,1.224 -3.673,1.871 z"
             id="path66"
             inkscape:connector-curvature="0" />
          <path
             style="fill:#008099;stroke:none"
             d="m 213.449,529.541 -5.545,-122.63 -5.617,122.63 5.617,0 5.545,0 z"
             id="path68"
             inkscape:connector-curvature="0" />
          <path
             style="fill:#008099;stroke:none"
             d="m 136.543,470.278 c -1.008,0.648 -2.016,1.296 -2.952,1.945 l -2.592,57.318 5.544,0 5.545,0 -2.809,-61.135 c -0.936,0.648 -1.8,1.225 -2.736,1.872 z"
             id="path70"
             inkscape:connector-curvature="0" />
          <path
             style="fill:#008099;stroke:none"
             d="m 140,259.076 -3.385,74.89 c 2.232,2.088 4.537,3.96 7.057,5.616 L 140,259.076 z"
             id="path72"
             inkscape:connector-curvature="0" />
          <path
             style="fill:#008099;stroke:none"
             d="m 136.543,454.293 c 1.44,-1.153 2.952,-2.233 4.392,-3.385 l -4.392,-97.5 -0.36,-6.769 c -0.36,-0.36 -0.648,-0.648 -1.008,-0.936 l -5.041,111.541 2.449,0 c 1.296,-1.008 2.592,-1.943 3.96,-2.951 z"
             id="path74"
             inkscape:connector-curvature="0" />
          <path
             style="fill:#008099;stroke:none"
             d="m 207.904,379.187 -8.713,0 0,4.896 8.713,0 11.521,0 0,149.707 -11.521,0 -14.33,0 -14.257,0 -14.258,0 -14.258,0 -14.258,0 -14.33,0 -14.257,0 -14.2584,0 -14.2578,0 -9.6492,0 0,-149.707 9.6492,0 14.2578,0 14.2584,0 14.257,0 7.273,0 0,-4.896 -7.273,0 -14.257,0 -14.2584,0 -14.2578,0 -14.6181,0 0,159.5 14.6181,0 14.2578,0 14.2584,0 14.257,0 14.33,0 14.258,0 14.258,0 14.258,0 14.257,0 14.33,0 16.418,0 0,-159.5 -16.418,0 z"
             id="path76"
             inkscape:connector-curvature="0" />
          <path
             style="fill:#008099;stroke:none"
             d="m 118.901,481.079 -2.232,48.462 5.544,0 5.617,0 -2.377,-52.278 c -1.079,0.648 -2.159,1.297 -3.24,1.873 -1.08,0.72 -2.232,1.367 -3.312,1.943 z"
             id="path78"
             inkscape:connector-curvature="0" />
        </g>
        <g
           id="g80">
          <path
             style="fill:#808080;stroke:none"
             d="m 328.087,453.572 0,6.768 0.072,0 21.746,0 0,-6.768 -7.057,0 9.578,-21.531 13.177,0 13.61,0 11.09,21.531 -8.137,0 0,6.768 27.939,0 0,-6.768 -6.049,0 -36.292,-70.064 -2.161,4.608 -31.107,65.456 -6.337,0 -0.072,0 z m 36.652,-49.47 0.864,1.584 10.801,20.883 -10.801,0 -10.801,0 9.937,-22.467 z"
             id="path82"
             inkscape:connector-curvature="0" />
          <path
             style="fill:#808080;stroke:none"
             d="m 328.159,441.187 0,-1.008 0,-1.441 c -0.648,-11.665 -8.857,-20.306 -20.739,-20.306 l -18.433,0 0,13.465 6.047,0 0,-8.64 5.401,0 c 6.768,0 15.266,5.904 15.122,13.897 -0.071,7.993 -3.457,16.418 -15.626,16.418 l -15.626,0 0,-56.526 29.093,0 0,10.08 7.2,0 0,-15.77 -56.743,0 0,5.69 8.353,0 0,56.526 -8.353,0 0,6.768 37.444,0 c 14.258,0 26.139,-7.416 26.86,-19.153 z"
             id="path84"
             inkscape:connector-curvature="0" />
          <path
             style="fill:#808080;stroke:none"
             d="m 436.173,453.932 -7.562,0 0,-29.883 38.669,0 0,29.523 -5.76,0 0,6.768 23.835,0 0,-6.768 -6.698,0 0,-56.526 6.698,0 0,-5.69 -23.835,0 0,5.69 5.76,0 0,21.242 -38.669,0 0,-21.242 7.345,0 0,-5.69 -23.906,0 0,5.69 5.76,-0.144 0,56.67 -5.76,0 0,6.913 24.123,0 0,-6.553 z"
             id="path86"
             inkscape:connector-curvature="0" />
          <path
             style="fill:#808080;stroke:none"
             d="m 516.246,460.34 0,-6.768 -2.088,0 -4.537,0 0,-56.526 4.537,0 2.088,0 0,-5.69 -2.088,0 -20.81,0 0,5.69 4.968,0 0,56.526 -4.968,0 0,6.768 20.81,0 2.088,0 z"
             id="path88"
             inkscape:connector-curvature="0" />
          <path
             style="fill:#808080;stroke:none"
             d="m 514.158,420.593 -2.088,1.872 2.088,2.016 9.649,9.577 19.731,19.514 -4.969,0 0,6.768 28.443,0 0,-6.768 -9.072,0 -33.628,-32.476 27.578,-24.05 8.642,0 0,-5.69 -27.219,0 0,5.69 7.417,0 -16.923,14.977 -9.649,8.57 z"
             id="path90"
             inkscape:connector-curvature="0" />
          <path
             style="fill:#808080;stroke:none"
             d="m 518.91,531.414 0,-65.528 -4.752,5.04 -45.87,48.391 0,-44.43 6.985,0 0,-5.689 -24.411,0 0,5.689 6.048,0 0,67.688 49.831,-52.999 0,41.838 -5.905,0 0,6.768 13.322,0 9.649,0 1.08,0 0,-6.768 -1.08,0 -4.897,0 z"
             id="path92"
             inkscape:connector-curvature="0" />
          <path
             style="fill:#808080;stroke:none"
             d="m 552.035,469.198 -28.228,0 -1.08,0 0,15.267 1.08,0 4.105,0 0,-9.578 18.434,0 0,56.527 -6.841,0 0,6.768 12.53,0 12.457,0 0,-6.768 -6.84,0 0,-56.527 18.434,0 0,9.578 5.184,0 0,-15.267 -29.235,0 z"
             id="path94"
             inkscape:connector-curvature="0" />
          <path
             style="fill:#808080;stroke:none"
             d="m 294.098,498.074 c 8.497,-1.729 14.69,-6.625 14.618,-14.618 -0.072,-7.993 -6.913,-14.258 -23.763,-14.258 l -27.363,0 0,15.267 7.777,0 0,-9.578 19.155,0 c 5.472,0 11.809,4.249 11.737,10.801 -0.072,6.481 -5.833,10.586 -12.17,10.586 l -13.609,0 0,13.465 6.481,0 0,-8.713 8.497,0 c 7.777,0 13.753,7.274 13.61,15.554 -0.145,8.281 -4.105,14.834 -16.995,14.834 l -16.706,0 0,-8.353 -7.777,0 0,15.121 28.876,0 c 8.568,0 18.217,-3.168 22.97,-10.296 4.033,-6.05 4.105,-14.978 1.08,-19.803 -4.104,-6.337 -8.136,-8.137 -16.418,-10.009 z"
             id="path96"
             inkscape:connector-curvature="0" />
          <path
             style="fill:#808080;stroke:none"
             d="m 424.794,474.815 5.617,0 0,21.243 -37.589,0 0,-21.243 7.202,0 0,-5.761 -23.259,0 0,5.761 5.544,-0.216 0,56.742 -5.544,0 0,6.841 23.403,0 0,-6.552 -7.346,0 0,-29.884 37.589,0 0,29.595 -5.617,0 0,6.77 23.115,0 0,-6.77 -6.552,0 0,-56.526 6.552,0 0,-5.761 -23.115,0 0,5.761 z"
             id="path98"
             inkscape:connector-curvature="0" />
          <path
             style="fill:#808080;stroke:none"
             d="m 365.748,531.486 -0.145,0 -32.404,0 0,-30.748 16.994,0 0,9.001 6.554,0 0,-14.689 -23.548,0 0,-20.163 27.724,0 0,9.578 4.68,0 2.665,0 0,-15.267 -2.665,0 -37.444,0 -11.882,0 0,5.689 6.193,0 0,56.527 -6.193,0 0,6.768 11.882,0 37.444,0 6.625,0 0,-15.193 -6.48,0 0,8.497 z"
             id="path100"
             inkscape:connector-curvature="0" />
        </g>
      </g>
    </g>
  </g>
  <g
     id="g102"
     transform="translate(-64.8217,-259.07604)" />
</svg>
