<?xml version="1.0" encoding="UTF-8" standalone="no"?>
<!-- Generator: Adobe Illustrator 18.1.1, SVG Export Plug-In . SVG Version: 6.00 Build 0)  -->

<svg
   xmlns:dc="http://purl.org/dc/elements/1.1/"
   xmlns:cc="http://creativecommons.org/ns#"
   xmlns:rdf="http://www.w3.org/1999/02/22-rdf-syntax-ns#"
   xmlns:svg="http://www.w3.org/2000/svg"
   xmlns="http://www.w3.org/2000/svg"
   xmlns:sodipodi="http://sodipodi.sourceforge.net/DTD/sodipodi-0.dtd"
   xmlns:inkscape="http://www.inkscape.org/namespaces/inkscape"
   version="1.1"
   id="Capa_1"
   x="0px"
   y="0px"
   width="1000px"
   height="1000px"
   viewBox="0 0 1000 1000"
   enable-background="new 0 0 1000 1000"
   xml:space="preserve"
   inkscape:version="0.48.5 r10040"
   sodipodi:docname="bank16.svg"><metadata
     id="metadata13"><rdf:RDF><cc:Work
         rdf:about=""><dc:format>image/svg+xml</dc:format><dc:type
           rdf:resource="http://purl.org/dc/dcmitype/StillImage" /><dc:title></dc:title></cc:Work></rdf:RDF></metadata><defs
     id="defs11" /><sodipodi:namedview
     pagecolor="#ffffff"
     bordercolor="#666666"
     borderopacity="1"
     objecttolerance="10"
     gridtolerance="10"
     guidetolerance="10"
     inkscape:pageopacity="0"
     inkscape:pageshadow="2"
     inkscape:window-width="640"
     inkscape:window-height="480"
     id="namedview9"
     showgrid="false"
     inkscape:zoom="0.236"
     inkscape:cx="500"
     inkscape:cy="500"
     inkscape:window-x="0"
     inkscape:window-y="0"
     inkscape:window-maximized="0"
     inkscape:current-layer="Capa_1" /><g
     id="g3"
     style="fill:#4d4d4d"><path
       d="M84.7,265.9h33.4v37.6c0,16.6,13.4,30,30,30h354.7h354.7c16.6,0,30-13.4,30-30v-37.6h33.4c16.6,0,30-13.4,30-30v-48.5   c0-13.2-8.7-24.9-21.3-28.7L515.8,33.9c-4.2-1.3-8.6-1.9-13-1.9c-4.4,0-8.7,0.6-13,1.9L76,158.7c-12.7,3.8-21.3,15.5-21.3,28.7   v48.5C54.7,252.4,68.1,265.9,84.7,265.9z"
       id="path5"
       style="fill:#4d4d4d" /><path
       d="M922,863.6h-34.5V826c0-16.6-13.4-30-30-30h-39.6V363.6H703.3V796H556.2V363.6H449.4V796H302.3V363.6H187.7V796h-39.6   c-16.6,0-30,13.4-30,30v37.6H83.6c-16.6,0-30,13.4-30,30v40.8c0,16.6,13.4,30,30,30H922c16.6,0,30-13.4,30-30v-40.8   C952,877,938.6,863.6,922,863.6z"
       id="path7"
       style="fill:#4d4d4d" /></g></svg>