<?xml version="1.0" encoding="UTF-8" standalone="no"?>
<!-- Generator: Adobe Illustrator 16.0.0, SVG Export Plug-In . SVG Version: 6.00 Build 0)  -->

<svg
   xmlns:dc="http://purl.org/dc/elements/1.1/"
   xmlns:cc="http://creativecommons.org/ns#"
   xmlns:rdf="http://www.w3.org/1999/02/22-rdf-syntax-ns#"
   xmlns:svg="http://www.w3.org/2000/svg"
   xmlns="http://www.w3.org/2000/svg"
   xmlns:sodipodi="http://sodipodi.sourceforge.net/DTD/sodipodi-0.dtd"
   xmlns:inkscape="http://www.inkscape.org/namespaces/inkscape"
   version="1.1"
   id="Capa_1"
   x="0px"
   y="0px"
   width="485.213px"
   height="485.212px"
   viewBox="0 0 485.213 485.212"
   style="enable-background:new 0 0 485.213 485.212;"
   xml:space="preserve"
   inkscape:version="0.48.5 r10040"
   sodipodi:docname="buildings5.svg"><metadata
     id="metadata41"><rdf:RDF><cc:Work
         rdf:about=""><dc:format>image/svg+xml</dc:format><dc:type
           rdf:resource="http://purl.org/dc/dcmitype/StillImage" /><dc:title></dc:title></cc:Work></rdf:RDF></metadata><defs
     id="defs39" /><sodipodi:namedview
     pagecolor="#ffffff"
     bordercolor="#666666"
     borderopacity="1"
     objecttolerance="10"
     gridtolerance="10"
     guidetolerance="10"
     inkscape:pageopacity="0"
     inkscape:pageshadow="2"
     inkscape:window-width="640"
     inkscape:window-height="480"
     id="namedview37"
     showgrid="false"
     inkscape:zoom="0.48638533"
     inkscape:cx="242.60651"
     inkscape:cy="242.606"
     inkscape:window-x="0"
     inkscape:window-y="0"
     inkscape:window-maximized="0"
     inkscape:current-layer="Capa_1" /><g
     id="g3"
     style="fill:#4d4d4d"><path
       d="M454.89,454.886V181.955H242.607V0H30.328v454.886H0.001v30.326h485.211v-30.326H454.89z M60.652,30.327h60.653v60.651   H60.652V30.327z M60.652,121.304h60.653v60.651H60.652V121.304z M60.652,212.282h60.653v60.648H60.652V212.282z M60.652,303.257   h60.653v60.648H60.652V303.257z M181.956,454.886H90.979v-60.649h90.978V454.886z M212.283,363.906h-60.654v-60.648h60.654V363.906   z M212.283,272.93h-60.654v-60.648h60.654V272.93z M212.283,181.955h-60.654v-60.651h60.654V181.955z M212.283,90.978h-60.654   V30.327h60.654V90.978z M272.934,212.282h60.653v60.648h-60.653V212.282z M272.934,303.257h60.653v60.648h-60.653V303.257z    M394.236,454.886h-90.98v-60.649h90.98V454.886z M424.562,363.906h-60.653v-60.648h60.653V363.906z M424.562,272.93h-60.653   v-60.648h60.653V272.93z"
       id="path5"
       style="fill:#4d4d4d" /></g><g
     id="g7" /><g
     id="g9" /><g
     id="g11" /><g
     id="g13" /><g
     id="g15" /><g
     id="g17" /><g
     id="g19" /><g
     id="g21" /><g
     id="g23" /><g
     id="g25" /><g
     id="g27" /><g
     id="g29" /><g
     id="g31" /><g
     id="g33" /><g
     id="g35" /></svg>