<?xml version="1.0" encoding="UTF-8" standalone="no"?>
<!-- Generator: Adobe Illustrator 18.1.1, SVG Export Plug-In . SVG Version: 6.00 Build 0)  -->

<svg
   xmlns:dc="http://purl.org/dc/elements/1.1/"
   xmlns:cc="http://creativecommons.org/ns#"
   xmlns:rdf="http://www.w3.org/1999/02/22-rdf-syntax-ns#"
   xmlns:svg="http://www.w3.org/2000/svg"
   xmlns="http://www.w3.org/2000/svg"
   xmlns:sodipodi="http://sodipodi.sourceforge.net/DTD/sodipodi-0.dtd"
   xmlns:inkscape="http://www.inkscape.org/namespaces/inkscape"
   version="1.1"
   id="Capa_1"
   x="0px"
   y="0px"
   viewBox="0 0 23.302 23.302"
   style="enable-background:new 0 0 23.302 23.302;"
   xml:space="preserve"
   inkscape:version="0.48.5 r10040"
   width="100%"
   height="100%"
   sodipodi:docname="social16.svg"><metadata
     id="metadata41"><rdf:RDF><cc:Work
         rdf:about=""><dc:format>image/svg+xml</dc:format><dc:type
           rdf:resource="http://purl.org/dc/dcmitype/StillImage" /><dc:title></dc:title></cc:Work></rdf:RDF></metadata><defs
     id="defs39" /><sodipodi:namedview
     pagecolor="#ffffff"
     bordercolor="#666666"
     borderopacity="1"
     objecttolerance="10"
     gridtolerance="10"
     guidetolerance="10"
     inkscape:pageopacity="0"
     inkscape:pageshadow="2"
     inkscape:window-width="640"
     inkscape:window-height="480"
     id="namedview37"
     showgrid="false"
     inkscape:zoom="10.127886"
     inkscape:cx="11.651"
     inkscape:cy="11.651"
     inkscape:window-x="0"
     inkscape:window-y="0"
     inkscape:window-maximized="0"
     inkscape:current-layer="Capa_1" /><g
     id="g3"
     style="fill:#4d4d4d"><path
       style="fill:#4d4d4d"
       d="M22.939,10.918c-0.705-1.712-2.037-2.581-3.961-2.581c0,0-1.263,0-2.306,0   c0.39-0.881,0.824-2.159,0.824-3.699c0-0.422-0.033-0.86-0.113-1.306c-0.303-1.79-1.525-2.742-3.262-2.551   c-0.688,0.079-0.924,0.732-1.494,2.315c-0.473,1.312-1.121,3.109-2.061,4.554c-0.691,1.062-1.922,1.9-2.956,2.416V9.935H0v11.307   h7.612v-0.623c1.198-0.059,1.879-0.024,2.039,0.027l1.362,0.791l1.018,0.635c0.989,0.533,5.315,0.584,7.17,0.309   c2.385-0.348,2.961-2.303,2.985-2.387C22.374,19.346,24.015,13.529,22.939,10.918z M20.749,19.583   c-0.014,0.043-0.361,1.114-1.765,1.315c-1.996,0.297-5.698,0.117-6.247-0.145c0.004,0.003-0.903-0.566-0.903-0.566l-1.711-0.961   c-0.397-0.133-1.297-0.148-2.511-0.094v-7.448c1.226-0.496,3.125-1.561,4.208-3.218c1.036-1.59,1.718-3.481,2.216-4.864   c0,0,0.439-1.093,0.545-1.346c0.758,0.004,1.176,0.421,1.332,1.324c0.062,0.354,0.086,0.705,0.086,1.044   c0,2.241-1.151,4.025-1.168,4.047l-0.759,1.157l4.906,0.002c1.312,0,2.106,0.511,2.579,1.657   C22.301,13.292,21.221,17.945,20.749,19.583z"
       id="path5" /></g><g
     id="g7" /><g
     id="g9" /><g
     id="g11" /><g
     id="g13" /><g
     id="g15" /><g
     id="g17" /><g
     id="g19" /><g
     id="g21" /><g
     id="g23" /><g
     id="g25" /><g
     id="g27" /><g
     id="g29" /><g
     id="g31" /><g
     id="g33" /><g
     id="g35" /></svg>