<?xml version="1.0" encoding="iso-8859-1"?>
<!-- Generator: Adobe Illustrator 16.0.0, SVG Export Plug-In . SVG Version: 6.00 Build 0)  -->
<!DOCTYPE svg PUBLIC "-//W3C//DTD SVG 1.1//EN" "http://www.w3.org/Graphics/SVG/1.1/DTD/svg11.dtd">
<svg version="1.1" id="Capa_1" xmlns="http://www.w3.org/2000/svg" xmlns:xlink="http://www.w3.org/1999/xlink" x="0px" y="0px"
	 width="485.332px" height="485.332px" viewBox="0 0 485.332 485.332" style="enable-background:new 0 0 485.332 485.332;"
	 xml:space="preserve">
<g>
	<g>
		<path d="M426.464,0H58.868c-10.05,0-18.196,8.146-18.196,18.196v448.939c0,10.049,8.146,18.196,18.196,18.196h367.596
			c10.049,0,18.196-8.147,18.196-18.196V18.196C444.66,8.147,436.514,0,426.464,0z M107.067,63.104c0-3.59,2.91-6.5,6.5-6.5h258.197
			c3.59,0,6.5,2.91,6.5,6.5v152.458c0,3.59-2.91,6.5-6.5,6.5H113.567c-3.59,0-6.5-2.91-6.5-6.5V63.104z M207.88,420.878
			c0,3.59-2.91,6.5-6.5,6.5h-71.581c-3.59,0-6.5-2.91-6.5-6.5V309.864c0-3.591,2.91-6.5,6.5-6.5h71.581c3.59,0,6.5,2.909,6.5,6.5
			V420.878L207.88,420.878z M232.672,299.364c0,3.59-2.91,6.5-6.5,6.5h-7.895c-3.59,0-6.5-2.91-6.5-6.5v-3.448h-92.136v3.448
			c0,3.59-2.91,6.5-6.5,6.5h-8.025c-3.59,0-6.5-2.91-6.5-6.5v-17.896c0-3.59,2.91-6.5,6.5-6.5h121.056c3.59,0,6.5,2.91,6.5,6.5
			V299.364L232.672,299.364z M282.887,425.729c0,2.485-2.016,4.5-4.5,4.5h-26.342c-2.484,0-4.5-2.015-4.5-4.5v-26.34
			c0-2.484,2.016-4.5,4.5-4.5h26.342c2.484,0,4.5,2.016,4.5,4.5V425.729z M282.887,373.812c0,2.485-2.016,4.5-4.5,4.5h-26.342
			c-2.484,0-4.5-2.015-4.5-4.5v-26.34c0-2.484,2.016-4.5,4.5-4.5h26.342c2.484,0,4.5,2.016,4.5,4.5V373.812z M282.887,321.898
			c0,2.484-2.016,4.5-4.5,4.5h-26.342c-2.484,0-4.5-2.016-4.5-4.5v-26.34c0-2.485,2.016-4.5,4.5-4.5h26.342
			c2.484,0,4.5,2.015,4.5,4.5V321.898z M334.801,425.729c0,2.485-2.015,4.5-4.5,4.5H303.96c-2.485,0-4.5-2.015-4.5-4.5v-26.34
			c0-2.484,2.015-4.5,4.5-4.5h26.341c2.485,0,4.5,2.016,4.5,4.5V425.729z M334.801,373.812c0,2.485-2.015,4.5-4.5,4.5H303.96
			c-2.485,0-4.5-2.015-4.5-4.5v-26.34c0-2.484,2.015-4.5,4.5-4.5h26.341c2.485,0,4.5,2.016,4.5,4.5V373.812z M334.801,321.898
			c0,2.484-2.015,4.5-4.5,4.5H303.96c-2.485,0-4.5-2.016-4.5-4.5v-26.34c0-2.485,2.015-4.5,4.5-4.5h26.341
			c2.485,0,4.5,2.015,4.5,4.5V321.898z M386.716,425.729c0,2.485-2.015,4.5-4.5,4.5h-26.341c-2.485,0-4.5-2.015-4.5-4.5v-26.34
			c0-2.484,2.015-4.5,4.5-4.5h26.341c2.485,0,4.5,2.016,4.5,4.5V425.729z M386.716,373.812c0,2.485-2.015,4.5-4.5,4.5h-26.341
			c-2.485,0-4.5-2.015-4.5-4.5v-26.34c0-2.484,2.015-4.5,4.5-4.5h26.341c2.485,0,4.5,2.016,4.5,4.5V373.812z M386.716,321.898
			c0,2.484-2.015,4.5-4.5,4.5h-26.341c-2.485,0-4.5-2.016-4.5-4.5v-26.34c0-2.485,2.015-4.5,4.5-4.5h26.341
			c2.485,0,4.5,2.015,4.5,4.5V321.898z"/>
		<path d="M133.666,178.184h11.976c1.957,0,3.672-1.305,4.195-3.19l4.902-17.667h21.758l5.337,17.757
			c0.554,1.84,2.248,3.101,4.169,3.101h12.737c1.384,0,2.685-0.657,3.505-1.771c0.821-1.113,1.063-2.55,0.654-3.872l-23.122-74.563
			c-0.565-1.822-2.25-3.064-4.158-3.064h-19.167c-1.914,0-3.604,1.251-4.164,3.082l-22.79,74.563
			c-0.403,1.32-0.157,2.753,0.664,3.862C130.987,177.529,132.286,178.184,133.666,178.184z M162.417,125.615
			c0.801-2.843,1.557-6.201,2.293-9.469c0.209-0.932,0.415-1.842,0.618-2.727c1.004,4.044,2.119,8.476,3.231,12.181l4.691,15.972
			h-15.297L162.417,125.615z"/>
		<path d="M200.129,112.355h17.469v61.475c0,2.404,1.949,4.354,4.353,4.354h11.748c2.405,0,4.354-1.949,4.354-4.354v-61.475h17.83
			c2.404,0,4.354-1.949,4.354-4.354v-8.734c0-2.405-1.948-4.354-4.354-4.354h-55.755c-2.404,0-4.354,1.949-4.354,4.354v8.734
			C195.775,110.406,197.725,112.355,200.129,112.355z"/>
		<path d="M269.074,178.184h10.234c2.325,0,4.239-1.827,4.349-4.15l1.294-27.618c0.395-6.643,0.688-14.306,0.969-21.716
			c0.057-1.493,0.113-2.982,0.171-4.461c1.647,7.917,3.724,16.483,5.929,24.407l8.006,29.017c0.521,1.889,2.237,3.196,4.196,3.196
			h9.333c1.905,0,3.589-1.239,4.156-3.058l9.143-29.324c2.672-8.12,5.308-17.053,7.483-25.321
			c0.102,9.987,0.413,19.463,0.691,26.963l1.081,27.88c0.091,2.337,2.011,4.185,4.35,4.185h11.207c1.195,0,2.339-0.492,3.161-1.361
			c0.823-0.869,1.251-2.038,1.186-3.232l-4.093-74.563c-0.126-2.309-2.035-4.115-4.347-4.115h-18.381
			c-1.893,0-3.566,1.221-4.146,3.021l-7.921,24.642c-0.011,0.036-0.021,0.072-0.033,0.108c-2.537,8.656-4.998,18.183-6.834,25.587
			c-1.489-7.285-3.478-15.486-6.159-25.451c-0.008-0.032-0.018-0.063-0.026-0.094l-7.241-24.685
			c-0.543-1.854-2.245-3.129-4.178-3.129H273.83c-2.297,0-4.199,1.785-4.346,4.077l-4.756,74.563
			c-0.078,1.201,0.347,2.379,1.17,3.256C266.721,177.686,267.87,178.184,269.074,178.184z"/>
	</g>
</g>
<g>
</g>
<g>
</g>
<g>
</g>
<g>
</g>
<g>
</g>
<g>
</g>
<g>
</g>
<g>
</g>
<g>
</g>
<g>
</g>
<g>
</g>
<g>
</g>
<g>
</g>
<g>
</g>
<g>
</g>
</svg>
