<?xml version="1.0" encoding="UTF-8" standalone="no"?>
<!-- Generator: Adobe Illustrator 18.0.0, SVG Export Plug-In . SVG Version: 6.00 Build 0)  -->

<svg
   xmlns:dc="http://purl.org/dc/elements/1.1/"
   xmlns:cc="http://creativecommons.org/ns#"
   xmlns:rdf="http://www.w3.org/1999/02/22-rdf-syntax-ns#"
   xmlns:svg="http://www.w3.org/2000/svg"
   xmlns="http://www.w3.org/2000/svg"
   xmlns:sodipodi="http://sodipodi.sourceforge.net/DTD/sodipodi-0.dtd"
   xmlns:inkscape="http://www.inkscape.org/namespaces/inkscape"
   version="1.1"
   id="Capa_1"
   x="0px"
   y="0px"
   viewBox="0 0 557.5859 557.62823"
   xml:space="preserve"
   inkscape:version="0.48.5 r10040"
   width="100%"
   height="100%"
   sodipodi:docname="bugs3.svg"><metadata
     id="metadata51"><rdf:RDF><cc:Work
         rdf:about=""><dc:format>image/svg+xml</dc:format><dc:type
           rdf:resource="http://purl.org/dc/dcmitype/StillImage" /><dc:title></dc:title></cc:Work></rdf:RDF></metadata><defs
     id="defs49" /><sodipodi:namedview
     pagecolor="#ffffff"
     bordercolor="#666666"
     borderopacity="1"
     objecttolerance="10"
     gridtolerance="10"
     guidetolerance="10"
     inkscape:pageopacity="0"
     inkscape:pageshadow="2"
     inkscape:window-width="1920"
     inkscape:window-height="1015"
     id="namedview47"
     showgrid="false"
     fit-margin-top="0"
     fit-margin-left="0"
     fit-margin-right="0"
     fit-margin-bottom="0"
     inkscape:zoom="0.34552005"
     inkscape:cx="848.60978"
     inkscape:cy="151.27078"
     inkscape:window-x="-2"
     inkscape:window-y="-3"
     inkscape:window-maximized="1"
     inkscape:current-layer="Capa_1" /><g
     id="g3"
     style="fill:#4d4d4d"
     transform="matrix(0.70710678,0.70710678,-0.70710678,0.70710678,284.94061,-68.867476)"><g
       id="g5"
       style="fill:#4d4d4d"><path
         d="m 297.322,84.451 c -2.398,-2.532 -2.748,-6.391 -0.822,-9.303 16.46,-24.971 44.149,-39.879 74.059,-39.879 h 30.942 c 10.505,0 10.505,-15.902 0,-15.902 -29.584,0 -83.238,-6.111 -118.28,47.023 -1.646,2.501 -4.915,3.378 -7.593,2.027 -21.493,-10.863 -45.968,-11.275 -68.284,0 -2.678,1.35 -5.939,0.48 -7.593,-2.027 -33.366,-50.586 -81.964,-47.023 -118.28,-47.023 -10.505,0 -10.505,15.902 0,15.902 h 30.942 c 48.886,0 81.359,40.641 73.237,49.182 -17.502,18.448 -21.19,37.208 -21.19,59.757 46.821,-30.795 107.138,-30.857 154.052,0 10e-4,-22.231 -3.409,-41.021 -21.19,-59.757 z"
         id="path7"
         style="fill:#4d4d4d"
         inkscape:connector-curvature="0" /></g><g
       id="g9"
       style="fill:#4d4d4d"><path
         d="M 129.013,177.659 C 80.585,133.625 88.226,135.791 8.179,162.09 c -15.056,4.946 -7.407,27.611 7.439,22.657 l 49.826,-16.368 c 8.121,-2.664 17.082,-0.746 23.395,4.985 53.026,48.203 31.796,27.247 28.349,78.649 -0.52,7.779 -6.981,13.837 -14.776,13.837 -15.592,0 -32.278,0 -69.642,0 -15.786,0 -15.786,23.853 0,23.853 109.661,0 73.509,-9.131 91.941,53.84 1.064,3.611 -2.112,7.105 -5.831,6.353 -44.189,-8.861 -56.457,33.636 -80.737,79.315 -7.407,13.93 13.65,25.127 21.058,11.198 l 29.242,-55.013 c 11.693,-21.959 45.975,-12.3 59.057,8.541 9.987,15.902 42.195,59.135 66.256,68.826 9.475,3.813 19.777,-3.152 19.777,-13.363 V 179.716 c 0,-24.497 -25.833,-40.391 -47.66,-29.514 -35.622,17.805 -40.242,42.567 -56.86,27.457 z"
         id="path11"
         style="fill:#4d4d4d"
         inkscape:connector-curvature="0" /></g><g
       id="g13"
       style="fill:#4d4d4d"><path
         d="m 474.793,162.09 c -76.311,-25.073 -70.41,-30.259 -120.834,15.568 -6.159,5.599 -15.654,5.203 -21.331,-0.886 -49.95,-53.552 -83.191,-23.278 -83.191,2.943 V 449.4 c 0,16.888 23.301,22.362 47.66,-6.809 20.685,-24.771 28.621,-33.132 38.38,-48.662 13.31,-21.198 47.652,-29.933 59.051,-8.533 l 29.242,55.013 c 7.377,13.875 28.527,2.864 21.058,-11.198 l -29.242,-55.012 c -10.055,-18.908 -31.78,-28.311 -51.494,-24.303 -3.712,0.744 -6.895,-2.734 -5.831,-6.353 18.278,-62.435 -14.56,-53.84 91.941,-53.84 6.585,0 11.927,-5.341 11.927,-11.927 0,-6.585 -5.341,-11.927 -11.927,-11.927 -37.48,0 -54.159,0 -69.79,0 -7.679,0 -14.1,-5.863 -14.776,-13.511 -2.772,-31.494 -13.929,-40.377 1.158,-54.112 44.771,-40.703 29.149,-36.945 100.561,-13.48 14.931,4.971 22.446,-17.718 7.438,-22.656 z"
         id="path15"
         style="fill:#4d4d4d"
         inkscape:connector-curvature="0" /></g></g><g
     id="g17"
     transform="translate(37.300086,33.720084)" /><g
     id="g19"
     transform="translate(37.300086,33.720084)" /><g
     id="g21"
     transform="translate(37.300086,33.720084)" /><g
     id="g23"
     transform="translate(37.300086,33.720084)" /><g
     id="g25"
     transform="translate(37.300086,33.720084)" /><g
     id="g27"
     transform="translate(37.300086,33.720084)" /><g
     id="g29"
     transform="translate(37.300086,33.720084)" /><g
     id="g31"
     transform="translate(37.300086,33.720084)" /><g
     id="g33"
     transform="translate(37.300086,33.720084)" /><g
     id="g35"
     transform="translate(37.300086,33.720084)" /><g
     id="g37"
     transform="translate(37.300086,33.720084)" /><g
     id="g39"
     transform="translate(37.300086,33.720084)" /><g
     id="g41"
     transform="translate(37.300086,33.720084)" /><g
     id="g43"
     transform="translate(37.300086,33.720084)" /><g
     id="g45"
     transform="translate(37.300086,33.720084)" /></svg>