<?xml version="1.0" encoding="UTF-8" standalone="no"?>
<!-- Generator: Adobe Illustrator 18.0.0, SVG Export Plug-In . SVG Version: 6.00 Build 0)  -->

<svg
   xmlns:dc="http://purl.org/dc/elements/1.1/"
   xmlns:cc="http://creativecommons.org/ns#"
   xmlns:rdf="http://www.w3.org/1999/02/22-rdf-syntax-ns#"
   xmlns:svg="http://www.w3.org/2000/svg"
   xmlns="http://www.w3.org/2000/svg"
   xmlns:sodipodi="http://sodipodi.sourceforge.net/DTD/sodipodi-0.dtd"
   xmlns:inkscape="http://www.inkscape.org/namespaces/inkscape"
   version="1.1"
   id="Capa_1"
   x="0px"
   y="0px"
   viewBox="0 0 296.973 296.973"
   style="enable-background:new 0 0 296.973 296.973;"
   xml:space="preserve"
   inkscape:version="0.48.4 r9939"
   width="100%"
   height="100%"
   sodipodi:docname="clear.svg"><metadata
     id="metadata39"><rdf:RDF><cc:Work
         rdf:about=""><dc:format>image/svg+xml</dc:format><dc:type
           rdf:resource="http://purl.org/dc/dcmitype/StillImage" /></cc:Work></rdf:RDF></metadata><defs
     id="defs37" /><sodipodi:namedview
     pagecolor="#ffffff"
     bordercolor="#666666"
     borderopacity="1"
     objecttolerance="10"
     gridtolerance="10"
     guidetolerance="10"
     inkscape:pageopacity="0"
     inkscape:pageshadow="2"
     inkscape:window-width="640"
     inkscape:window-height="480"
     id="namedview35"
     showgrid="false"
     inkscape:zoom="0.56192718"
     inkscape:cx="-40.982241"
     inkscape:cy="94.230133"
     inkscape:window-x="75"
     inkscape:window-y="34"
     inkscape:window-maximized="0"
     inkscape:current-layer="Capa_1" /><path
     d="m 119.492,296.006 c 1.859,-0.771 45.779,-19.505 67.354,-71.712 6.739,-16.311 7.036,-31.16 0.88,-44.136 -2.264,-4.772 -6.49836,-12.0379 -9.86936,-15.5899 L 281.30656,18.13528 c 4.229,-5.799 7.98844,-11.41128 2.18944,-15.63828 -5.8,-4.231 -8.26738,0.8200806 -12.49238,6.6190806 L 165.22416,154.89554 c -4.105,-1.85 -15.50116,-5.08654 -18.65516,-6.03854 -5.082,-1.534 -10.248,-2.312 -15.355,-2.312 -18.218,0 -36.87,9.427 -52.617,29.09 -0.184,0.229 -18.077,23.95 -47.257,23.95 -2.731,0.001 -5.527,-0.208 -8.308,-0.62 -4.38,-0.648 -8.783,0.978 -11.693,4.312 -2.909,3.335 -3.921,7.921 -2.686,12.171 0.22,0.755 5.55,18.697 21.058,37.524 14.283,17.341 40.273,39.603 83.325,43.943 3.3,0.334 6.456,-0.909 6.456,-0.909 z m 3.70458,-136.05845 c 8.29734,-2.21731 17.76231,-0.9544 25.64917,2.44556 11.03789,4.75834 21.96672,12.89696 27.13406,23.7494 3.02532,6.35377 4.81502,12.37751 1.25737,27.41303 -0.76512,3.23357 -7.75037,16.27196 -11.27086,20.00784 -0.56651,0.60117 -51.46225,-32.68625 -76.260788,-49.8416 10.710008,-11.774 20.264688,-20.23973 33.491048,-23.77423 z m -9.50227,121.30828 c -39.981999,-5.776 -84.69599,-43.30406 -88.996369,-66.06486 17.29718,5.42516 47.231624,-8.12893 55.033084,-20.89755 23.965995,17.304 63.999065,44.10658 77.629065,50.46158 -13.15633,24.34177 -37.96478,33.50183 -43.66578,36.50083 z"
     id="path3"
     inkscape:connector-curvature="0"
     sodipodi:nodetypes="ccccccccssccccccccaassscaccccc"
     style="fill:#ffffff" /><g
     id="g5" /><g
     id="g7" /><g
     id="g9" /><g
     id="g11" /><g
     id="g13" /><g
     id="g15" /><g
     id="g17" /><g
     id="g19" /><g
     id="g21" /><g
     id="g23" /><g
     id="g25" /><g
     id="g27" /><g
     id="g29" /><g
     id="g31" /><g
     id="g33" /></svg>