<?xml version="1.0" encoding="UTF-8" standalone="no"?>
<!-- Generator: Adobe Illustrator 18.1.1, SVG Export Plug-In . SVG Version: 6.00 Build 0)  -->

<svg
   xmlns:dc="http://purl.org/dc/elements/1.1/"
   xmlns:cc="http://creativecommons.org/ns#"
   xmlns:rdf="http://www.w3.org/1999/02/22-rdf-syntax-ns#"
   xmlns:svg="http://www.w3.org/2000/svg"
   xmlns="http://www.w3.org/2000/svg"
   xmlns:sodipodi="http://sodipodi.sourceforge.net/DTD/sodipodi-0.dtd"
   xmlns:inkscape="http://www.inkscape.org/namespaces/inkscape"
   version="1.1"
   id="Capa_1"
   x="0px"
   y="0px"
   viewBox="0 0 611.977 611.977"
   style="enable-background:new 0 0 611.977 611.977;"
   xml:space="preserve"
   inkscape:version="0.48.4 r9939"
   width="100%"
   height="100%"
   sodipodi:docname="medical.svg"><metadata
     id="metadata41"><rdf:RDF><cc:Work
         rdf:about=""><dc:format>image/svg+xml</dc:format><dc:type
           rdf:resource="http://purl.org/dc/dcmitype/StillImage" /></cc:Work></rdf:RDF></metadata><defs
     id="defs39" /><sodipodi:namedview
     pagecolor="#ffffff"
     bordercolor="#666666"
     borderopacity="1"
     objecttolerance="10"
     gridtolerance="10"
     guidetolerance="10"
     inkscape:pageopacity="0"
     inkscape:pageshadow="2"
     inkscape:window-width="1855"
     inkscape:window-height="1056"
     id="namedview37"
     showgrid="false"
     inkscape:zoom="1.0907416"
     inkscape:cx="230.33839"
     inkscape:cy="328.76572"
     inkscape:window-x="65"
     inkscape:window-y="24"
     inkscape:window-maximized="1"
     inkscape:current-layer="g3" /><g
     id="g3"><path
       d="m 595.62835,288.57697 c -2.196,-2.196 -20.01974,-20.77474 -29.88839,-29.45355 -68.2767,-57.17897 -78.29679,-64.36585 -137.69582,-91.60273 -82.94665,-38.03443 -155.50713,-38.55001 -237.90551,-3.2476 -62.89849,26.94797 -117.226545,64.99555 -170.971104,120.926 -10.8380635,11.27887 -15.1828765,24.09637 5.834527,45.97549 45.304965,43.93144 51.994996,49.2277 95.812227,79.41826 20.041,10.364 48.44064,30.95506 100.89568,49.82268 29.649,8.922 29.81401,8.99497 62.10269,11.69932 21.2636,1.67201 46.73597,0.62532 61.16082,-0.90556 13.315,-1.51 65.67513,-11.33931 108.33748,-36.43857 65.19587,-35.94755 120.29495,-89.66658 132.18195,-103.64595 25.70762,-25.55369 25.10542,-25.88566 10.13545,-42.54779 z M 582.574,310.737 c -67.466,74.124 -138.639,120.108 -217.91,140.08 -12.628,2.951 -26.698,4.461 -38.572,5.902 -34.111,2.196 -68.908,-1.51 -102.263,-11.873 -18.531,-5.902 -37.062,-13.315 -54.838,-23.747 C 117.105,393.646 71.12,358.094 32.617,315.13 c -8.167,-8.922 -8.167,-11.119 0,-19.286 50.377,-54.083 103.773,-93.409 163.072,-118.598 36.307,-15.58 73.369,-23.747 109.675,-23.747 39.258,0 78.585,8.922 117.843,27.453 56.348,25.943 108.234,64.515 154.15,114.137 1.51,1.51 2.951,3.706 4.461,5.216 3.021,3.774 3.707,7.48 0.756,10.432 z"
       id="path5"
       inkscape:connector-curvature="0"
       sodipodi:nodetypes="ccsssccccccccccccccccscccc"
       style="fill:#ffffff" /><path
       sodipodi:type="arc"
       style="fill:none;stroke:#ffffff;stroke-width:12;stroke-linecap:square;stroke-linejoin:miter;stroke-miterlimit:4;stroke-opacity:1;stroke-dasharray:none;stroke-dashoffset:0"
       id="path3786"
       sodipodi:cx="346.8302"
       sodipodi:cy="353.96127"
       sodipodi:rx="78.441971"
       sodipodi:ry="79.738525"
       d="m 425.27217,353.96127 a 78.441971,79.738525 0 1 1 -156.88394,0 78.441971,79.738525 0 1 1 156.88394,0 z"
       transform="matrix(1.2419564,0,0,1.2419564,-125.07318,-138.80221)" /></g><g
     id="g7" /><g
     id="g9" /><g
     id="g11" /><g
     id="g13" /><g
     id="g15" /><g
     id="g17" /><g
     id="g19" /><g
     id="g21" /><g
     id="g23" /><g
     id="g25" /><g
     id="g27" /><g
     id="g29" /><g
     id="g31" /><g
     id="g33" /><g
     id="g35" /></svg>