<?xml version="1.0" encoding="UTF-8" standalone="no"?>
<!-- Generator: Adobe Illustrator 18.0.0, SVG Export Plug-In . SVG Version: 6.00 Build 0)  -->

<svg
   xmlns:dc="http://purl.org/dc/elements/1.1/"
   xmlns:cc="http://creativecommons.org/ns#"
   xmlns:rdf="http://www.w3.org/1999/02/22-rdf-syntax-ns#"
   xmlns:svg="http://www.w3.org/2000/svg"
   xmlns="http://www.w3.org/2000/svg"
   xmlns:sodipodi="http://sodipodi.sourceforge.net/DTD/sodipodi-0.dtd"
   xmlns:inkscape="http://www.inkscape.org/namespaces/inkscape"
   version="1.1"
   id="Capa_1"
   x="0px"
   y="0px"
   viewBox="0 0 512 512"
   xml:space="preserve"
   inkscape:version="0.48.4 r9939"
   width="100%"
   height="100%"
   sodipodi:docname="information_gray.svg"><metadata
     id="metadata41"><rdf:RDF><cc:Work
         rdf:about=""><dc:format>image/svg+xml</dc:format><dc:type
           rdf:resource="http://purl.org/dc/dcmitype/StillImage" /><dc:title /></cc:Work></rdf:RDF></metadata><defs
     id="defs39" /><sodipodi:namedview
     pagecolor="#ffffff"
     bordercolor="#666666"
     borderopacity="1"
     objecttolerance="10"
     gridtolerance="10"
     guidetolerance="10"
     inkscape:pageopacity="0"
     inkscape:pageshadow="2"
     inkscape:window-width="1855"
     inkscape:window-height="1056"
     id="namedview37"
     showgrid="false"
     inkscape:zoom="0.48395366"
     inkscape:cx="6.000002"
     inkscape:cy="249.82501"
     inkscape:window-x="65"
     inkscape:window-y="24"
     inkscape:window-maximized="1"
     inkscape:current-layer="Capa_1"
     fit-margin-top="6"
     fit-margin-left="6"
     fit-margin-right="6"
     fit-margin-bottom="6" /><g
     id="g3"
     style="fill:#4d4d4d"
     transform="matrix(1.0253255,0,0,1.0253255,5.9999998,5.9999998)"><path
       d="M 243.824,0 C 109.163,0 0,109.163 0,243.833 0,378.487 109.163,487.65 243.824,487.65 378.486,487.65 487.65,378.487 487.65,243.833 487.65,109.163 378.486,0 243.824,0 z m -0.062,103.634 c 20.416,0 36.977,16.555 36.977,36.977 0,20.425 -16.561,36.978 -36.977,36.978 -20.424,0 -36.986,-16.553 -36.986,-36.978 -0.001,-20.422 16.562,-36.977 36.986,-36.977 z m 63.519,277.594 c 0,3.695 -2.995,6.691 -6.684,6.691 h -21.509 -70.663 -21.492 c -3.689,0 -6.683,-2.996 -6.683,-6.691 v -13.719 c 0,-3.694 2.993,-6.689 6.683,-6.689 h 21.492 V 230.706 h -22.153 c -3.689,0 -6.685,-2.996 -6.685,-6.692 V 210.28 c 0,-3.695 2.996,-6.69 6.685,-6.69 h 22.153 63.981 0.216 c 3.686,0 6.683,2.995 6.683,6.69 v 150.539 h 21.293 c 3.688,0 6.684,2.995 6.684,6.689 v 13.72 z"
       id="path5"
       style="fill:#4d4d4d"
       inkscape:connector-curvature="0" /></g><g
     id="g7"
     transform="translate(5.9999998,18.349996)" /><g
     id="g9"
     transform="translate(5.9999998,18.349996)" /><g
     id="g11"
     transform="translate(5.9999998,18.349996)" /><g
     id="g13"
     transform="translate(5.9999998,18.349996)" /><g
     id="g15"
     transform="translate(5.9999998,18.349996)" /><g
     id="g17"
     transform="translate(5.9999998,18.349996)" /><g
     id="g19"
     transform="translate(5.9999998,18.349996)" /><g
     id="g21"
     transform="translate(5.9999998,18.349996)" /><g
     id="g23"
     transform="translate(5.9999998,18.349996)" /><g
     id="g25"
     transform="translate(5.9999998,18.349996)" /><g
     id="g27"
     transform="translate(5.9999998,18.349996)" /><g
     id="g29"
     transform="translate(5.9999998,18.349996)" /><g
     id="g31"
     transform="translate(5.9999998,18.349996)" /><g
     id="g33"
     transform="translate(5.9999998,18.349996)" /><g
     id="g35"
     transform="translate(5.9999998,18.349996)" /></svg>