<?xml version="1.0" encoding="UTF-8" standalone="no"?>
<!-- Generator: Adobe Illustrator 18.0.0, SVG Export Plug-In . SVG Version: 6.00 Build 0)  -->

<svg
   xmlns:dc="http://purl.org/dc/elements/1.1/"
   xmlns:cc="http://creativecommons.org/ns#"
   xmlns:rdf="http://www.w3.org/1999/02/22-rdf-syntax-ns#"
   xmlns:svg="http://www.w3.org/2000/svg"
   xmlns="http://www.w3.org/2000/svg"
   xmlns:sodipodi="http://sodipodi.sourceforge.net/DTD/sodipodi-0.dtd"
   xmlns:inkscape="http://www.inkscape.org/namespaces/inkscape"
   version="1.1"
   id="Capa_1"
   x="0px"
   y="0px"
   viewBox="0 0 487.65 487.65"
   style="enable-background:new 0 0 487.65 487.65;"
   xml:space="preserve"
   inkscape:version="0.48.5 r10040"
   width="100%"
   height="100%"
   sodipodi:docname="information15.svg"><metadata
     id="metadata41"><rdf:RDF><cc:Work
         rdf:about=""><dc:format>image/svg+xml</dc:format><dc:type
           rdf:resource="http://purl.org/dc/dcmitype/StillImage" /><dc:title></dc:title></cc:Work></rdf:RDF></metadata><defs
     id="defs39" /><sodipodi:namedview
     pagecolor="#ffffff"
     bordercolor="#666666"
     borderopacity="1"
     objecttolerance="10"
     gridtolerance="10"
     guidetolerance="10"
     inkscape:pageopacity="0"
     inkscape:pageshadow="2"
     inkscape:window-width="640"
     inkscape:window-height="480"
     id="namedview37"
     showgrid="false"
     inkscape:zoom="0.48395366"
     inkscape:cx="243.825"
     inkscape:cy="243.825"
     inkscape:window-x="0"
     inkscape:window-y="0"
     inkscape:window-maximized="0"
     inkscape:current-layer="Capa_1" /><g
     id="g3"
     style="fill:#4d4d4d"><path
       d="M243.824,0C109.163,0,0,109.163,0,243.833C0,378.487,109.163,487.65,243.824,487.65   c134.662,0,243.826-109.163,243.826-243.817C487.65,109.163,378.486,0,243.824,0z M243.762,103.634   c20.416,0,36.977,16.555,36.977,36.977c0,20.425-16.561,36.978-36.977,36.978c-20.424,0-36.986-16.553-36.986-36.978   C206.775,120.189,223.338,103.634,243.762,103.634z M307.281,381.228c0,3.695-2.995,6.691-6.684,6.691h-21.509h-70.663h-21.492   c-3.689,0-6.683-2.996-6.683-6.691v-13.719c0-3.694,2.993-6.689,6.683-6.689h21.492V230.706h-22.153   c-3.689,0-6.685-2.996-6.685-6.692V210.28c0-3.695,2.996-6.69,6.685-6.69h22.153h63.981h0.216c3.686,0,6.683,2.995,6.683,6.69   v150.539h21.293c3.688,0,6.684,2.995,6.684,6.689V381.228z"
       id="path5"
       style="fill:#4d4d4d" /></g><g
     id="g7" /><g
     id="g9" /><g
     id="g11" /><g
     id="g13" /><g
     id="g15" /><g
     id="g17" /><g
     id="g19" /><g
     id="g21" /><g
     id="g23" /><g
     id="g25" /><g
     id="g27" /><g
     id="g29" /><g
     id="g31" /><g
     id="g33" /><g
     id="g35" /></svg>