<?xml version="1.0" encoding="UTF-8" standalone="no"?>
<!-- Generator: Adobe Illustrator 19.1.0, SVG Export Plug-In . SVG Version: 6.00 Build 0)  -->

<svg
   xmlns:dc="http://purl.org/dc/elements/1.1/"
   xmlns:cc="http://creativecommons.org/ns#"
   xmlns:rdf="http://www.w3.org/1999/02/22-rdf-syntax-ns#"
   xmlns:svg="http://www.w3.org/2000/svg"
   xmlns="http://www.w3.org/2000/svg"
   xmlns:sodipodi="http://sodipodi.sourceforge.net/DTD/sodipodi-0.dtd"
   xmlns:inkscape="http://www.inkscape.org/namespaces/inkscape"
   version="1.1"
   id="Capa_1"
   x="0px"
   y="0px"
   viewBox="0 0 498.923 498.923"
   xml:space="preserve"
   inkscape:version="0.48.4 r9939"
   width="100%"
   height="100%"
   sodipodi:docname="place (copy).svg"
   style="enable-background:new 0 0 498.923 498.923;"><metadata
     id="metadata45"><rdf:RDF><cc:Work
         rdf:about=""><dc:format>image/svg+xml</dc:format><dc:type
           rdf:resource="http://purl.org/dc/dcmitype/StillImage" /><dc:title /></cc:Work></rdf:RDF></metadata><defs
     id="defs43"><linearGradient
       id="linearGradient3790"><stop
         id="stop3810"
         offset="0"
         style="stop-color:#ffa900;stop-opacity:1;" /><stop
         style="stop-color:#e72700;stop-opacity:0.76153845;"
         offset="1"
         id="stop3794" /></linearGradient></defs><sodipodi:namedview
     pagecolor="#ffffff"
     bordercolor="#666666"
     borderopacity="1"
     objecttolerance="10"
     gridtolerance="10"
     guidetolerance="10"
     inkscape:pageopacity="0"
     inkscape:pageshadow="2"
     inkscape:window-width="1855"
     inkscape:window-height="1056"
     id="namedview41"
     showgrid="false"
     inkscape:zoom="0.94603776"
     inkscape:cx="-160.46629"
     inkscape:cy="245.36005"
     inkscape:window-x="65"
     inkscape:window-y="24"
     inkscape:window-maximized="1"
     inkscape:current-layer="Capa_1" /><g
     id="g3"
     style="fill:#808080;fill-opacity:1"><g
       id="g5"
       style="fill:#808080;fill-opacity:1"><g
         id="g7"
         style="fill:#808080;fill-opacity:1"><path
           style="fill:#808080;fill-opacity:1"
           d="M 249.462,0 C 151.018,0 70.950998,80.106 70.950998,178.511 c 0,92.436 133.617002,192.453 172.248002,315.948 0.83,2.667 3.322,4.484 6.116,4.465 2.804,-0.039 5.256,-1.876 6.048,-4.563 C 292.841,367.828 427.963,271.054 427.972,178.492 427.963,80.106 347.886,0 249.462,0 z m 0,313.925 c -77.184,0 -139.987,-62.812 -139.987,-139.987 0,-77.184 62.803,-139.987 139.987,-139.987 77.165,0 139.977,62.803 139.977,139.987 0,77.175 -62.813,139.987 -139.977,139.987 z"
           id="path9"
           inkscape:connector-curvature="0" /></g></g></g><g
     id="g11" /><g
     id="g13" /><g
     id="g15" /><g
     id="g17" /><g
     id="g19" /><g
     id="g21" /><g
     id="g23" /><g
     id="g25" /><g
     id="g27" /><g
     id="g29" /><g
     id="g31" /><g
     id="g33" /><g
     id="g35" /><g
     id="g37" /><g
     id="g39" /><path
     sodipodi:type="arc"
     style="fill:#ffffff;fill-opacity:1;stroke:none"
     id="path3004"
     sodipodi:cx="215.63622"
     sodipodi:cy="135.82967"
     sodipodi:rx="86.677299"
     sodipodi:ry="86.677299"
     d="m 302.31351,135.82967 a 86.677299,86.677299 0 1 1 -173.35459,0 86.677299,86.677299 0 1 1 173.35459,0 z"
     transform="matrix(1.6219512,0,0,1.6219512,-100.28992,-46.425978)" /></svg>