<?xml version="1.0" encoding="UTF-8" standalone="no"?>
<!-- Generator: Adobe Illustrator 16.0.0, SVG Export Plug-In . SVG Version: 6.00 Build 0)  -->

<svg
   xmlns:dc="http://purl.org/dc/elements/1.1/"
   xmlns:cc="http://creativecommons.org/ns#"
   xmlns:rdf="http://www.w3.org/1999/02/22-rdf-syntax-ns#"
   xmlns:svg="http://www.w3.org/2000/svg"
   xmlns="http://www.w3.org/2000/svg"
   xmlns:sodipodi="http://sodipodi.sourceforge.net/DTD/sodipodi-0.dtd"
   xmlns:inkscape="http://www.inkscape.org/namespaces/inkscape"
   version="1.1"
   id="Capa_1"
   x="0px"
   y="0px"
   width="512px"
   height="512px"
   viewBox="0 0 510 510"
   style="enable-background:new 0 0 510 510;"
   xml:space="preserve"
   inkscape:version="0.48.4 r9939"
   sodipodi:docname="round.svg"><metadata
     id="metadata42"><rdf:RDF><cc:Work
         rdf:about=""><dc:format>image/svg+xml</dc:format><dc:type
           rdf:resource="http://purl.org/dc/dcmitype/StillImage" /></cc:Work></rdf:RDF></metadata><defs
     id="defs40" /><sodipodi:namedview
     pagecolor="#ffffff"
     bordercolor="#666666"
     borderopacity="1"
     objecttolerance="10"
     gridtolerance="10"
     guidetolerance="10"
     inkscape:pageopacity="0"
     inkscape:pageshadow="2"
     inkscape:window-width="1855"
     inkscape:window-height="1056"
     id="namedview38"
     showgrid="false"
     inkscape:zoom="1.84375"
     inkscape:cx="256"
     inkscape:cy="323.34984"
     inkscape:window-x="65"
     inkscape:window-y="24"
     inkscape:window-maximized="1"
     inkscape:current-layer="Capa_1" /><g
     id="g3"
     style="fill:#87cefa"><g
       id="account-circle"
       style="fill:#87cefa"><path
         d="M255,0C114.75,0,0,114.75,0,255s114.75,255,255,255s255-114.75,255-255S395.25,0,255,0z M255,76.5    c43.35,0,76.5,33.15,76.5,76.5s-33.15,76.5-76.5,76.5c-43.35,0-76.5-33.15-76.5-76.5S211.65,76.5,255,76.5z M255,438.6    c-63.75,0-119.85-33.149-153-81.6c0-51,102-79.05,153-79.05S408,306,408,357C374.85,405.45,318.75,438.6,255,438.6z"
         id="path6"
         fill="#457dff"
         style="fill:#87cefa" /></g></g><g
     id="g8" /><g
     id="g10" /><g
     id="g12" /><g
     id="g14" /><g
     id="g16" /><g
     id="g18" /><g
     id="g20" /><g
     id="g22" /><g
     id="g24" /><g
     id="g26" /><g
     id="g28" /><g
     id="g30" /><g
     id="g32" /><g
     id="g34" /><g
     id="g36" /><path
     style="fill:#4682b4;fill-opacity:1;stroke:none"
     d="m 233.05421,438.11732 c -20.34984,-2.43172 -55.98431,-14.44214 -72.61925,-24.47597 -27.555,-16.62056 -61.023304,-49.94243 -61.026819,-60.7598 -0.002,-7.80631 9.131839,-23.34473 18.532839,-31.52609 22.14079,-19.26831 73.70882,-38.24074 116.50619,-42.86386 68.59368,-7.40974 162.8037,28.4143 174.12867,66.21368 3.57956,11.94749 1.29661,16.39356 -19.08224,37.16298 -41.06157,41.8485 -99.90196,63.00505 -156.43939,56.24906 l 0,0 z"
     id="path3019"
     inkscape:connector-curvature="0" /><path
     style="fill:#4682b4;fill-opacity:1;stroke:none"
     d="m 235.83968,227.67175 c -30.09035,-7.30246 -50.25319,-29.00723 -56.51538,-60.8373 -4.9166,-24.99063 4.42282,-54.11027 22.63034,-70.559658 36.92517,-33.359685 97.2639,-24.203382 120.24113,18.246398 24.9744,46.13946 0.99321,101.47779 -49.08386,113.26458 -15.08562,3.55076 -22.26171,3.52881 -37.27223,-0.11402 z"
     id="path3031"
     inkscape:connector-curvature="0" /><path
     style="fill:#ffffff;fill-opacity:1;stroke:none"
     d="m 412.60156,-52.95759 c -28.63544,-8.106261 -47.7004,-28.788623 -53.80566,-58.37037 -3.39736,-16.46122 -1.30496,-31.81439 6.5753,-48.24669 7.50691,-15.65377 19.52868,-27.2238 36.31861,-34.95386 17.39584,-8.00903 43.63132,-8.00903 61.02716,0 16.78993,7.73006 28.8117,19.30009 36.31861,34.95386 18.85248,39.31211 3.2526,84.413114 -35.30283,102.064374 -13.88378,6.356203 -37.37236,8.447612 -51.13119,4.552686 l 0,0 z"
     id="path3035"
     inkscape:connector-curvature="0" /></svg>