<?xml version="1.0" encoding="UTF-8" standalone="no"?>
<!-- Generator: Adobe Illustrator 16.0.0, SVG Export Plug-In . SVG Version: 6.00 Build 0)  -->

<svg
   xmlns:dc="http://purl.org/dc/elements/1.1/"
   xmlns:cc="http://creativecommons.org/ns#"
   xmlns:rdf="http://www.w3.org/1999/02/22-rdf-syntax-ns#"
   xmlns:svg="http://www.w3.org/2000/svg"
   xmlns="http://www.w3.org/2000/svg"
   xmlns:sodipodi="http://sodipodi.sourceforge.net/DTD/sodipodi-0.dtd"
   xmlns:inkscape="http://www.inkscape.org/namespaces/inkscape"
   version="1.1"
   id="Capa_1"
   x="0px"
   y="0px"
   width="512px"
   height="512px"
   viewBox="0 0 510 510"
   style="enable-background:new 0 0 510 510;"
   xml:space="preserve"
   inkscape:version="0.48.4 r9939"
   sodipodi:docname="user.svg"><metadata
     id="metadata42"><rdf:RDF><cc:Work
         rdf:about=""><dc:format>image/svg+xml</dc:format><dc:type
           rdf:resource="http://purl.org/dc/dcmitype/StillImage" /></cc:Work></rdf:RDF></metadata><defs
     id="defs40" /><sodipodi:namedview
     pagecolor="#ffffff"
     bordercolor="#666666"
     borderopacity="1"
     objecttolerance="10"
     gridtolerance="10"
     guidetolerance="10"
     inkscape:pageopacity="0"
     inkscape:pageshadow="2"
     inkscape:window-width="1855"
     inkscape:window-height="1056"
     id="namedview38"
     showgrid="false"
     inkscape:zoom="0.4609375"
     inkscape:cx="429.55932"
     inkscape:cy="301.65493"
     inkscape:window-x="65"
     inkscape:window-y="24"
     inkscape:window-maximized="1"
     inkscape:current-layer="Capa_1" /><g
     id="g3"
     style="fill:#bcecfc"
     transform="translate(-2e-6,0)"><g
       id="account-circle"
       style="fill:#bcecfc"><path
         d="M 255,0 C 114.75,0 0,114.75 0,255 0,395.25 114.75,510 255,510 395.25,510 510,395.25 510,255 510,114.75 395.25,0 255,0 z m 0,76.5 c 43.35,0 76.5,33.15 76.5,76.5 0,43.35 -33.15,76.5 -76.5,76.5 -43.35,0 -76.5,-33.15 -76.5,-76.5 0,-43.35 33.15,-76.5 76.5,-76.5 z m 0,362.1 c -63.75,0 -119.85,-33.149 -153,-81.6 0,-51 102,-79.05 153,-79.05 51,0 153,28.05 153,79.05 -33.15,48.45 -89.25,81.6 -153,81.6 z"
         id="path6"
         style="fill:#bcecfc"
         inkscape:connector-curvature="0" /></g></g><g
     id="g8" /><g
     id="g10" /><g
     id="g12" /><g
     id="g14" /><g
     id="g16" /><g
     id="g18" /><g
     id="g20" /><g
     id="g22" /><g
     id="g24" /><g
     id="g26" /><g
     id="g28" /><g
     id="g30" /><g
     id="g32" /><g
     id="g34" /><g
     id="g36" /><path
     style="fill:#4682b4;fill-opacity:1;stroke:none"
     d="m 231.54873,443.66198 c -21.76586,-2.60093 -59.87991,-15.44708 -77.67238,-26.1791 -29.47238,-17.77708 -65.269534,-53.41762 -65.273294,-64.9877 -0.0021,-8.3495 9.767268,-24.96915 19.822424,-33.7198 23.68143,-20.60907 78.83776,-40.90167 124.61314,-45.84649 73.36669,-7.92534 174.1322,30.39148 186.2452,70.82108 3.82864,12.77884 1.38684,17.53429 -20.41005,39.74892 -43.91879,44.76048 -106.85352,67.38919 -167.32504,60.16309 l 0,0 z"
     id="path3019"
     inkscape:connector-curvature="0" /><path
     style="fill:#4682b4;fill-opacity:1;stroke:none"
     d="m 233.14003,238.10699 c -34.30881,-8.32622 -57.29835,-33.07385 -64.43845,-69.36628 -5.60588,-28.49414 5.04287,-61.69616 25.80296,-80.451641 42.10183,-38.036486 110.89964,-27.596532 137.09812,20.804421 28.47564,52.6079 1.13245,115.70428 -55.96509,129.1435 -17.20052,4.04855 -25.38265,4.02353 -42.49754,-0.13 z"
     id="path3031"
     inkscape:connector-curvature="0" /><path
     style="fill:#ffffff;fill-opacity:1;stroke:none"
     d="m 412.60156,-52.95759 c -28.63544,-8.106261 -47.7004,-28.788623 -53.80566,-58.37037 -3.39736,-16.46122 -1.30496,-31.81439 6.5753,-48.24669 7.50691,-15.65377 19.52868,-27.2238 36.31861,-34.95386 17.39584,-8.00903 43.63132,-8.00903 61.02716,0 16.78993,7.73006 28.8117,19.30009 36.31861,34.95386 18.85248,39.31211 3.2526,84.413114 -35.30283,102.064374 -13.88378,6.356203 -37.37236,8.447612 -51.13119,4.552686 l 0,0 z"
     id="path3035"
     inkscape:connector-curvature="0" /></svg>