<?xml version="1.0" encoding="UTF-8" standalone="no"?>
<svg
   xmlns:dc="http://purl.org/dc/elements/1.1/"
   xmlns:cc="http://creativecommons.org/ns#"
   xmlns:rdf="http://www.w3.org/1999/02/22-rdf-syntax-ns#"
   xmlns:svg="http://www.w3.org/2000/svg"
   xmlns="http://www.w3.org/2000/svg"
   xmlns:sodipodi="http://sodipodi.sourceforge.net/DTD/sodipodi-0.dtd"
   xmlns:inkscape="http://www.inkscape.org/namespaces/inkscape"
   viewBox="0 0 175.20267 101.33333"
   height="101.33333"
   width="175.20267"
   xml:space="preserve"
   version="1.1"
   id="svg2"
   inkscape:version="0.48.5 r10040"
   sodipodi:docname="mspbank.svg"><sodipodi:namedview
     pagecolor="#ffffff"
     bordercolor="#666666"
     borderopacity="1"
     objecttolerance="10"
     gridtolerance="10"
     guidetolerance="10"
     inkscape:pageopacity="0"
     inkscape:pageshadow="2"
     inkscape:window-width="640"
     inkscape:window-height="480"
     id="namedview18"
     showgrid="false"
     fit-margin-top="0"
     fit-margin-left="0"
     fit-margin-right="0"
     fit-margin-bottom="0"
     inkscape:zoom="1.1895638"
     inkscape:cx="200.07333"
     inkscape:cy="50.833335"
     inkscape:window-x="0"
     inkscape:window-y="0"
     inkscape:window-maximized="0"
     inkscape:current-layer="svg2" /><metadata
     id="metadata8"><rdf:RDF><cc:Work
         rdf:about=""><dc:format>image/svg+xml</dc:format><dc:type
           rdf:resource="http://purl.org/dc/dcmitype/StillImage" /></cc:Work></rdf:RDF></metadata><defs
     id="defs6" /><g
     transform="matrix(1.3333333,0,0,-1.3333333,0,101.33333)"
     id="g10"><g
       transform="scale(0.1,0.1)"
       id="g12"><path
         id="path14"
         style="fill:#3d86ce;fill-opacity:1;fill-rule:nonzero;stroke:none"
         d="m 328.691,266.316 -114.796,0 0,-61.035 114.796,0 c 25.926,0 35.45,14.223 35.45,30.703 0,16.407 -9.524,30.332 -35.45,30.332"
         inkscape:connector-curvature="0" /><path
         id="path16"
         style="fill:#3d86ce;fill-opacity:1;fill-rule:nonzero;stroke:none"
         d="m 888.312,267.93 -102.472,0 0,-62.336 102.472,0 c 25.633,0 35.399,14.218 35.399,30.996 0,16.769 -9.766,31.34 -35.399,31.34"
         inkscape:connector-curvature="0" /><path
         id="path18"
         style="fill:#3d86ce;fill-opacity:1;fill-rule:nonzero;stroke:none"
         d="m 354.617,333.406 c 0,16.114 -10.125,31.27 -35.437,31.27 l -105.285,0 0,-59.766 105.285,0 c 25.625,0 35.437,12.649 35.437,28.496"
         inkscape:connector-curvature="0" /><path
         id="path20"
         style="fill:#3d86ce;fill-opacity:1;fill-rule:nonzero;stroke:none"
         d="m 886.719,158.484 -156.281,0 0,253.321 235.382,0 0,-47.129 -179.98,0 0,-49.942 102.472,0 c 67.071,0 92.657,-32.871 92.657,-77.519 0,-45.184 -27.524,-78.731 -94.25,-78.731 z m -310.535,-0.019 -125.332,0 0,47.148 120.203,0 c 35.461,0 61.523,22.149 69.441,56.594 l -162.527,0 0,45.867 162.511,0 c -7.953,34.395 -33.996,56.485 -69.425,56.485 l 0,0.117 -120.203,0 0,47.129 125.332,0 c 74.226,0 124.761,-51.278 124.761,-126.621 0,-75.332 -50.535,-126.7 -124.761,-126.719 z m -249.094,0.019 -168.582,0 0,253.321 158.777,0 c 66.777,0 94.59,-27.832 94.59,-69.547 0,-23.735 -9.512,-41.418 -30.684,-51.875 28.157,-10.461 40.164,-31.02 40.164,-58.813 0,-42.39 -27.515,-73.086 -94.265,-73.086 z M 348.27,760 0.0195312,411.805 0,0 l 965.82,0 348.2,348.203 0,411.797 -965.75,0"
         inkscape:connector-curvature="0" /></g></g></svg>