<?xml version="1.0" encoding="UTF-8" standalone="no"?>
<!-- Generator: Adobe Illustrator 16.0.0, SVG Export Plug-In . SVG Version: 6.00 Build 0)  -->

<svg
   xmlns:dc="http://purl.org/dc/elements/1.1/"
   xmlns:cc="http://creativecommons.org/ns#"
   xmlns:rdf="http://www.w3.org/1999/02/22-rdf-syntax-ns#"
   xmlns:svg="http://www.w3.org/2000/svg"
   xmlns="http://www.w3.org/2000/svg"
   xmlns:sodipodi="http://sodipodi.sourceforge.net/DTD/sodipodi-0.dtd"
   xmlns:inkscape="http://www.inkscape.org/namespaces/inkscape"
   version="1.1"
   id="Layer_1"
   x="0px"
   y="0px"
   width="13.808"
   height="12.787"
   viewBox="0 0 13.808 12.787"
   enable-background="new 0 0 107 65"
   xml:space="preserve"
   inkscape:version="0.48.5 r10040"
   sodipodi:docname="sviaz-bank.svg"><metadata
     id="metadata41"><rdf:RDF><cc:Work
         rdf:about=""><dc:format>image/svg+xml</dc:format><dc:type
           rdf:resource="http://purl.org/dc/dcmitype/StillImage" /></cc:Work></rdf:RDF></metadata><defs
     id="defs39" /><sodipodi:namedview
     pagecolor="#ffffff"
     bordercolor="#666666"
     borderopacity="1"
     objecttolerance="10"
     gridtolerance="10"
     guidetolerance="10"
     inkscape:pageopacity="0"
     inkscape:pageshadow="2"
     inkscape:window-width="640"
     inkscape:window-height="480"
     id="namedview37"
     showgrid="false"
     fit-margin-top="0"
     fit-margin-left="0"
     fit-margin-right="0"
     fit-margin-bottom="0"
     inkscape:zoom="3.6307692"
     inkscape:cx="6.402"
     inkscape:cy="-0.442"
     inkscape:window-x="0"
     inkscape:window-y="0"
     inkscape:window-maximized="0"
     inkscape:current-layer="Layer_1" /><g
     id="g3"
     transform="translate(-47.098,-19.271)"><g
       id="g5"><g
         id="g7"><g
           id="g9" /><path
           d="m 60.822,19.442 c 0.027,0 0.056,0.001 0.083,0.001 v -0.172 h -9.587 c -2.33,0 -4.22,1.892 -4.22,4.22 0,0.014 10e-4,0.029 10e-4,0.042 h 9.59 c 0.023,-2.264 1.864,-4.091 4.133,-4.091"
           id="path29"
           inkscape:connector-curvature="0"
           style="fill:#0065a4" /></g><path
         d="m 47.184,31.886 c -0.029,0 -0.056,-10e-4 -0.085,-10e-4 v 0.173 h 9.589 c 2.33,0 4.218,-1.891 4.218,-4.22 0,-0.015 0,-0.029 0,-0.043 h -9.587 c -0.024,2.263 -1.866,4.091 -4.135,4.091"
         id="path31"
         inkscape:connector-curvature="0"
         style="fill:#00a94f" /></g><path
       d="m 60.822,27.624 c 0.025,0 0.053,0 0.079,0 -0.11,-2.203 -1.909,-3.958 -4.127,-4.002 0.023,2.213 1.827,4.002 4.048,4.002"
       id="path33"
       inkscape:connector-curvature="0"
       style="fill:#00a94f" /><path
       d="m 47.105,23.708 c 0.11,2.201 1.908,3.955 4.127,4.001 -0.024,-2.217 -1.827,-4.005 -4.049,-4.005 -0.025,0 -0.052,10e-4 -0.078,0.004"
       id="path35"
       inkscape:connector-curvature="0"
       style="fill:#0065a4" /></g></svg>