<?xml version="1.0" encoding="UTF-8" standalone="no"?>
<svg
   xmlns:dc="http://purl.org/dc/elements/1.1/"
   xmlns:cc="http://creativecommons.org/ns#"
   xmlns:rdf="http://www.w3.org/1999/02/22-rdf-syntax-ns#"
   xmlns:svg="http://www.w3.org/2000/svg"
   xmlns="http://www.w3.org/2000/svg"
   xmlns:sodipodi="http://sodipodi.sourceforge.net/DTD/sodipodi-0.dtd"
   xmlns:inkscape="http://www.inkscape.org/namespaces/inkscape"
   viewBox="0 0 170.396 170.39599"
   height="170.396"
   width="170.396"
   xml:space="preserve"
   version="1.1"
   id="svg2"
   inkscape:version="0.48.5 r10040"
   sodipodi:docname="vozrojdenie.svg"><sodipodi:namedview
     pagecolor="#ffffff"
     bordercolor="#666666"
     borderopacity="1"
     objecttolerance="10"
     gridtolerance="10"
     guidetolerance="10"
     inkscape:pageopacity="0"
     inkscape:pageshadow="2"
     inkscape:window-width="1920"
     inkscape:window-height="1015"
     id="namedview34"
     showgrid="false"
     showguides="true"
     inkscape:guide-bbox="true"
     fit-margin-top="0"
     fit-margin-left="0"
     fit-margin-right="0"
     fit-margin-bottom="0"
     inkscape:zoom="1.9075974"
     inkscape:cx="370.13121"
     inkscape:cy="45.496294"
     inkscape:window-x="-2"
     inkscape:window-y="-3"
     inkscape:window-maximized="1"
     inkscape:current-layer="svg2" /><metadata
     id="metadata8"><rdf:RDF><cc:Work
         rdf:about=""><dc:format>image/svg+xml</dc:format><dc:type
           rdf:resource="http://purl.org/dc/dcmitype/StillImage" /></cc:Work></rdf:RDF></metadata><defs
     id="defs6" /><g
     transform="matrix(1.3333333,0,0,-1.3333333,0,170.39599)"
     id="g10"><g
       transform="scale(0.1,0.1)"
       id="g12"><path
         id="path14"
         style="fill:#13366d;fill-opacity:1;fill-rule:evenodd;stroke:none"
         d="m 0,1237.14 c 0,22.47 18.1094,40.83 40.2539,40.83 l 1197.4561,0 c 22.15,0 40.26,-18.36 40.26,-40.83 l 0,-1196.3314 C 1277.97,18.3711 1259.86,0 1237.71,0 L 40.2539,0 C 18.1094,0 0,18.3711 0,40.8086 L 0,1237.14"
         inkscape:connector-curvature="0" /><path
         id="path16"
         style="fill:#ffffff;fill-opacity:1;fill-rule:nonzero;stroke:none"
         d="m 547.031,1028.86 c 4.141,0 6.071,3.05 4.285,6.79 l -9.168,19.24 c -1.773,3.74 -6.601,6.79 -10.742,6.79 l -337.976,0 c -4.133,0 -6.067,-3.05 -4.282,-6.79 l 9.164,-19.24 c 1.786,-3.74 6.622,-6.79 10.75,-6.79 l 337.969,0"
         inkscape:connector-curvature="0" /><path
         id="path18"
         style="fill:#ffffff;fill-opacity:1;fill-rule:nonzero;stroke:none"
         d="m 573.242,989.598 c -1.765,3.718 -6.601,6.785 -10.742,6.785 l -337.973,0 c -4.129,0 -6.066,-3.067 -4.277,-6.785 l 9.16,-19.258 c 1.781,-3.723 6.613,-6.778 10.746,-6.778 l 337.973,0 c 4.141,0 6.066,3.055 4.293,6.778 l -9.18,19.258"
         inkscape:connector-curvature="0" /><path
         id="path20"
         style="fill:#ffffff;fill-opacity:1;fill-rule:nonzero;stroke:none"
         d="m 604.508,923.977 c -1.793,3.734 -6.625,6.781 -10.754,6.781 l -337.973,0 c -4.136,0 -6.054,-3.047 -4.289,-6.781 l 9.176,-19.254 c 1.77,-3.731 6.598,-6.785 10.738,-6.785 l 337.985,0 c 4.125,0 6.058,3.054 4.269,6.785 l -9.152,19.254"
         inkscape:connector-curvature="0" /><path
         id="path22"
         style="fill:#ffffff;fill-opacity:1;fill-rule:nonzero;stroke:none"
         d="m 635.746,858.363 c -1.766,3.731 -6.601,6.778 -10.742,6.778 l -337.984,0 c -4.122,0 -6.051,-3.047 -4.286,-6.778 l 9.196,-19.265 c 1.769,-3.735 6.605,-6.782 10.726,-6.782 l 337.981,0 c 4.136,0 6.074,3.047 4.285,6.782 l -9.176,19.265"
         inkscape:connector-curvature="0" /><path
         id="path24"
         style="fill:#ffffff;fill-opacity:1;fill-rule:nonzero;stroke:none"
         d="m 667.008,792.73 c -1.774,3.731 -6.617,6.786 -10.742,6.786 l -337.985,0 c -4.121,0 -6.054,-3.055 -4.289,-6.786 l 9.184,-19.25 c 1.773,-3.742 6.597,-6.789 10.742,-6.789 l 337.977,0 c 4.121,0 6.054,3.047 4.289,6.789 l -9.176,19.25"
         inkscape:connector-curvature="0" /><path
         id="path26"
         style="fill:#ffffff;fill-opacity:1;fill-rule:nonzero;stroke:none"
         d="m 698.27,727.078 c -1.79,3.738 -6.61,6.785 -10.747,6.785 l -337.98,0 c -4.129,0 -6.051,-3.047 -4.285,-6.785 l 9.176,-19.25 c 1.789,-3.738 6.613,-6.785 10.742,-6.785 l 337.984,0 c 4.141,0 6.051,3.047 4.281,6.785 l -9.171,19.25"
         inkscape:connector-curvature="0" /><path
         id="path28"
         style="fill:#ffffff;fill-opacity:1;fill-rule:nonzero;stroke:none"
         d="m 729.512,661.488 c -1.77,3.719 -6.614,6.782 -10.742,6.782 l -337.977,0 c -4.137,0 -6.063,-3.063 -4.289,-6.782 l 9.172,-19.273 c 1.785,-3.731 6.621,-6.777 10.742,-6.777 l 337.98,0 c 4.141,0 6.063,3.046 4.293,6.777 l -9.179,19.273"
         inkscape:connector-curvature="0" /><path
         id="path30"
         style="fill:#ed1834;fill-opacity:1;fill-rule:evenodd;stroke:none"
         d="m 1072.31,635.426 c 45.27,0 82.02,36.765 82.02,82.062 0,45.282 -36.75,82.028 -82.02,82.028 -45.34,0 -82.037,-36.746 -82.037,-82.028 0,-45.297 36.697,-82.062 82.037,-82.062 l 0,0"
         inkscape:connector-curvature="0" /><path
         id="path32"
         style="fill:#ffffff;fill-opacity:1;fill-rule:nonzero;stroke:none"
         d="m 632.812,1094.53 c 4.122,0 7.5,3.38 7.5,7.51 l 0,17.79 c 0,4.13 -3.378,7.51 -7.5,7.51 l -524.394,0 c -4.133,0 -7.512,-3.38 -7.512,-7.51 l 0,-17.79 c 0,-4.13 3.379,-7.51 7.512,-7.51 l 524.394,0"
         inkscape:connector-curvature="0" /><path
         id="path34"
         style="fill:#ffffff;fill-opacity:1;fill-rule:nonzero;stroke:none"
         d="m 408.984,602.645 c -4.121,0 -6.035,-3.04 -4.25,-6.77 L 618.312,153.391 c 1.805,-3.731 6.126,-3.743 7.915,0 l 195.101,409.605 c 1.77,3.738 6.602,6.785 10.742,6.785 l 314.75,0 c 4.13,0 7.51,3.379 7.51,7.512 l 0,17.84 c 0,4.133 -3.38,7.512 -7.51,7.512 l -737.836,0"
         inkscape:connector-curvature="0" /><path
         id="path36"
         style="fill:#ffffff;fill-opacity:1;fill-rule:nonzero;stroke:none"
         d="m 1146.82,1127.38 -270.34,-0.01 c -4.14,0 -7.515,-3.39 -7.515,-7.52 l 0,-17.79 c 0,-4.13 3.375,-7.52 7.515,-7.52 l 40.075,0 c 9.965,-0.6 67.527,-0.88 45.593,-68.1 L 782.461,642.215 c -1.754,-3.75 0.199,-6.817 4.34,-6.817 l 61.445,0 c 4.125,0 8.977,3.055 10.742,6.786 l 194.042,405.736 c 8.88,18.28 19.56,30.68 31.99,37.04 12.45,6.34 28.69,9.62 49.83,9.62 l 11.97,0 c 4.14,-0.01 7.51,3.37 7.51,7.51 l 0,17.78 c 0,4.13 -3.37,7.51 -7.51,7.51"
         inkscape:connector-curvature="0" /></g></g></svg>