<?xml version="1.0" encoding="UTF-8" standalone="no"?>
<!-- Created with Inkscape (http://www.inkscape.org/) -->
<svg xmlns:dc="http://purl.org/dc/elements/1.1/" xmlns:cc="http://web.resource.org/cc/" xmlns:rdf="http://www.w3.org/1999/02/22-rdf-syntax-ns#" xmlns:svg="http://www.w3.org/2000/svg" xmlns="http://www.w3.org/2000/svg" xmlns:sodipodi="http://sodipodi.sourceforge.net/DTD/sodipodi-0.dtd" xmlns:inkscape="http://www.inkscape.org/namespaces/inkscape" id="svg2178" sodipodi:version="0.32" inkscape:version="0.45.1" width="1278" height="599" version="1.0" sodipodi:docbase="C:\Users\Олег\Pictures\Wikipedia" sodipodi:docname="vtb.svg" inkscape:output_extension="org.inkscape.output.svg.inkscape">
  <metadata id="metadata2183">
    <rdf:RDF>
      <cc:Work rdf:about="">
        <dc:format>image/svg+xml</dc:format>
        <dc:type rdf:resource="http://purl.org/dc/dcmitype/StillImage"/>
      </cc:Work>
    </rdf:RDF>
  </metadata>
  <defs id="defs2181"/>
  <sodipodi:namedview inkscape:window-height="1000" inkscape:window-width="1680" inkscape:pageshadow="2" inkscape:pageopacity="0.0" guidetolerance="10.0" gridtolerance="10.0" objecttolerance="10.0" borderopacity="1.0" bordercolor="#666666" pagecolor="#ffffff" id="base" inkscape:zoom="0.2800962" inkscape:cx="2485.6051" inkscape:cy="-461.39945" inkscape:window-x="-8" inkscape:window-y="-8" inkscape:current-layer="svg2178"/>
  <path style="fill:#30417e;fill-opacity:1" d="M 831.85103,412.85101 L 831.85103,295.85101 L 790.85103,295.85101 L 749.85103,295.85101 L 749.85103,268.35101 L 749.85103,240.85101 L 867.80843,240.85101 L 985.76573,240.85101 L 976.55603,268.10101 L 967.34633,295.35101 L 931.59873,295.61364 L 895.85103,295.87627 L 895.85103,412.86364 L 895.85103,529.85101 L 863.85103,529.85101 L 831.85103,529.85101 L 831.85103,412.85101 z M 541.85103,384.79032 L 541.85103,240.72963 L 605.10103,241.13464 C 673.25813,241.57108 672.59033,241.52258 688.13463,247.16486 C 698.59103,250.96035 705.63003,255.63192 715.00613,264.99881 C 722.19673,272.18225 724.43673,275.23023 728.23463,282.99881 C 734.22683,295.25597 736.33183,305.70367 735.55513,319.33283 C 734.22813,342.61892 722.99543,362.09702 704.85363,372.57113 L 699.58643,375.61213 L 707.79813,379.8843 C 717.71083,385.04145 729.98423,396.17909 735.66263,405.17021 C 746.42323,422.20839 749.54553,446.838 743.82703,469.57338 C 742.75113,473.85108 739.79613,481.56517 737.26043,486.7158 C 733.48213,494.3904 731.16903,497.54887 724.44473,504.2158 C 715.05383,513.52654 708.33553,517.83024 696.02713,522.41998 C 679.55593,528.56196 675.47253,528.85101 605.17483,528.85101 L 541.85103,528.85101 L 541.85103,384.79032 z M 657.09513,471.52002 C 663.32933,468.46987 666.76103,464.94274 670.28943,457.95845 C 678.96283,440.79044 673.84713,417.99128 659.70243,410.77524 C 654.16993,407.95276 642.05363,406.73301 622.85103,407.0654 L 606.35103,407.35101 L 606.08683,439.84289 C 605.94153,457.71342 606.06053,472.95451 606.35113,473.71199 C 606.78453,474.84138 610.88803,475.01741 629.15533,474.69021 C 651.08763,474.29736 651.51833,474.2485 657.09513,471.52002 z M 652.12593,350.77759 C 667.62773,345.53171 673.98243,321.35641 663.47923,307.58583 C 656.82703,298.86417 649.23933,296.85101 623.01913,296.85101 L 605.85103,296.85101 L 605.85103,324.9736 L 605.85103,353.09618 L 627.10103,352.57562 C 640.34393,352.25121 649.77343,351.57371 652.12593,350.77759 z M 1001.851,384.35101 L 1001.851,239.85101 L 1098.351,239.85101 C 1151.426,239.85101 1194.8537,240.18851 1194.857,240.60101 C 1194.8602,241.01351 1190.7328,253.38851 1185.6849,268.10101 L 1176.5069,294.85101 L 1121.6789,294.85101 L 1066.851,294.85101 L 1066.851,321.71693 L 1066.851,348.58284 L 1095.601,349.13248 C 1114.713,349.49786 1127.3874,350.20426 1133.4086,351.23967 C 1165.3133,356.72603 1186.3293,370.98823 1198.4085,395.35101 C 1205.754,410.16623 1207.208,417.26757 1207.2123,438.35101 C 1207.2157,454.56517 1206.9602,457.30046 1204.6368,465.92084 C 1195.0622,501.44623 1168.3212,522.73016 1126.8772,527.81197 C 1121.9033,528.42187 1094.3344,528.85101 1060.1272,528.85101 L 1001.851,528.85101 L 1001.851,384.35101 z M 1107.5733,472.85104 C 1123.0604,470.83915 1131.6701,462.79469 1134.8564,447.35911 C 1138.2614,430.86362 1132.0062,414.4874 1119.9889,408.4354 C 1112.6376,404.73327 1106.0583,403.85101 1085.8018,403.85101 L 1066.851,403.85101 L 1066.851,438.85101 L 1066.851,473.85101 L 1083.601,473.82013 C 1092.8135,473.80315 1103.601,473.36706 1107.5733,472.85104 z M 175.82353,383.16903 C 162.95953,374.418 137.47443,350.09298 125.10523,334.7593 C 106.27503,311.41613 90.766231,283.10921 80.863431,254.00807 C 75.973731,239.63858 75.946631,240.16981 82.500331,221.85101 C 91.469631,196.78017 107.25983,168.42629 124.26773,146.85101 C 132.81493,136.00849 157.81633,111.33759 168.69923,103.00691 L 178.04743,95.85101 L 304.86823,95.85101 L 431.68903,95.85101 L 429.17033,104.10101 C 427.78513,108.63851 425.31383,115.83851 423.67863,120.10101 L 420.70563,127.85101 L 303.83023,127.85101 L 186.95483,127.85101 L 181.15293,132.74935 C 177.96183,135.44344 173.77603,139.02515 171.85103,140.70871 L 168.35103,143.76973 L 290.60103,143.81037 C 357.83853,143.83272 412.85103,144.0519 412.85103,144.29743 C 412.85103,145.08144 405.73933,157.04668 399.59703,166.59719 L 393.65033,175.84337 L 267.07193,176.09719 L 140.49363,176.35101 L 135.71673,183.35101 C 133.08943,187.20101 130.91983,190.91351 130.89543,191.60101 C 130.86013,192.59454 156.33933,192.85101 255.07753,192.85101 L 379.30413,192.85101 L 371.32753,200.91993 C 366.94043,205.35784 359.25643,212.33284 354.25203,216.41993 L 345.15303,223.85101 L 229.59493,223.85101 L 114.03673,223.85101 L 111.05843,232.09593 L 108.08013,240.34085 L 111.06873,248.80813 C 124.15413,285.88177 147.48773,320.7533 176.10733,346.00691 L 183.86373,352.85101 L 286.85733,352.85101 C 343.50383,352.85101 389.85103,352.70359 389.85103,352.52342 C 389.85103,351.48874 384.08793,338.28903 380.65633,331.46388 C 371.28963,312.83428 359.26953,296.24804 344.16183,281.10592 L 334.93773,271.86082 L 236.64433,271.60592 L 138.35103,271.35101 L 133.85103,262.30553 C 131.37603,257.33052 128.35673,250.46802 127.14153,247.05553 L 124.93213,240.85101 L 235.33553,240.85101 L 345.73893,240.85101 L 360.39603,255.06451 C 388.59603,282.41084 408.03873,310.83253 420.34613,342.70023 C 424.20333,352.68786 429.22333,371.22494 430.33923,379.60101 L 431.03873,384.85101 L 304.66733,384.85101 C 187.90733,384.85101 178.10793,384.72309 175.82353,383.16903 z " id="path2187"/>
</svg>