<?xml version="1.0" encoding="UTF-8" standalone="no"?>
<!-- Created with Inkscape (http://www.inkscape.org/) -->

<svg
   xmlns:dc="http://purl.org/dc/elements/1.1/"
   xmlns:cc="http://creativecommons.org/ns#"
   xmlns:rdf="http://www.w3.org/1999/02/22-rdf-syntax-ns#"
   xmlns:svg="http://www.w3.org/2000/svg"
   xmlns="http://www.w3.org/2000/svg"
   xmlns:sodipodi="http://sodipodi.sourceforge.net/DTD/sodipodi-0.dtd"
   xmlns:inkscape="http://www.inkscape.org/namespaces/inkscape"
   id="svg2178"
   sodipodi:version="0.32"
   inkscape:version="0.48.5 r10040"
   width="1129.843"
   height="434"
   version="1.0"
   sodipodi:docname="vtb.svg"
   inkscape:output_extension="org.inkscape.output.svg.inkscape">
  <metadata
     id="metadata2183">
    <rdf:RDF>
      <cc:Work
         rdf:about="">
        <dc:format>image/svg+xml</dc:format>
        <dc:type
           rdf:resource="http://purl.org/dc/dcmitype/StillImage" />
      </cc:Work>
    </rdf:RDF>
  </metadata>
  <defs
     id="defs2181" />
  <sodipodi:namedview
     inkscape:window-height="1000"
     inkscape:window-width="1680"
     inkscape:pageshadow="2"
     inkscape:pageopacity="0.0"
     guidetolerance="10.0"
     gridtolerance="10.0"
     objecttolerance="10.0"
     borderopacity="1.0"
     bordercolor="#666666"
     pagecolor="#ffffff"
     id="base"
     inkscape:zoom="0.2800962"
     inkscape:cx="2408.2358"
     inkscape:cy="-530.54844"
     inkscape:window-x="0"
     inkscape:window-y="0"
     inkscape:current-layer="svg2178"
     showgrid="false"
     fit-margin-top="0"
     fit-margin-left="0"
     fit-margin-right="0"
     fit-margin-bottom="0"
     inkscape:window-maximized="0" />
  <path
     style="fill:#30417e;fill-opacity:1"
     d="m 754.48173,317 0,-117 -41,0 -41,0 0,-27.5 0,-27.5 117.9574,0 117.9573,0 -9.2097,27.25 -9.2097,27.25 -35.7476,0.26263 -35.7477,0.26263 0,116.98737 0,116.98737 -32,0 -32,0 0,-117 z m -290,-28.06069 0,-144.06069 63.25,0.40501 c 68.1571,0.43644 67.4893,0.38794 83.0336,6.03022 10.4564,3.79549 17.4954,8.46706 26.8715,17.83395 7.1906,7.18344 9.4306,10.23142 13.2285,18 5.9922,12.25716 8.0972,22.70486 7.3205,36.33402 -1.327,23.28609 -12.5597,42.76419 -30.7015,53.2383 l -5.2672,3.041 8.2117,4.27217 c 9.9127,5.15715 22.1861,16.29479 27.8645,25.28591 10.7606,17.03818 13.8829,41.66779 8.1644,64.40317 -1.0759,4.2777 -4.0309,11.99179 -6.5666,17.14242 -3.7783,7.6746 -6.0914,10.83307 -12.8157,17.5 -9.3909,9.31074 -16.1092,13.61444 -28.4176,18.20418 C 602.18663,432.71095 598.10323,433 527.80553,433 l -63.3238,0 0,-144.06069 z m 115.2441,86.7297 c 6.2342,-3.05015 9.6659,-6.57728 13.1943,-13.56157 8.6734,-17.16801 3.5577,-39.96717 -10.587,-47.18321 -5.5325,-2.82248 -17.6488,-4.04223 -36.8514,-3.70984 l -16.5,0.28561 -0.2642,32.49188 c -0.1453,17.87053 -0.0263,33.11162 0.2643,33.8691 0.4334,1.12939 4.5369,1.30542 22.8042,0.97822 21.9323,-0.39285 22.363,-0.44171 27.9398,-3.17019 z m -4.9692,-120.74243 c 15.5018,-5.24588 21.8565,-29.42118 11.3533,-43.19176 C 579.45773,203.01316 571.87003,201 545.64983,201 l -17.1681,0 0,28.12259 0,28.12258 21.25,-0.52056 c 13.2429,-0.32441 22.6724,-1.00191 25.0249,-1.79803 z M 924.4817,288.5 l 0,-144.5 96.5,0 c 53.075,0 96.5027,0.3375 96.506,0.75 0,0.4125 -4.1242,12.7875 -9.1721,27.5 l -9.178,26.75 -54.828,0 -54.8279,0 0,26.86592 0,26.86591 28.75,0.54964 c 19.112,0.36538 31.7864,1.07178 37.8076,2.10719 31.9047,5.48636 52.9207,19.74856 64.9999,44.11134 7.3455,14.81522 8.7995,21.91656 8.8038,43 0,16.21416 -0.2521,18.94945 -2.5755,27.56983 -9.5746,35.52539 -36.3156,56.80932 -77.7596,61.89113 -4.9739,0.6099 -32.5428,1.03904 -66.75,1.03904 l -58.2762,0 0,-144.5 z m 105.7223,88.50003 c 15.4871,-2.01189 24.0968,-10.05635 27.2831,-25.49193 3.405,-16.49549 -2.8502,-32.87171 -14.8675,-38.92371 C 1035.2683,308.88226 1028.689,308 1008.4325,308 l -18.9508,0 0,35 0,35 16.75,-0.0309 c 9.2125,-0.017 20,-0.45307 23.9723,-0.96909 z M 98.45423,287.31802 C 85.59023,278.56699 60.10513,254.24197 47.73593,238.90829 28.90573,215.56512 13.396931,187.2582 3.4941308,158.15706 -1.3955692,143.78757 -1.4226692,144.3188 5.1310308,126 14.100331,100.92916 29.89053,72.57528 46.89843,51 55.44563,40.15748 80.44703,15.48658 91.32993,7.1559 L 100.67813,0 l 126.8208,0 126.8208,0 -2.5187,8.25 c -1.3852,4.5375 -3.8565,11.7375 -5.4917,16 l -2.973,7.75 -116.8754,0 -116.8754,0 -5.8019,4.89834 c -3.1911,2.69409 -7.3769,6.2758 -9.3019,7.95936 l -3.5,3.06102 122.25,0.0406 c 67.2375,0.0223 122.25,0.24153 122.25,0.48706 0,0.78401 -7.1117,12.74925 -13.254,22.29976 l -5.9467,9.24618 -126.5784,0.25382 -126.5783,0.25382 -4.7769,7 c -2.6273,3.85 -4.7969,7.5625 -4.8213,8.25 -0.0353,0.99353 25.4439,1.25 124.1821,1.25 l 124.2266,0 -7.9766,8.06892 c -4.3871,4.43791 -12.0711,11.41291 -17.0755,15.5 l -9.099,7.43108 -115.5581,0 -115.5582,0 -2.9783,8.24492 -2.9783,8.24492 2.9886,8.46728 c 13.0854,37.07364 36.419,71.94517 65.0386,97.19878 l 7.7564,6.8441 102.9936,0 c 56.6465,0 102.9937,-0.14742 102.9937,-0.32759 0,-1.03468 -5.7631,-14.23439 -9.1947,-21.05954 -9.3667,-18.6296 -21.3868,-35.21584 -36.4945,-50.35796 l -9.2241,-9.2451 -98.2934,-0.2549 -98.2933,-0.25491 -4.5,-9.04548 c -2.475,-4.97501 -5.4943,-11.83751 -6.7095,-15.25 l -2.2094,-6.20452 110.4034,0 110.4034,0 14.6571,14.2135 c 28.2,27.34633 47.6427,55.76802 59.9501,87.63572 3.8572,9.98763 8.8772,28.52471 9.9931,36.90078 l 0.6995,5.25 -126.3714,0 c -116.76,0 -126.5594,-0.12792 -128.8438,-1.68198 z"
     id="path2187"
     inkscape:connector-curvature="0" />
</svg>
