<?xml version="1.0" encoding="UTF-8" standalone="no"?>
<!-- Generator: Adobe Illustrator 19.1.0, SVG Export Plug-In . SVG Version: 6.00 Build 0)  -->

<svg
   xmlns:dc="http://purl.org/dc/elements/1.1/"
   xmlns:cc="http://creativecommons.org/ns#"
   xmlns:rdf="http://www.w3.org/1999/02/22-rdf-syntax-ns#"
   xmlns:svg="http://www.w3.org/2000/svg"
   xmlns="http://www.w3.org/2000/svg"
   xmlns:sodipodi="http://sodipodi.sourceforge.net/DTD/sodipodi-0.dtd"
   xmlns:inkscape="http://www.inkscape.org/namespaces/inkscape"
   version="1.1"
   id="Layer_1"
   x="0px"
   y="0px"
   viewBox="0 0 69.85488 69.854881"
   xml:space="preserve"
   inkscape:version="0.48.4 r9939"
   width="100%"
   height="100%"
   sodipodi:docname="164941.svg"><metadata
     id="metadata17"><rdf:RDF><cc:Work
         rdf:about=""><dc:format>image/svg+xml</dc:format><dc:type
           rdf:resource="http://purl.org/dc/dcmitype/StillImage" /></cc:Work></rdf:RDF></metadata><defs
     id="defs15" /><sodipodi:namedview
     pagecolor="#ffffff"
     bordercolor="#666666"
     borderopacity="1"
     objecttolerance="10"
     gridtolerance="10"
     guidetolerance="10"
     inkscape:pageopacity="0"
     inkscape:pageshadow="2"
     inkscape:window-width="1855"
     inkscape:window-height="1056"
     id="namedview13"
     showgrid="false"
     inkscape:zoom="3.4352941"
     inkscape:cx="89.659803"
     inkscape:cy="46.363014"
     inkscape:window-x="65"
     inkscape:window-y="24"
     inkscape:window-maximized="1"
     inkscape:current-layer="Layer_1"
     fit-margin-top="2"
     fit-margin-left="2"
     fit-margin-right="2"
     fit-margin-bottom="2" /><style
     type="text/css"
     id="style3">
	.st0{fill-rule:evenodd;clip-rule:evenodd;fill:#FFFFFF;}
	.st1{fill-rule:evenodd;clip-rule:evenodd;fill:#EF7D00;}
</style><path
     style="fill:#00bbe3;fill-opacity:1;stroke:#000000;stroke-width:0;stroke-linecap:butt;stroke-miterlimit:4;stroke-opacity:1;stroke-dasharray:none;stroke-dashoffset:0"
     d="M 34.921279,2 C 16.737419,2 1.9999995,16.749731 1.9999995,34.933597 c 0,18.183865 14.7374195,32.921284 32.9212795,32.921284 18.18387,0 32.9336,-14.737419 32.9336,-32.921284 C 67.854879,16.749731 53.105149,2 34.921279,2 z"
     id="path3029"
     inkscape:connector-curvature="0" /><path
     class="st0"
     d="m 43.677709,13.398031 v 10.2 c -0.2,2.2 -3.7,3.5 -8,3.5 -4.3,0 -7.9,-1.4 -8,-3.5 h 0 v -10.2 h -5.8 v 10.4 h 0 c 0.3,4 6.3,7.1 13.7,7.1 7.4,0 13.4,-3.1 13.7,-7.1 h 0 v -10.4 h -5.6 z"
     id="path7-7"
     inkscape:connector-curvature="0"
     style="fill:#ffffff;fill-rule:evenodd" /><path
     class="st0"
     d="m 19.777709,55.198031 c -0.3,-9.9 5.2,-17.5 15.8,-17.5 10.4,0 16.2,7.7 15.8,17.5 h 6.1 c 0.4,-13.4 -8.2,-22.5 -21.9,-22.5 -14,0 -22.3,8.9 -21.9,22.5 h 6.1 z"
     id="path9-0"
     inkscape:connector-curvature="0"
     style="fill:#ffffff;fill-rule:evenodd" /><path
     class="st1"
     d="m 35.577709,21.398031 c 3.1,0 5.6,-2.5 5.6,-5.6 0,-3 -2.5,-5.5 -5.6,-5.5 -3.1,0 -5.6,2.5 -5.6,5.6 0.1,3.1 2.6,5.5 5.6,5.5"
     id="path11-6"
     inkscape:connector-curvature="0"
     style="fill:#ef7d00;fill-rule:evenodd" /></svg>
