<?xml version="1.0" encoding="UTF-8" standalone="no"?>
<svg
   xmlns:dc="http://purl.org/dc/elements/1.1/"
   xmlns:cc="http://creativecommons.org/ns#"
   xmlns:rdf="http://www.w3.org/1999/02/22-rdf-syntax-ns#"
   xmlns:svg="http://www.w3.org/2000/svg"
   xmlns="http://www.w3.org/2000/svg"
   xmlns:sodipodi="http://sodipodi.sourceforge.net/DTD/sodipodi-0.dtd"
   xmlns:inkscape="http://www.inkscape.org/namespaces/inkscape"
   version="1.1"
   width="54.75"
   height="53.151001"
   viewBox="0 0 54.75 53.151001"
   enable-background="new 0 0 200 50"
   xml:space="preserve"
   id="svg2"
   inkscape:version="0.48.4 r9939"
   sodipodi:docname="322.svg"><metadata
     id="metadata36"><rdf:RDF><cc:Work
         rdf:about=""><dc:format>image/svg+xml</dc:format><dc:type
           rdf:resource="http://purl.org/dc/dcmitype/StillImage" /></cc:Work></rdf:RDF></metadata><defs
     id="defs34" /><sodipodi:namedview
     pagecolor="#ffffff"
     bordercolor="#666666"
     borderopacity="1"
     objecttolerance="10"
     gridtolerance="10"
     guidetolerance="10"
     inkscape:pageopacity="0"
     inkscape:pageshadow="2"
     inkscape:window-width="1855"
     inkscape:window-height="1056"
     id="namedview32"
     showgrid="false"
     fit-margin-top="7"
     fit-margin-left="7"
     fit-margin-right="7"
     fit-margin-bottom="7"
     inkscape:zoom="6.7316566"
     inkscape:cx="109.88671"
     inkscape:cy="17.565626"
     inkscape:window-x="65"
     inkscape:window-y="24"
     inkscape:window-maximized="1"
     inkscape:current-layer="svg2" /><radialGradient
     id="SVGID_1_"
     cx="23.700199"
     cy="20.700701"
     r="23.412399"
     gradientUnits="userSpaceOnUse"
     gradientTransform="translate(5,5.5)"><stop
       offset="0"
       style="stop-color:#52A347"
       id="stop7" /><stop
       offset="0.502"
       style="stop-color:#83B03E"
       id="stop9" /><stop
       offset="0.7059"
       style="stop-color:#2EA64C"
       id="stop11" /><stop
       offset="0.9294"
       style="stop-color:#264122"
       id="stop13" /><stop
       offset="0.9333"
       style="stop-color:#264122"
       id="stop15" /></radialGradient><path
     clip-rule="evenodd"
     d="m 39.75,9.55 1.75,1.6 -22.1,12.7 -10.7,-6.2 1,-2 9.7,5.55 L 39.75,9.55 z M 35.3,7 37.65,8.2 19.4,18.7 10.9,13.85 12.35,12.1 19.4,16.15 35.3,7 z m 7.75,5.8 1.3,1.75 L 19.4,28.9 7.35,22 7.9,19.8 19.4,26.4 43.05,12.8 z"
     id="path17"
     inkscape:connector-curvature="0"
     style="fill:url(#SVGID_1_);fill-rule:evenodd" /><radialGradient
     id="SVGID_2_"
     cx="23.700199"
     cy="20.700199"
     r="23.4128"
     gradientUnits="userSpaceOnUse"
     gradientTransform="translate(5,5.5)"><stop
       offset="0"
       style="stop-color:#52A347"
       id="stop20" /><stop
       offset="0.502"
       style="stop-color:#83B03E"
       id="stop22" /><stop
       offset="0.7059"
       style="stop-color:#2B9940"
       id="stop24" /><stop
       offset="0.9294"
       style="stop-color:#264122"
       id="stop26" /><stop
       offset="0.9333"
       style="stop-color:#264122"
       id="stop28" /></radialGradient><path
     clip-rule="evenodd"
     d="m 46.65,19.25 c 0.733,2.067 1.1,4.233 1.1,6.5 0,2.267 -0.367,4.467 -1.1,6.6 l -0.5,1.351 c -1.033,2.433 -2.483,4.6 -4.35,6.5 -1.9,1.866 -4.066,3.3 -6.5,4.3 -2.566,1.1 -5.216,1.65 -7.95,1.65 -2.767,0 -5.417,-0.551 -7.95,-1.65 -2.367,-1 -4.517,-2.434 -6.45,-4.3 -1.9,-1.9 -3.35,-4.067 -4.35,-6.5 C 7.533,31.133 7,28.483 7,25.75 V 24.4 l 12.4,7.05 26.15,-15 1.1,2.8 z"
     id="path30"
     inkscape:connector-curvature="0"
     style="fill:url(#SVGID_2_);fill-rule:evenodd" /></svg>