<?xml version="1.0" encoding="UTF-8" standalone="no"?>
<svg
   xmlns:dc="http://purl.org/dc/elements/1.1/"
   xmlns:cc="http://creativecommons.org/ns#"
   xmlns:rdf="http://www.w3.org/1999/02/22-rdf-syntax-ns#"
   xmlns:svg="http://www.w3.org/2000/svg"
   xmlns="http://www.w3.org/2000/svg"
   xmlns:sodipodi="http://sodipodi.sourceforge.net/DTD/sodipodi-0.dtd"
   xmlns:inkscape="http://www.inkscape.org/namespaces/inkscape"
   version="1.0"
   width="185"
   height="190.375"
   viewBox="0 0 148 152.3"
   preserveAspectRatio="xMidYMid meet"
   id="svg2"
   inkscape:version="0.48.4 r9939"
   sodipodi:docname="a90af_logotip.svg">
  <defs
     id="defs34" />
  <sodipodi:namedview
     pagecolor="#ffffff"
     bordercolor="#666666"
     borderopacity="1"
     objecttolerance="10"
     gridtolerance="10"
     guidetolerance="10"
     inkscape:pageopacity="0"
     inkscape:pageshadow="2"
     inkscape:window-width="1398"
     inkscape:window-height="860"
     id="namedview32"
     showgrid="false"
     inkscape:zoom="1.7387384"
     inkscape:cx="7.8792626"
     inkscape:cy="52.063986"
     inkscape:window-x="65"
     inkscape:window-y="24"
     inkscape:window-maximized="0"
     inkscape:current-layer="svg2"
     fit-margin-top="15"
     fit-margin-left="35"
     fit-margin-right="35"
     fit-margin-bottom="15" />
  <metadata
     id="metadata4">
Created by potrace 1.12, written by Peter Selinger 2001-2015
<rdf:RDF>
  <cc:Work
     rdf:about="">
    <dc:format>image/svg+xml</dc:format>
    <dc:type
       rdf:resource="http://purl.org/dc/dcmitype/StillImage" />
  </cc:Work>
</rdf:RDF>
</metadata>
  <g
     transform="matrix(0.1,0,0,-0.1,-116,237.3)"
     id="g6"
     style="fill:#000000;stroke:none">
    <path
       d="m 1440,1611 0,-641 215,0 215,0 -0.3202,705.3065 63.2868,-0.4734 L 1935.9332,970 2150,970 l 210,0 0,641 0,642 -99,-5 c -82,-4 -109,-10 -155,-32 -98,-48 -180,-165 -193,-275 -7,-64 -19,-66 -25,-3 -11,109 -95,230 -196,279 -47,23 -73,28 -154,31 l -98,4 z"
       id="path8"
       inkscape:connector-curvature="0"
       sodipodi:nodetypes="ccccccccccccccccccc"
       style="fill:#cc0033" />
  </g>
</svg>
