<?xml version="1.0" encoding="UTF-8" standalone="no"?>
<!-- Generator: Adobe Illustrator 14.0.0, SVG Export Plug-In . SVG Version: 6.00 Build 43363)  -->

<svg
   xmlns:dc="http://purl.org/dc/elements/1.1/"
   xmlns:cc="http://creativecommons.org/ns#"
   xmlns:rdf="http://www.w3.org/1999/02/22-rdf-syntax-ns#"
   xmlns:svg="http://www.w3.org/2000/svg"
   xmlns="http://www.w3.org/2000/svg"
   xmlns:sodipodi="http://sodipodi.sourceforge.net/DTD/sodipodi-0.dtd"
   xmlns:inkscape="http://www.inkscape.org/namespaces/inkscape"
   version="1.1"
   id="Layer_1"
   x="0px"
   y="0px"
   width="57.34375"
   height="57.5"
   viewBox="0 0 57.343751 57.500001"
   enable-background="new 0 0 612 792"
   xml:space="preserve"
   inkscape:version="0.48.5 r10040"
   sodipodi:docname="russky-standart-bank.svg"><metadata
     id="metadata103"><rdf:RDF><cc:Work
         rdf:about=""><dc:format>image/svg+xml</dc:format><dc:type
           rdf:resource="http://purl.org/dc/dcmitype/StillImage" /></cc:Work></rdf:RDF></metadata><defs
     id="defs101" /><sodipodi:namedview
     pagecolor="#000000"
     bordercolor="#666666"
     borderopacity="1"
     objecttolerance="10"
     gridtolerance="10"
     guidetolerance="10"
     inkscape:pageopacity="0"
     inkscape:pageshadow="2"
     inkscape:window-width="1920"
     inkscape:window-height="1015"
     id="namedview99"
     showgrid="false"
     fit-margin-top="0"
     fit-margin-left="0"
     fit-margin-right="0"
     fit-margin-bottom="0"
     showborder="true"
     inkscape:showpageshadow="false"
     inkscape:zoom="2.3838384"
     inkscape:cx="297.60232"
     inkscape:cy="37.58001"
     inkscape:window-x="-2"
     inkscape:window-y="-3"
     inkscape:window-maximized="1"
     inkscape:current-layer="Layer_1" /><g
     id="g3121"
     transform="translate(-11.75,-13.75)"><path
       clip-rule="evenodd"
       stroke-miterlimit="2.6131"
       d="m 40.42427,15.57846 c -14.819,0 -26.834,12.054 -26.834,26.917 0,14.873 12.015,26.934 26.834,26.934 14.824,0 26.839,-12.061 26.839,-26.934 0,-10.421 -5.918,-19.443 -14.561,-23.917 -0.08,-0.075 -0.149,-0.141 -0.235,-0.219 0,0 -0.006,0.041 -0.006,0.101 -1.052,-0.534 -2.149,-0.995 -3.275,-1.387 0.086,-0.366 0.201,-0.908 0.247,-1.309 0.052,-0.49 -0.339,-1.003 -1.144,-0.81 -0.558,0.124 -1.988,0.625 -3.24,1.049 -1.505,-0.261 -3.045,-0.425 -4.625,-0.425 l 0,0 z"
       id="path7"
       inkscape:connector-curvature="0"
       style="fill:#61553f;fill-rule:evenodd;stroke:#ddd7cd;stroke-width:0.3529;stroke-linejoin:round;stroke-miterlimit:2.61310005" /><path
       clip-rule="evenodd"
       stroke-miterlimit="2.6131"
       d="m 40.42427,71.07746 c 15.733,0 28.483,-12.798 28.483,-28.583 0,-12.344 -7.803,-22.864 -18.738,-26.859 l 0.115,0.646 c 10.556,3.992 18.065,14.225 18.065,26.213 0,15.473 -12.503,28.018 -27.925,28.018 -15.422,0 -27.92,-12.545 -27.92,-28.018 0,-15.468 12.498,-28.01 27.92,-28.01 1.66,0 3.292,0.145 4.877,0.424 l 0.966,-0.386 c -1.885,-0.389 -3.838,-0.597 -5.843,-0.597 -15.728,0 -28.483,12.789 -28.483,28.568 -10e-4,15.786 12.755,28.584 28.483,28.584 l 0,0 z"
       id="path9"
       inkscape:connector-curvature="0"
       style="fill:#61553f;fill-rule:evenodd;stroke:#ddd7cd;stroke-width:0.3529;stroke-linejoin:round;stroke-miterlimit:2.61310005" /><path
       clip-rule="evenodd"
       stroke-miterlimit="2.6131"
       d="m 13.59027,42.49546 c 0,-14.863 12.015,-26.917 26.834,-26.917 14.824,0 26.839,12.054 26.839,26.917 0,14.873 -12.016,26.934 -26.839,26.934 -14.82,0 -26.834,-12.061 -26.834,-26.934 l 0,0 z"
       id="path19"
       inkscape:connector-curvature="0"
       style="fill:#ffffff;fill-rule:evenodd;stroke:#61553f;stroke-width:0.0951;stroke-linejoin:round;stroke-miterlimit:2.61310005" /><path
       clip-rule="evenodd"
       d="m 50.28427,16.28146 c 10.556,3.992 18.065,14.224 18.065,26.213 0,15.473 -12.503,28.018 -27.925,28.018 -15.422,0 -27.92,-12.545 -27.92,-28.018 0,-15.468 12.498,-28.01 27.92,-28.01 1.66,0 3.292,0.145 4.877,0.424 l 0.966,-0.386 c -1.885,-0.389 -3.838,-0.597 -5.843,-0.597 -15.728,0 -28.483,12.789 -28.483,28.568 0,15.784 12.756,28.583 28.483,28.583 15.733,0 28.483,-12.798 28.483,-28.583 0,-12.344 -7.803,-22.864 -18.738,-26.859 l 0.115,0.647 0,0 z"
       id="path21"
       inkscape:connector-curvature="0"
       style="fill:#61553f;fill-rule:evenodd" /><path
       clip-rule="evenodd"
       d="m 26.84027,47.82746 c 0.275,-0.34 0.85,-0.818 1.609,-1.193 1.08,-0.547 4.16,-0.905 5.867,-0.881 1.011,0.011 1.689,0.473 2.161,0.945 0.47,0.473 -0.339,0.542 -0.742,0.202 -0.408,-0.334 -0.856,-0.45 -1.327,-0.45 -0.471,0 -0.971,0.184 -1.235,0.38 -0.27,0.208 -0.339,0.484 -1.011,0.68 -0.816,0.23 -1.758,-0.507 -1.758,-0.507 0.661,1.251 1.798,1.21 2.43,1.055 0.46,-0.122 0.604,-0.335 1.281,-0.346 1.08,-0.018 1.551,0.611 1.551,0.611 -1.35,-0.069 -3.637,0.778 -4.723,1.014 -1.351,0.3 -2.632,0.34 -2.632,0.34 0.873,1.084 2.16,1.084 3.108,1.084 0.942,0 3.976,-0.225 5.798,-0.069 2.287,0.19 4.114,1.695 4.114,3.926 0,2.231 -1.545,3.447 -1.545,3.447 1.954,-0.605 2.764,-2.162 2.764,-2.162 1.041,4.024 -1.121,7.241 -3.098,8.555 -1.643,1.096 -6.574,2.226 -10.36,0.41 -4.189,-2.012 -5.775,-3.972 -5.775,-3.972 9.107,0.744 13.561,-1.787 13.561,-1.787 -8.229,0.479 -13.969,-1.608 -17.681,-3.24 -1.482,-2.363 -2.563,-4.946 -3.195,-7.753 l 0,0.005 c 6.81,5.142 12.849,6.024 12.849,6.024 -7.355,-3.995 -11.015,-8.468 -13.446,-12.929 0.127,-2.605 0.644,-5.041 1.495,-7.379 l 0.017,-0.04 c 2.729,7.284 5.729,9.453 5.729,9.453 -2.971,-6.775 -2.948,-11.626 -2.677,-15.281 1.138,-1.62 2.43,-3.055 3.907,-4.364 l 0.022,-0.026 c -1.148,6.503 0.23,10.729 0.23,10.729 0,-5.143 2.879,-11.262 5.171,-14.38 1.454,-0.729 2.856,-1.268 4.448,-1.715 l 0.005,0 c -2.091,2.638 -3.011,5.197 -3.011,5.197 4.293,-4.099 11.4,-6.56 12.48,-6.837 1.08,-0.265 4.189,-1.418 5.068,-1.616 0.805,-0.193 1.195,0.319 1.144,0.81 -0.068,0.637 -0.339,1.694 -0.339,1.694 2.384,0.583 3.419,1.759 3.419,1.759 -0.092,-0.317 -0.046,-0.859 -0.046,-0.859 3.287,2.934 4.183,4.332 4.275,6.992 0.092,2.664 1.258,3.07 1.931,3.43 0.678,0.361 2.344,1.314 2.879,1.764 0.401,0.34 0.229,0.721 0,0.992 -0.225,0.268 -0.225,0.36 -0.265,0.674 -0.202,1.383 -0.816,1.942 -1.667,2.254 -0.856,0.314 -1.804,-0.179 -1.804,-0.179 -0.942,1.038 -1.121,0.36 -1.167,-0.043 -0.04,-0.407 -0.54,-0.09 -0.896,0.043 -0.362,0.135 -0.495,-0.36 -0.495,-0.36 -1.711,-0.225 -2.459,0.79 -2.459,0.79 1.488,0.202 2.235,1.216 2.298,1.623 0.069,0.415 0.742,0.136 0.742,0.136 0,0 0.063,-0.136 0.339,-0.268 0.27,-0.136 0.339,-0.069 0.27,0.268 -0.068,0.337 -0.138,0.611 -0.138,0.611 l 0.747,0.476 c -0.275,1.83 -1.08,1.752 -1.488,1.553 -2.592,-1.3 -7.217,-1.553 -7.217,-1.553 0.27,-0.407 0.919,-0.928 0.919,-0.928 -11.871,0 -13.876,1.447 -14.485,2.211 -0.42,0.53 -0.058,1.352 -0.058,1.352 -1.414,0.271 -4.999,1.179 -6.373,2.443 -1.321,1.21 -1.763,4.053 -1.81,5.102 -0.01,0.216 0.203,0.21 0.295,0.083 z m 20.679,-30.687 c 0.133,-0.149 0,-0.271 -0.355,-0.042 -0.362,0.221 -1.948,1.178 -3.017,2.975 -0.132,0.227 -0.052,0.564 0.517,0.369 0.696,-0.245 1.414,-0.369 1.729,-0.415 0.317,-0.046 0.317,-0.268 0.093,-0.355 -0.225,-0.095 -0.276,-0.182 -0.179,-0.544 0.086,-0.363 0.719,-1.403 1.212,-1.988 z m -2.97,4.868 c -1.60427,1.30249 -3.9189,3.8488 -5.8007,6.69354 -0.86182,1.30283 -1.63286,2.66825 -2.2033,4.00546 -0.138,0.317 0,0.366 0.448,0.092 0.454,-0.273 1.758,-0.902 2.384,-1.084 0,0 -0.678,2.358 -0.902,3.658 -0.178,1.07 0.707,0.986 1.259,0.859 0.552,-0.124 2.838,-0.225 3.24,-0.274 0,0 -2.114,-0.499 -2.338,-1.357 -0.224,-0.853 0.379,-2.761 0.81,-4.056 0.092,-0.277 -0.046,-0.677 -0.494,-0.502 -0.454,0.179 -1.08,0.314 -1.396,0.502 0,0 1.982,-4.877 5.039,-8.399 l -0.046,-0.138 10.486,2.173 c -0.229,1.778 -0.879,1.62 -1.172,1.533 -0.315,-0.092 -0.402,-0.225 -1.351,-0.314 -0.299,-0.029 -1.684,-0.185 -0.942,0.4 1.189,0.954 2.2,2.891 2.2,2.891 0.138,-0.631 -0.184,-1.533 -0.355,-1.847 -0.178,-0.32 0.046,-0.407 0.264,-0.363 0.229,0.043 0.357,0.129 0.771,0.363 0.402,0.222 0.672,0.181 0.765,-0.363 0.074,-0.47 0.051,-1.43 -0.041,-2.297 -0.012,-0.063 -0.114,-0.095 -0.138,-0.003 l -10.487,-2.173 z"
       id="path23"
       inkscape:connector-curvature="0"
       style="fill:#61553f;fill-rule:evenodd"
       sodipodi:nodetypes="cccccsccccccccscsccccccccccccccccccccccccccccccccccccccccccccccccccccccccccccccccsccccccccccccccccccccccccc" /><path
       clip-rule="evenodd"
       d="m 58.03527,60.55646 c -1.058,-3.551 -3.976,-5.816 -5.597,-7.783 -0.661,-0.801 -1.638,-1.925 -1.638,-1.925 0.948,0.542 2.748,0.813 2.748,0.813 -0.495,-0.409 -1.622,-1.758 -2.07,-2.306 -1.252,-1.504 -3.424,-3.188 -5.038,-3.92 -3.172,-1.441 -6.476,-1.626 -6.924,-1.712 -0.454,-0.093 -1.396,0.086 -0.816,-0.819 0.586,-0.903 4.005,-3.563 4.005,-3.563 -0.718,0 -3.867,0.277 -4.815,0.406 -0.942,0.139 -1.161,-0.178 -1.212,-0.807 0,0 -1.896,1.79 -0.988,2.704 0.138,0.136 0.54,0.182 1.04,-0.043 0.489,-0.228 1.478,-0.545 1.839,-0.585 0,0 -0.811,1.261 -0.988,1.803 -0.179,0.542 -0.225,0.813 0.626,1.083 0.855,0.265 5.177,1.626 7.826,3.43 2.654,1.804 5.401,4.11 7.43,8.348 2.022,4.249 0.907,7.465 0.592,8.053 1.454,-0.928 2.774,-1.988 4.005,-3.193 l -0.025,0.016 0,0 z"
       id="path25"
       inkscape:connector-curvature="0"
       style="fill:#61553f;fill-rule:evenodd" /><path
       clip-rule="evenodd"
       d="m 63.95327,51.56246 c -2.602,-2.121 -7.17,-5.909 -12.744,-7.211 0,0 7.953,3.188 10.791,11.212 0.77,-1.273 1.413,-2.594 1.953,-4.001 l 0,0 z"
       id="path27"
       inkscape:connector-curvature="0"
       style="fill:#61553f;fill-rule:evenodd" /><path
       clip-rule="evenodd"
       d="m 48.34127,66.45946 c 0.851,-1.989 1.787,-6.716 0.799,-10.376 0,0 0.184,8.612 -5.706,11.456 1.655,-0.197 3.355,-0.566 4.896,-1.074 l 0.011,-0.006 0,0 z"
       id="path29"
       inkscape:connector-curvature="0"
       style="fill:#61553f;fill-rule:evenodd" /><path
       clip-rule="evenodd"
       d="m 65.62527,42.16146 c -0.764,-0.31 -5.471,-1.647 -5.471,-1.647 1.575,-0.086 2.207,-1.257 2.207,-1.257 -1.482,0.401 -3.735,0.583 -5.619,0.312 0,0 4.361,1.894 8.705,6.028 v -0.04 c 0.115,-0.997 0.184,-2.018 0.184,-3.062 0,-0.127 0,-0.196 -0.006,-0.334 l 0,0 z"
       id="path31"
       inkscape:connector-curvature="0"
       style="fill:#61553f;fill-rule:evenodd" /></g></svg>