<?xml version="1.0" encoding="UTF-8" standalone="no"?>
<!-- Created with Inkscape (http://www.inkscape.org/) -->

<svg
   xmlns:dc="http://purl.org/dc/elements/1.1/"
   xmlns:cc="http://creativecommons.org/ns#"
   xmlns:rdf="http://www.w3.org/1999/02/22-rdf-syntax-ns#"
   xmlns:svg="http://www.w3.org/2000/svg"
   xmlns="http://www.w3.org/2000/svg"
   version="1.1"
   width="275.2493"
   height="333.6936"
   id="svg2">
  <metadata
     id="metadata8">
    <rdf:RDF>
      <cc:Work
         rdf:about="">
        <dc:format>image/svg+xml</dc:format>
        <dc:type
           rdf:resource="http://purl.org/dc/dcmitype/StillImage" />
        <dc:title></dc:title>
      </cc:Work>
    </rdf:RDF>
  </metadata>
  <defs
     id="defs6" />
  <path
     d="m 143.92148,10 -9.46083,0.0625 0,112.1573 -6.79516,0 0,-66.74664 -9.7394,0 -0.61312,68.145 c 0,0 -74.076048,9.2591 -85.747864,88.18153 -3.584605,24.23837 -1.441519,50.3415 10.933219,72.68835 14.59305,26.35277 37.541524,30.71148 37.541524,30.71148 0,0 24.535251,-49.05921 32.041311,-75.27654 8.08674,-28.24556 13.63035,-87.08087 13.63035,-87.08087 l -13.65625,2.3009 c -6.65864,19.96567 -7.00177,34.47172 -16.58088,70.78304 -8.126101,30.80343 -25.442237,49.55129 -25.442237,49.55129 0,0 -36.760687,-28.58004 -16.821489,-76.32106 17.74367,-42.4842 52.170566,-52.27727 85.739296,-52.8536 34.3006,-0.5889 65.69871,8.00645 80.85403,47.25429 16.2879,42.18091 -15.15026,81.92037 -15.15026,81.92037 0,0 -17.67249,-34.72476 -24.08733,-53.05814 -7.63819,-21.82965 -16.96447,-67.27619 -16.96447,-67.27619 l -12.05265,-2.3009 c 0,0 6.89817,58.60253 14.25535,87.08087 6.67879,25.85242 26.96767,75.42765 26.96767,75.42765 C 252.31562,279.87459 244.96065,215.5 244.96065,215.5 c -3.45363,-78.25108 -83.299,-91.88184 -83.299,-91.88184 l 0,-68.145 c 0,0 1.31087,0.186523 -9.81943,0 0.22879,0.723389 0,67.36657 0,67.36657 l -7.92074,0 c 0.72851,-111.996639 0,-112.83973 0,-112.83973 z m 1.58669,142.84211 -13.15473,0 c 0,0 -2.13099,55.3523 -6.37747,82.65895 -4.45654,28.65743 -19.96652,84.68366 -19.96652,84.68366 0,0 22.29237,3.60659 33.52933,3.50685 23.70811,-0.21043 33.96767,-4.82192 33.96767,-4.82192 0,0 -19.13192,-54.85281 -23.86215,-83.36859 -4.51454,-27.21556 -4.13613,-82.65896 -4.13613,-82.65895 z"
     id="path3019"
     style="fill:#003366" />
</svg>
