<?xml version="1.0" encoding="UTF-8" standalone="no"?>
<!-- Created with Inkscape (http://www.inkscape.org/) -->

<svg
   xmlns:dc="http://purl.org/dc/elements/1.1/"
   xmlns:cc="http://creativecommons.org/ns#"
   xmlns:rdf="http://www.w3.org/1999/02/22-rdf-syntax-ns#"
   xmlns:svg="http://www.w3.org/2000/svg"
   xmlns="http://www.w3.org/2000/svg"
   xmlns:sodipodi="http://sodipodi.sourceforge.net/DTD/sodipodi-0.dtd"
   xmlns:inkscape="http://www.inkscape.org/namespaces/inkscape"
   width="167.14285"
   height="167.14285"
   id="svg2993"
   version="1.1"
   inkscape:version="0.48.5 r10040"
   sodipodi:docname="open.svg">
  <defs
     id="defs2995" />
  <sodipodi:namedview
     id="base"
     pagecolor="#ffffff"
     bordercolor="#666666"
     borderopacity="1.0"
     inkscape:pageopacity="0.0"
     inkscape:pageshadow="2"
     inkscape:zoom="1.4"
     inkscape:cx="-77.615951"
     inkscape:cy="197.13692"
     inkscape:document-units="px"
     inkscape:current-layer="layer1"
     showgrid="false"
     inkscape:window-width="1920"
     inkscape:window-height="1015"
     inkscape:window-x="-2"
     inkscape:window-y="-3"
     inkscape:window-maximized="1"
     fit-margin-top="0"
     fit-margin-left="0"
     fit-margin-right="0"
     fit-margin-bottom="0" />
  <metadata
     id="metadata2998">
    <rdf:RDF>
      <cc:Work
         rdf:about="">
        <dc:format>image/svg+xml</dc:format>
        <dc:type
           rdf:resource="http://purl.org/dc/dcmitype/StillImage" />
        <dc:title></dc:title>
      </cc:Work>
    </rdf:RDF>
  </metadata>
  <g
     inkscape:label="Layer 1"
     inkscape:groupmode="layer"
     id="layer1"
     transform="translate(-346.07142,-444.03823)">
    <path
       sodipodi:type="arc"
       style="fill:#00bbe3;fill-opacity:1;stroke:#000000;stroke-width:0;stroke-linecap:butt;stroke-miterlimit:4;stroke-opacity:1;stroke-dasharray:none;stroke-dashoffset:0"
       id="path3029"
       sodipodi:cx="455.71429"
       sodipodi:cy="368.07648"
       sodipodi:rx="83.571426"
       sodipodi:ry="83.571426"
       d="m 539.28572,368.07648 c 0,46.15522 -37.4162,83.57142 -83.57143,83.57142 -46.15522,0 -83.57142,-37.4162 -83.57142,-83.57142 0,-46.15523 37.4162,-83.57143 83.57142,-83.57143 46.15523,0 83.57143,37.4162 83.57143,83.57143 z"
       transform="translate(-26.071449,159.53318)" />
    <g
       id="g3049"
       transform="translate(0,1.8380168)"
       style="fill:#ffffff">
      <path
         id="path10"
         d="m 399.29426,478.69818 c -16.625,9.5 -25.375,28.625 -23.875,52.5 1.25,19 9.375,33.75 23.375,42.125 7.875,4.875 13,5.25 15,1.5 2.25,-4 0.5,-7.75 -5.125,-11.125 -3.125,-1.875 -6.5,-5.5 -8.75,-9.375 -3.625,-6.25 -3.625,-6.25 -3.625,-28.125 0.125,-20.25 0.25,-22.25 2.875,-27.5 1.875,-3.625 4.875,-6.875 8.75,-9.375 6.25,-4.125 8.125,-7.625 5.875,-11.75 -1.875,-3.75 -6.875,-3.375 -14.5,1.125 z"
         inkscape:connector-curvature="0"
         style="fill:#ffffff" />
      <path
         id="path10-2"
         d="m 459.99143,477.87927 c 16.625,9.5 25.375,28.625 23.875,52.5 -1.25,19 -9.375,33.75 -23.375,42.125 -7.875,4.875 -13,5.25 -15,1.5 -2.25,-4 -0.5,-7.75 5.125,-11.125 3.125,-1.875 6.5,-5.5 8.75,-9.375 3.625,-6.25 3.625,-6.25 3.625,-28.125 -0.125,-20.25 -0.25,-22.25 -2.875,-27.5 -1.875,-3.625 -4.875,-6.875 -8.75,-9.375 -6.25,-4.125 -8.125,-7.625 -5.875,-11.75 1.875,-3.75 6.875,-3.375 14.5,1.125 z"
         inkscape:connector-curvature="0"
         style="fill:#ffffff" />
    </g>
  </g>
</svg>
