<?xml version="1.0" encoding="UTF-8" standalone="no"?>
<!-- Created with Inkscape (http://www.inkscape.org/) -->

<svg
   xmlns:dc="http://purl.org/dc/elements/1.1/"
   xmlns:cc="http://creativecommons.org/ns#"
   xmlns:rdf="http://www.w3.org/1999/02/22-rdf-syntax-ns#"
   xmlns:svg="http://www.w3.org/2000/svg"
   xmlns="http://www.w3.org/2000/svg"
   version="1.1"
   width="217.12961"
   height="168.15439"
   id="svg2">
  <metadata
     id="metadata8">
    <rdf:RDF>
      <cc:Work
         rdf:about="">
        <dc:format>image/svg+xml</dc:format>
        <dc:type
           rdf:resource="http://purl.org/dc/dcmitype/StillImage" />
        <dc:title></dc:title>
      </cc:Work>
    </rdf:RDF>
  </metadata>
  <defs
     id="defs6" />
  <g
     transform="translate(119.4947,-35.42903)"
     id="g3019">
    <path
       d="m -80.71875,65.4375 0,0.03125 c -9.58239,9.532282 -19.18233,19.04687 -28.78125,28.5625 25.38322,27.68494 52.43102,53.56293 73.46875,74.59375 22.84272,-22.8552 68.5625,-68.96875 68.5625,-68.96875 l 40.46875,0 c 14.445155,0 14.625,0.182294 14.625,-16.4375 l 0,-15.59375 c -23.5,0.02083 -47.09375,-0.02083 -70.59375,0 -16.68214,15.033151 -48.5625,46.9375 -48.5625,46.9375 0,0 -0.3175,0.002 -24.78125,-24.5 -1.93443,-1.937487 -0.81631,-6.221636 0.96875,-8.15625 1.30291,-1.412069 4.11747,-3.517191 6.09375,-4.9375 2.09336,-1.504453 3.48974,-2.197736 5.9375,-2.375 2.30033,-0.166587 2.91001,0.70494 4.5,2.1875 L -36.5,78.9375 -35.4375,76.75 c 0.19773,-0.41242 0.33866,-0.701961 0.625,-2.8125 0.17389,-1.281687 -0.24105,-2.599337 -0.59375,-3.84375 -0.26941,-0.950553 -1.33976,-2.648829 -2.1875,-3.15625 -1.78579,-1.068903 -2.418748,-1.501584 -4.5,-1.5 l -38.625,0 z m 117.0625,41.65625 c -22.66667,22.58334 -45.64583,43.91667 -68.3125,66.5 l 49,0 C 28.36562,162.27186 51,139.65625 51,139.65625 l 22,0 c 14.763249,0 14.625,-0.005 14.625,-17.5625 l 0,-15 -51.28125,0 z"
       id="path3057"
       style="fill:#a82a3d" />
    <path
       d="m -80.71345,65.458415 c -9.58239,9.532282 -19.18233,19.04687 -28.78125,28.5625 25.38322,27.684945 52.43102,53.562935 73.46875,74.593755 22.84272,-22.8552 68.5625,-68.947963 68.5625,-68.947963 l 40.479075,0 c 14.445155,0 14.614325,0.171837 14.614325,-16.447957 l 0,-15.604085 c -23.5,0.02083 -47.09341,-0.02083 -70.59341,0 -16.68214,15.033151 -48.5625,46.937505 -48.5625,46.937505 0,0 -0.3175,0.002 -24.78125,-24.500005 -1.93443,-1.937487 -0.81631,-6.221636 0.96875,-8.15625 1.30291,-1.412069 4.11747,-3.517191 6.09375,-4.9375 2.09336,-1.504453 3.48974,-2.197736 5.9375,-2.375 2.30033,-0.166587 2.91001,0.70494 4.5,2.1875 0.77083,0.71875 2.3125,2.15625 2.3125,2.15625 0,0 0.69973,-1.45946 1.04959,-2.189192 0.19773,-0.41242 0.35157,-0.700269 0.63791,-2.810808 0.17389,-1.281687 -0.25565,-2.599337 -0.60835,-3.84375 -0.26941,-0.950553 -1.33976,-2.63218 -2.1875,-3.139601 -1.78579,-1.068903 -2.416698,-1.516364 -4.49795,-1.51478 l -38.61245,0 z M 36.358878,107.10406 c -22.66667,22.58334 -45.655658,43.89603 -68.322328,66.47936 16.33333,0 32.66667,0 49,0 11.33437,-11.32189 33.96875,-33.91671 33.96875,-33.91671 l 22.010325,0 c 14.763249,0 14.619235,-0.0253 14.619235,-17.58329 l 0,-14.97936 z"
       id="path3051"
       style="fill:#a82a3d" />
  </g>
</svg>
