<?xml version="1.0" encoding="UTF-8" standalone="no"?>
<!-- Created with Inkscape (http://www.inkscape.org/) -->

<svg
   xmlns:dc="http://purl.org/dc/elements/1.1/"
   xmlns:cc="http://creativecommons.org/ns#"
   xmlns:rdf="http://www.w3.org/1999/02/22-rdf-syntax-ns#"
   xmlns:svg="http://www.w3.org/2000/svg"
   xmlns="http://www.w3.org/2000/svg"
   xmlns:sodipodi="http://sodipodi.sourceforge.net/DTD/sodipodi-0.dtd"
   xmlns:inkscape="http://www.inkscape.org/namespaces/inkscape"
   version="1.0"
   width="56.947563"
   height="56.515324"
   viewBox="0 0 130.74478 124.90164"
   id="svg2"
   xml:space="preserve"
   sodipodi:version="0.32"
   inkscape:version="0.48.4 r9939"
   sodipodi:docname="7491.svg"
   inkscape:output_extension="org.inkscape.output.svg.inkscape"><metadata
     id="metadata14"><rdf:RDF><cc:Work
         rdf:about=""><dc:format>image/svg+xml</dc:format><dc:type
           rdf:resource="http://purl.org/dc/dcmitype/StillImage" /></cc:Work></rdf:RDF></metadata><sodipodi:namedview
     inkscape:window-height="573"
     inkscape:window-width="744"
     inkscape:pageshadow="2"
     inkscape:pageopacity="0.0"
     guidetolerance="10.0"
     gridtolerance="10.0"
     objecttolerance="10.0"
     borderopacity="1.0"
     bordercolor="#666666"
     pagecolor="#ffffff"
     id="base"
     height="52.94px"
     width="239.12398px"
     inkscape:zoom="2.2384804"
     inkscape:cx="-65.672193"
     inkscape:cy="21.933785"
     inkscape:window-x="88"
     inkscape:window-y="116"
     inkscape:current-layer="svg2"
     showgrid="false"
     fit-margin-top="9"
     fit-margin-left="4"
     fit-margin-right="4"
     fit-margin-bottom="9"
     inkscape:window-maximized="0" /><defs
     id="defs4" /><path
     d="M 25.566001,57.299932 C 22.001571,44.341082 16.218181,33.409837 9.1845106,25.858604 56.684101,14.98586 90.330511,16.586134 95.022281,29.672889 c 8.054899,22.466306 -35.77317,64.39667 -74.71914,76.904391 8.02518,-10.272891 10.93918,-28.638369 5.26286,-49.277348 l 0,0 z m 73.70881,-8.694428 c 4.662009,-9.607596 5.709019,-18.190977 3.138079,-25.490369 -0.65635,-1.860046 -1.58838,-3.481142 -2.726619,-4.963429 13.148229,1.871945 24.844909,21.424244 21.200169,43.551458 -2.79602,16.975404 -9.31114,31.816116 -16.45686,40.628536 -9.142569,-4.521221 -28.384539,-5.615838 -49.949569,-2.12974 -4.88412,0.78923 -8.76781,1.57549 -13.19482,2.6939 24.64859,-12.971746 48.53371,-34.805478 57.98962,-54.290356 l 0,0 z"
     style="fill:#ffffff"
     id="path18"
     inkscape:connector-curvature="0" /><path
     d="m 25.566001,57.299932 c 5.67632,20.638979 2.76132,39.004457 -5.26383,49.278338 C 59.248111,94.070551 103.07619,52.139195 95.021281,29.67388 90.329521,16.587126 56.683121,14.986851 9.1835206,25.859596 16.219161,33.409837 22.002561,44.341082 25.566001,57.299932 l 0,0 z"
     style="fill:#0065a4"
     id="path20"
     inkscape:connector-curvature="0" /><path
     d="m 99.274811,48.605504 c 4.662009,-9.607596 5.709019,-18.190977 3.138079,-25.490369 -0.65635,-1.860046 -1.58838,-3.481142 -2.726619,-4.963429 13.148229,1.871945 24.844909,21.424244 21.200169,43.551458 -2.79602,16.975404 -9.31114,31.816116 -16.45686,40.628536 -9.142569,-4.521221 -28.384539,-5.615838 -49.949569,-2.12974 -4.88412,0.78923 -8.76781,1.57549 -13.19482,2.6939 24.64859,-12.971746 48.53371,-34.805478 57.98962,-54.290356 l 0,0 z"
     style="fill:#0065a4"
     id="path22"
     inkscape:connector-curvature="0" /></svg>