<?xml version="1.0" encoding="UTF-8" standalone="no"?>
<!-- Created with Inkscape (http://www.inkscape.org/) -->

<svg
   xmlns:dc="http://purl.org/dc/elements/1.1/"
   xmlns:cc="http://creativecommons.org/ns#"
   xmlns:rdf="http://www.w3.org/1999/02/22-rdf-syntax-ns#"
   xmlns:svg="http://www.w3.org/2000/svg"
   xmlns="http://www.w3.org/2000/svg"
   xmlns:sodipodi="http://sodipodi.sourceforge.net/DTD/sodipodi-0.dtd"
   xmlns:inkscape="http://www.inkscape.org/namespaces/inkscape"
   id="svg2"
   height="436.66788"
   width="437.58533"
   version="1.0"
   inkscape:version="0.48.4 r9939"
   sodipodi:docname="8548.svg">
  <defs
     id="defs10" />
  <sodipodi:namedview
     pagecolor="#ffffff"
     bordercolor="#666666"
     borderopacity="1"
     objecttolerance="10"
     gridtolerance="10"
     guidetolerance="10"
     inkscape:pageopacity="0"
     inkscape:pageshadow="2"
     inkscape:window-width="1855"
     inkscape:window-height="1056"
     id="namedview8"
     showgrid="false"
     fit-margin-left="20"
     fit-margin-right="20"
     fit-margin-top="90"
     fit-margin-bottom="90"
     inkscape:zoom="0.73444341"
     inkscape:cx="218.87875"
     inkscape:cy="218.34186"
     inkscape:window-x="65"
     inkscape:window-y="24"
     inkscape:window-maximized="1"
     inkscape:current-layer="svg2" />
  <metadata
     id="metadata13">
    <rdf:RDF>
      <cc:Work
         rdf:about="">
        <dc:format>image/svg+xml</dc:format>
        <dc:type
           rdf:resource="http://purl.org/dc/dcmitype/StillImage" />
      </cc:Work>
    </rdf:RDF>
  </metadata>
  <g
     id="g2436"
     transform="matrix(1.4776,0,0,1.4776,-599.80123,37.746035)">
    <path
       id="path422"
       d="m 425.99,209.07 h 196.84 l 8.775,-14.865 5.42,-29.785 -10.38,-32.28 -13.745,-19.86 -7.005,-2.26 -5.655,2.48 -2.25,9.03 -27.105,4.06 -14.205,-10.605 -12.65,-31.605 -7.665,-21.9 -1.59,-9.02 -3.61,-4.295 -19.645,-3.16 -11.955,5.865 -14.45,-5.865 -12.64,-0.44999 -4.73,7.905 -2.94,5.64 -4.065,10.16 -3.38,14.67 2.48,23.475 1.365,17.385 -0.915,10.15 4.29,16.705 -4.515,13.54 -6.995,17.84 -4.52,2.26 -6.545,-2.94 -6.995,3.84 -7.45,2.935 -4.515,6.77 0.67498,10.38 2.265,3.8 z"
       inkscape:connector-curvature="0"
       style="fill:#ffffff" />
    <path
       id="path426"
       d="m 630.62,75.487 -5.39,-4.75 -13.9,-3.055 -0.63999,-5.09 9.505,-2.715 5.98,4.745 5.385,1.02 2.84,0.33499 8.865,11.2 -12.645,-1.69 z"
       inkscape:connector-curvature="0"
       style="fill:#ffffff" />
    <path
       id="path430"
       d="m 514.96,101.86 v -2.72 h -4.985 l -0.44499,0.90002 5.43,1.82 z m -25.335,-2.72 c -1.355,-1.355 -3.155,0 -5.42,-0.45499 0,0.45499 -0.44999,1.815 0.89998,2.71 1.815,-1.355 4.055,-2.255 4.52,-2.255 m 31.205,-25.785 c 0,0 0.89998,0 0,-0.45499 l -10.405,-0.90503 c -1.355,0.90503 -3.165,0.90503 -3.615,2.27 l -0.90499,0.44999 c 0.90499,3.625 0.90499,7.69 0.90499,11.755 1.81,0.455 4.065,1.815 4.065,4.53 1.815,0.90503 4.085,1.35 5.43,2.71 0.90499,-0.44999 1.81,-1.805 2.26,-3.16 -2.26,-2.265 -6.335,-0.90498 -6.335,-4.975 l -2.7,-1.355 c 0,-2.73 0,-5.435 -0.91003,-7.245 l 0.91003,-0.90499 c 0,0.90499 0.44499,1.355 1.345,2.27 1.815,0 4.085,0.44499 5.43,-0.91499 0.90499,-0.44999 0.90499,-2.71 2.26,-2.71 0.455,0 1.81,0 2.265,-1.36 m -27.585,0.90999 c 0,-0.90999 -0.90499,-1.815 -2.265,-2.27 h -10.395 -0.90999 c 0,1.36 1.36,2.72 2.715,2.72 0,1.355 1.365,2.26 2.265,2.71 0.90002,0.91499 1.815,0.91499 3.165,0 1.34,0.91499 1.805,-1.355 2.26,0 0,2.715 0,4.065 -0.45499,6.335 -0.46501,3.165 -3.615,2.71 -5.42,4.525 -0.44999,0.89497 -1.815,3.62 -0.44999,4.975 1.35,-0.91 2.715,-1.355 4.515,-2.26 0,-1.355 1.81,-2.715 3.61,-4.075 0,-4.07 1.365,-8.14 1.365,-12.66 m 4.07,-10.855 c -1.35,-0.915 -4.07,0.44498 -5.435,1.355 -1.8,0.45 -3.61,1.8 -3.61,3.165 h 5.425 c 0.90002,-1.365 2.27,-3.165 3.62,-4.52 m 15.825,4.52 c 0,-1.365 -0.44999,-1.365 -0.90999,-1.805 -2.255,0 -2.255,-3.63 -4.06,-2.715 -1.36,0 -2.265,-0.915 -3.16,0 -0.46,0.44498 0,0.44498 0.44999,0.44498 2.71,0 1.35,3.62 3.16,4.075 h 4.52 z m 15.825,-2.715 c 0.915,-2.72 1.37,-6.785 -0.45003,-9.495 -1.355,-1.355 -3.62,-2.715 -5.88,-4.075 l -3.615,1.36 c -1.81,1.36 -2.715,2.715 -2.715,5.425 3.17,1.36 6.79,4.98 8.14,8.135 h 1.355 c 1.36,-1.35 2.715,0 3.165,-1.35 m -42.045,-6.785 c -0.44999,-4.525 -5.885,-5.425 -8.59,-6.785 h -1.36 c -4.07,0.90503 -4.98,4.97 -5.43,8.145 1.36,4.065 4.07,1.35 6.325,4.065 1.81,-1.36 6.79,-4.52 9.055,-5.425 m -55.62,138.41 c -0.455,0 -1.815,-1.36 -3.16,-1.36 -1.37,2.71 0,4.98 0,8.135 0,0.91499 -0.455,2.735 -0.455,2.735 -0.91499,0 -2.72,-2.28 -3.62,-3.63 v -7.685 l 4.515,-5.435 c 2.72,1.805 3.62,4.525 2.72,7.24 m 12.66,-5.435 c 0,2.255 -0.44999,4.075 -1.81,5.435 -0.44999,-1.805 -1.805,-4.075 -4.07,-4.075 -1.805,3.61 -2.265,4.965 -0.455,10.85 -1.35,0.91499 -2.715,1.375 -4.075,2.735 -0.89501,-2.28 -1.35,-5.445 -1.35,-7.25 0,-3.165 0.89502,-6.335 1.8,-9.0499 0.90999,-1.795 2.275,-4.065 3.625,-5.435 l 4.98,-0.44002 c -1.81,0.44002 -1.81,2.72 -1.81,4.08 0.90503,0.43998 3.165,0.88497 3.165,3.15 m 16.275,2.72 c 0,4.065 -5.88,9.49 -5.88,9.49 0,-2.71 0.90999,-5.425 1.36,-8.135 0,0 -1.81,-1.82 -4.07,-1.82 -1.355,0.46501 -1.355,1.82 -1.805,3.18 -1.36,2.715 -4.075,5.41 -4.97,8.15 -0.44498,0 -0.44498,-0.46 -0.44498,-0.46 0,-4.07 0.44498,-12.675 3.605,-15.835 2.72,-2.71 4.065,-2.71 6.78,-3.17 l 2.72,0.46 -1.815,2.71 c 1.815,0.90499 4.52,2.71 4.52,5.43 m 76.425,1.355 -1.35,1.36 c -1.36,-1.36 -0.465,-5.435 -2.72,-5.89 -2.255,0 -4.075,-2.255 -4.975,-2.695 l 1.35,-0.91499 c 0,0 1.37,-0.44503 2.265,0 0.90999,0.91499 1.81,1.355 1.81,2.71 0.90999,0.89998 2.27,0 3.165,0.89998 0.455,1.36 0.90499,3.175 0.455,4.53 m 16.285,-6.785 c -0.46001,1.355 -0.91,3.615 -1.365,5.43 -1.35,-2.72 -2.26,-6.785 -5.425,-6.785 -0.44999,-1.815 -0.89998,-3.165 -2.715,-4.08 l -4.065,-0.44999 c 0.44999,1.365 3.165,1.805 1.815,4.53 1.35,1.355 3.155,1.355 4.065,3.61 0.89998,1.36 0,3.175 0.44999,4.53 l -3.165,1.36 c 0,-2.715 0.89998,-6.79 -2.715,-8.145 -2.715,0.90499 -3.165,-2.71 -4.98,-4.08 -0.89498,-0.44002 -0.89498,-2.71 -2.255,-1.355 -2.255,1.355 -5.43,0 -7.695,1.355 l 2.265,-4.065 c 1.805,-1.355 4.07,-0.45499 5.88,-1.355 l 3.62,-0.455 c 4.075,0 7.235,1.81 10.86,3.165 1.8,1.355 2.71,2.71 2.71,4.99 1.35,0.44503 3.17,0.44503 2.715,1.8 m 73.235,-0.43998 c -0.90499,1.345 -1.32,1.795 -1.79,2.695 0,-2.255 -2.72,-3.61 -4.51,-7.69 l 1.79,-3.165 c 1.825,0.45499 3.19,1.81 3.19,4.08 0,0.44002 -0.46997,1.81 0,2.72 0,0.44503 1.32,0.44503 1.32,1.36 m -152.83,1.345 -1.36,4.525 -3.16,-8.14 c -4.07,-4.08 -8.135,-4.53 -10.855,-5.89 -1.355,-0.89998 -1.355,0.45499 -2.71,0 0,-1.355 0.44999,-2.71 1.81,-4.065 h 2.71 l 2.71,1.355 c 1.81,1.355 4.975,1.355 4.975,4.07 0,0.90999 -0.44498,1.355 0.46,2.72 l 4.97,1.81 0.44999,3.615 z m 138.37,-4.985 c 0,0.46 -0.90002,1.37 -0.90002,1.37 -2.25,-1.37 -4.06,-2.26 -6.785,-2.26 0,-1.36 -0.90002,-3.63 -1.805,-3.63 -3.165,0 -2.72,1.36 -4.97,1.36 l 4.075,-4.07 c 0.43497,-0.89998 0.89497,-0.89998 1.8,-0.89998 1.35,0.89998 1.8,1.355 3.165,1.355 0,0.90002 0,1.355 -0.44002,2.71 0.89998,0.90503 2.25,0 3.15,0.90503 1.36,0.44999 2.71,1.355 2.71,3.16 m -53.36,2.725 h -0.44498 c -0.90999,-1.355 -1.35,-2.725 -2.265,-2.725 1.355,-5.42 -1.355,-9.495 -2.255,-14.02 l -0.45499,-1.345 c 1.795,2.255 5.42,4.515 4.975,7.235 0.44498,4.065 0.90499,7.69 0.44498,10.855 m -77.78,-4.53 -3.165,3.175 c -0.89501,-1.37 0,-4.08 -1.81,-5.435 0,-0.45499 1.36,-1.355 0.915,-1.81 -0.915,-0.90002 -6.335,-2.71 -6.335,-2.71 -2.26,-1.36 -4.075,-2.72 -5.885,-4.975 -2.255,-0.46 -3.61,0.90999 -5.88,1.355 -0.44999,-0.44502 -0.44999,-1.355 -0.44999,-1.355 1.365,-1.365 1.365,-4.065 4.075,-4.065 1.355,0 3.165,0 4.515,1.345 1.815,0 2.725,1.82 4.065,2.26 2.27,2.715 4.08,3.17 5.895,4.525 -0.46501,1.365 0.44502,2.265 1.34,2.72 2.72,0 1.81,2.71 2.72,4.97 m 148.78,-7.235 c 0,2.72 0,3.62 -1.355,5.88 l -3.155,-4.07 c 1.32,-1.355 1.32,-3.62 2.7,-5.42 0.455,0 1.81,3.155 1.81,3.61 m -80.495,3.165 c -2.26,-1.355 -4.98,-1.355 -6.335,-3.62 -1.35,-0.45003 -3.165,-0.45003 -5.43,-0.45003 -1.8,0.45003 -4.07,0.45003 -5.88,0.45003 -0.44999,0 0,-0.45003 -0.89498,-1.355 -2.72,1.355 -5.89,1.355 -8.605,4.075 l 2.265,-5.43 c 1.805,0 3.165,-1.355 4.52,-1.355 1.365,-0.46 3.17,-0.46 4.525,-0.46 v 0.46 c 5.435,0 11.305,-0.46 15.38,4.065 l 0.45499,3.62 z m 67.84,-4.07 c 0,1.815 -0.44999,2.255 -0.90002,4.525 -3.635,-0.455 -3.165,-4.075 -4.09,-4.525 -1.81,-2.705 -5.42,-0.90499 -8.135,-0.90499 -0.45003,-2.71 0.89998,-2.71 0.89998,-4.075 1.375,0 2.725,-1.355 4.085,-0.44002 2.25,-0.915 3.605,1.345 5.875,1.345 0.90002,1.37 1.815,3.17 2.265,4.075 m -133.87,-6.78 c 0,1.36 -0.45499,7.23 -0.45499,7.23 -0.90503,-3.615 -3.165,-6.785 -5.865,-6.785 -1.815,-1.345 -3.175,-2.71 -3.625,-4.065 -1.36,-1.355 -2.71,-0.455 -4.52,-1.355 -1.815,0 -4.075,0 -6.33,0.90002 v -0.90002 l 3.165,-4.08 c 3.615,0.90502 7.685,0 9.045,2.715 1.8,1.365 4.07,2.265 4.965,3.61 v 1.37 c 0.90999,0.46 2.72,0.90999 3.62,1.36 m 19.9,-0.89998 c -1.815,1.345 -3.625,1.345 -5.43,0.89998 l -2.72,-4.075 c 1.805,0.455 4.525,0.455 6.795,0 l 1.355,3.175 z m 79.155,2.26 c 0,2.255 -3.185,5.42 -4.07,7.235 0.885,-2.72 1.345,-7.235 0,-7.235 -0.915,-0.46 -2.74,0.44002 -2.74,-0.915 0,-1.345 0.46,-3.175 0.46,-4.52 0,-1.35 -1.355,-2.265 -1.355,-3.61 0,-2.725 3.165,-3.175 4.075,-4.985 0.90498,1.81 0.44498,4.07 0.44498,5.88 0.46,1.365 1.355,4.06 0.46,6.34 0,1.35 2.725,0.44999 2.725,1.81 m -34.38,0 c -2.265,0 -4.08,0 -5.43,-2.26 -0.46,0 -1.355,-1.365 -2.265,-0.46 -1.805,1.805 -4.515,-1.37 -7.235,-0.90503 -1.36,1.365 -3.175,2.265 -4.975,2.71 l -0.45499,-0.44498 c 0,-1.36 1.355,-2.73 2.72,-4.075 3.16,1.345 5.43,-4.98 8.5949,-1.35 0.90002,0.44999 2.715,0.44999 3.615,0.44999 3.165,0.90002 4.065,4.075 5.43,6.335 m -32.115,-2.72 h -0.44502 c -0.915,0 -4.085,-1.37 -4.985,-2.715 -0.44499,-0.90002 -0.44499,-2.265 -0.44499,-2.265 1.345,0 2.26,-0.44999 3.61,-0.44999 l 2.265,5.43 z m 102.66,2.72 c -3.17,0 -1.35,-6.335 -8.15,-6.335 -1.8,0 -2.7,2.245 -4.51,2.71 0,-0.46496 0.46,-3.16 0.46,-3.16 0,-1.365 0.44002,-2.725 2.25,-4.075 3.61,0 2.71,1.35 5.425,2.255 1.81,0.45499 2.725,1.82 4.525,1.82 v 6.785 z m -47.49,-4.98 c 0,2.72 -1.35,5.42 -1.815,8.14 0,-3.16 -0.89001,-5.42 -2.705,-7.25 0,-0.89001 1.355,-1.345 0.455,-2.245 0,0 -2.715,-1.365 -2.715,-3.175 0,-2.26 1.81,-3.625 2.715,-4.985 0,-0.43998 1.8,0.92501 1.8,3.635 0,0.89998 0,1.815 -0.44002,3.16 -0.46,1.365 2.705,1.365 2.705,2.72 m 22.165,-9.05 c 0,1.81 -0.90999,3.17 -0.44498,4.985 -1.365,-2.725 -2.74,-5.45 -4.08,-8.15 -0.45499,0 -0.89497,0 -0.89497,-0.44999 l 1.33,-0.90503 c 0.90498,0 2.28,0 2.28,0.90503 0.90002,0.90999 1.81,2.255 1.81,3.615 m 27.585,3.615 c -1.375,-0.44499 -4.51,-0.91 -4.51,-2.255 0,-1.825 -0.91996,-2.265 -3.165,-2.265 -2.275,0 -3.635,0.43998 -6.345,1.365 0,0 -1.365,-1.82 -1.815,-3.625 0.915,-0.44999 4.525,-1.82 6.335,-1.82 3.185,0 6.78,0 6.78,1.82 0,1.355 2.72,2.26 2.72,6.78 m -118.49,-9.49 c -0.43998,2.71 -1.8,3.61 -4.065,6.77 -1.8,0.915 -4.52,1.365 -7.235,2.72 0.45003,-1.355 1.81,-1.805 2.715,-3.155 1.35,-1.365 2.72,-3.625 3.155,-5.445 2.28,-0.89001 3.63,-0.89001 5.43,-0.89001 m 84.135,6.335 c 0,2.71 -0.46497,6.335 -0.46497,9.48 -1.35,0 -1.35,-1.345 -1.35,-2.695 -0.90002,-2.725 -1.355,-5.435 -2.25,-8.15 -1.37,-4.08 -3.63,-7.23 -5.435,-11.315 -0.45499,-2.255 -2.73,-3.165 -4.525,-4.52 2.255,0 4.525,0.45003 6.33,1.815 0,1.355 0.44498,1.81 1.8,3.17 3.18,0 2.725,4.06 5.43,6.33 0,0.44002 -0.89001,0.44002 -1.35,1.365 -0.90002,0 -1.355,1.795 -1.355,1.795 1.355,0.90503 2.705,1.36 3.17,2.725 m -92.72,-10.41 c -1.365,2.72 -2.715,5.43 -5.425,6.785 -1.81,0 -4.065,0.89998 -6.785,0 1.355,-1.355 2.72,-1.82 4.52,-2.71 l 4.07,-4.075 h 3.62 z m 27.13,6.785 c -1.355,0.89998 -4.07,1.355 -5.415,1.355 -3.63,-1.805 -3.63,-5.42 -6.79,-6.78 -0.46,-0.46 -0.90999,-1.36 -0.90999,-1.81 l 7.7,1.35 c -0.46001,1.355 0.44502,1.82 1.345,1.82 1.36,1.355 2.715,2.71 4.07,4.065 m 53.36,0 c -0.44002,0.89998 -1.355,1.355 -1.795,1.355 0,0 -2.27,-2.25 -2.715,-4.065 -0.465,-2.26 0.89999,-5.43 0.89999,-5.43 0.45003,0 0.90002,0.90499 1.815,0.90499 0.43998,0.45003 0,1.81 0.43998,3.17 0.915,1.355 2.27,2.71 1.355,4.065 m -93.15,-8.14 -2.255,6.785 c -2.27,2.255 -5.43,1.355 -8.14,1.355 4.07,-1.355 6.78,-5.425 8.14,-8.14 0.89502,-0.44999 1.345,0 2.255,0 m 56.075,5.43 h -1.35 c -5.43,1.355 -9.51,-1.82 -13.58,-4.525 2.715,-0.90499 4.98,-0.90499 6.785,-1.355 h 1.365 l 1.805,2.705 c 1.355,0.46 3.625,1.82 4.975,3.175 m 87.73,-0.455 c -3.145,0 -6.325,-1.365 -6.785,-2.72 -0.89001,-0.89998 -0.44002,-2.705 -2.255,-2.705 -1.34,0 -2.255,1.355 -2.255,1.355 -1.37,0.45003 -4.08,-1.355 -4.08,0 0,2.265 -2.25,3.17 -4.075,3.17 -1.35,0 -1.8,0 -3.165,-0.46496 v -4.525 c 6.34,0 5.885,-2.255 8.6,-2.255 1.805,0 3.165,1.36 4.975,1.36 2.255,0 0.915,-0.90002 3.17,-0.90002 2.275,0 3.15,1.795 4.975,2.26 0,1.355 0.89502,3.165 0.89502,5.425 m -150.16,-10.87 c 0,1.805 -1.36,4.525 -3.63,6.79 -0.44002,0.45003 -1.8,1.35 -1.8,1.35 0,-2.705 1.36,-5.425 1.36,-7.69 1.35,-0.44999 2.71,-1.36 4.07,-0.44999 m 70.55,5.885 c -2.27,0 -5.435,0 -7.235,-1.36 -2.73,-1.81 -3.625,-2.72 -4.985,-4.075 1.82,-1.36 4.07,-1.36 5.43,-1.805 1.355,1.805 3.61,5.43 6.79,7.24 m 22.6,-2.265 c 0,1.35 -0.89998,1.815 -1.805,2.715 0,0 -1.81,-2.26 -1.81,-3.62 0,-1.36 0,-2.715 0.44999,-4.07 1.36,1.355 3.165,3.16 3.165,4.975 m 20.805,0.90502 c -4.065,-2.72 -6.775,-6.79 -10.385,-10.85 3.61,0 4.965,3.605 7.67,4.06 0.915,0.91 1.82,1.355 2.715,2.715 v 4.075 z m -84.12,-11.31 c 0,3.175 -0.455,7.235 -3.605,8.59 l -1.37,-4.525 c 1.81,-0.89001 3.175,-2.25 4.975,-4.065 m -9.945,7.235 c -2.715,-2.715 -4.99,-5.42 -4.99,-8.13 1.37,0 2.72,0 4.085,1.355 0,2.26 1.35,4.06 0.90503,6.775 m 129.34,-0.44999 c -4.075,-1.81 -9.955,-3.61 -13.12,-3.61 -1.8,0 -7.235,2.255 -9.49,4.51 l -0.90002,-4.51 c 3.155,-0.455 3.155,-2.715 4.955,-2.715 1.365,0 3.175,-0.46 4.545,-0.46 1.34,0 2.24,-1.355 3.165,-1.355 1.8,0 0.89001,2.71 2.7,2.71 1.365,0 1.815,-0.89502 3.17,-0.89502 2.275,0 4.52,3.605 4.975,6.325 m -108.99,0.44999 c -2.27,-1.36 -6.33,-1.805 -5.88,-4.515 1.355,-2.26 2.71,-2.72 3.61,-4.075 0.46,3.17 0.90999,5.875 2.27,8.5899 m 41.61,-2.715 -2.26,0.91 c -4.975,0 -7.695,-1.365 -9.955,-3.615 1.81,0 4.525,-1.815 4.525,-1.815 2.265,1.815 5.43,4.065 7.69,4.52 m -88.18,-4.52 c -1.815,1.815 -4.08,3.175 -5.435,5.875 0,-1.355 -0.44502,-2.7 -0.90002,-4.06 0.455,-1.355 1.81,-2.71 2.71,-3.17 0.91004,0.45997 2.26,0.45997 3.625,1.355 m 57.87,5.43 c -1.805,0.44498 -4.97,1.355 -6.325,-0.91 -2.72,-4.06 -0.90999,-8.14 0.44999,-11.29 0.90503,2.705 1.36,5.415 1.805,8.125 0.46,1.82 3.165,2.71 4.07,4.075 m 35.73,-7.69 c -1.81,0.90502 -5.42,1.365 -8.13,-0.455 l 3.61,-2.255 c 1.355,1.35 3.17,2.255 4.52,2.71 m 51.12,-1.36 c -2.735,0 -3.635,-0.44503 -5.885,-0.44503 -1.825,0 -4.53,1.35 -6.34,3.17 -0.91003,-1.365 -0.44002,-2.725 0,-4.075 1.35,-1.365 3.615,-3.165 5.88,-3.165 3.18,0 6.345,2.71 6.345,4.515 m -133.42,4.975 c -3.165,-0.89502 -6.325,-3.615 -7.685,-6.325 -0.91,-1.8 -1.35,-4.075 -1.35,-5.89 1.8,0.45504 3.16,1.815 4.07,2.725 v 0.44002 c 1.8,2.725 4.515,5.435 4.965,9.05 m 5.8799,-7.69 -0.89998,6.335 c -1.815,-2.715 -3.17,-5.425 -3.62,-9.045 l 4.52,2.71 z m 46.58,5.44 c -2.72,0.89501 -4.525,-1.365 -6.335,-2.725 -1.355,-2.715 -1.355,-5.425 -2.255,-7.24 2.255,1.815 5.87,1.815 5.42,5.89 0,1.35 1.82,2.71 3.17,4.075 m 10.855,-5.44 c -2.715,0 -5.88,1.365 -7.23,-1.36 0.89502,-0.44002 1.8,-1.795 3.165,-2.71 l 4.065,4.07 z m 70.555,-4.525 c -3.18,-0.89497 -5.435,-1.805 -8.155,-1.805 -1.35,0 -5.425,0.91 -5.87,1.805 -1.37,-1.355 0.91499,-5.41 2.705,-6.32 1.815,-0.90499 3.165,-0.44999 4.09,0 0,2.715 3.15,1.36 4.96,2.255 0.90002,1.35 1.825,2.71 2.27,4.065 m -61.955,-2.255 c -0.91003,1.36 -2.265,0 -3.175,0 h -4.07 c -0.455,-1.35 -0.90499,-1.81 -1.355,-2.705 2.27,-0.44999 3.615,-1.36 4.98,-0.44999 1.355,1.345 1.8,3.155 3.62,3.155 m -38.91,-7.23 c -0.44002,2.715 -1.355,7.23 -4.06,8.59 0,-1.36 -1.36,-2.71 -2.265,-4.065 -0.44502,0 0,1.355 -0.44502,1.355 0,1.35 -0.44999,2.71 -0.44999,4.975 -1.37,0.44499 -3.18,1.355 -4.98,0.44499 v -1.36 c -0.91003,-1.35 -0.91003,-2.71 -0.91003,-4.06 l -0.43998,-0.46 c -0.915,0.46 -0.915,1.81 -0.915,2.71 -0.44999,0.46001 -1.8,1.81 -1.8,3.17 -1.37,0 -2.72,-0.44499 -4.085,-1.36 v -4.52 c 0,-0.89501 0,-0.89501 -0.44498,-0.89501 l -2.275,2.705 c -1.785,-1.81 -2.24,-5.425 -2.24,-8.145 7.675,-4.065 16.72,-2.71 22.61,-0.43501 0.89498,0.43501 1.8,0.43501 2.7,1.35 m 35.29,-3.625 c -2.71,0 -4.08,-1.355 -5.43,-4.07 0,-1.35 -0.46,-3.17 0,-5.425 0.44999,1.355 0.89998,2.715 1.805,3.61 1.81,-0.89498 1.81,1.355 2.26,1.815 0.46,1.36 1.365,2.715 1.365,4.07 m -9.97,-22.148 c 0,0.465 -0.91499,4.07 -0.91499,4.07 l -3.62,1.37 2.27,-10.41 c 0.89502,1.805 2.265,3.62 2.265,4.97 m -71.905,-7.685 -1.82,2.715 c 0.45499,4.97 -1.8,8.145 -1.8,12.21 l -2.265,-7.24 c 0.44999,-2.255 0.90999,-4.065 2.265,-6.325 l 3.62,-1.36 z m 70.99,28.5 c -5.43,-3.175 -11.765,-5.425 -18.545,-5.885 0,1.355 0,2.71 -0.44999,3.17 5.43,2.715 10.85,5.4249 15.375,9.5 v 4.075 c -4.525,-4.525 -9.945,-9.505 -16.285,-10.86 -0.44999,0.90503 -1.795,2.26 -2.71,3.63 -3.17,-2.275 -6.785,-4.08 -10.845,-4.985 -1.37,0 -1.81,-1.82 -1.81,-3.175 l -0.46,-2.255 c 2.27,-0.45499 4.08,-2.265 4.53,-4.52 0.44502,0.44999 1.35,0.44999 2.25,0.44999 0.90999,-0.44999 0.90999,-1.36 0.90999,-2.72 0,-2.705 -5.875,-2.705 -8.5899,-2.705 -3.165,0 -5.435,-0.46501 -7.69,1.355 -0.90498,0 -0.46,1.35 -0.46,2.26 0,0.44999 1.365,1.36 1.365,1.36 1.35,0 1.81,-0.91003 2.72,-0.91003 -0.465,2.715 0.89998,4.52 3.155,5.43 l -0.43998,4.07 c -1.365,1.36 -3.625,0.44999 -5.435,1.36 -2.715,1.355 -5.425,2.71 -8.14,4.065 -1.35,-1.355 -2.26,-2.71 -3.16,-4.065 -4.525,1.355 -7.235,4.065 -11.755,6.785 -1.36,0.90498 -3.625,2.715 -3.625,2.715 -0.44999,-0.44999 0,-1.81 0,-3.165 4.065,-4.075 9.495,-5.43 14.02,-8.155 v -3.61 c -1.81,-0.45499 -3.615,0 -5.875,0 -4.08,0.90002 -8.145,2.72 -11.305,4.97 0,-1.36 -0.90999,-2.715 0.44499,-3.61 4.98,-2.715 10.86,-4.525 17.185,-4.075 v -1.805 c -0.44999,-0.91003 -0.44999,-2.27 -1.36,-2.27 -2.705,-3.17 -5.415,-6.775 -5.415,-9.945 l 1.35,-0.915 c -0.89998,-2.705 -1.35,-9.495 0,-12.655 -2.71,-0.90499 -5.42,-3.62 -6.32,-5.425 -0.90999,-2.27 -1.82,-3.62 -2.265,-6.335 0.90498,-2.71 2.265,-4.07 3.605,-6.785 0.91,0 2.27,-0.44999 2.72,-1.36 2.26,-0.45 4.07,-2.715 6.785,-1.355 1.81,0 3.62,0.90498 4.97,1.355 0,0.91003 0,1.36 1.365,2.265 2.69,0.44999 2.69,3.17 4.06,5.42 1.35,0.46 2.715,0.46 4.065,0.46 2.72,0.90002 4.525,0.90002 5.895,2.26 3.605,-2.26 7.68,-2.72 11.74,-2.26 0.46,-1.81 1.37,-3.17 1.815,-5.43 0.915,0.90503 0.45499,-0.44999 1.36,-0.44999 2.26,-1.355 4.52,-3.62 7.69,-2.715 2.255,1.36 5.42,0.45 6.785,3.165 1.805,1.36 2.71,4.075 4.07,6.785 -1.36,2.71 0,6.785 -2.72,8.135 l -2.715,2.725 c -0.89998,0 -1.355,0.89502 -2.715,0.89502 1.36,3.17 0.45504,8.155 -0.90498,11.305 0.90498,-0.44502 2.265,-0.44502 2.72,-1.8 0.44999,0.44999 0,1.355 0,1.8 -0.45499,0.915 -0.45499,1.365 -0.45499,1.365 0.45499,2.72 -1.36,4.97 -3.165,6.79 -0.90002,2.705 -3.165,6.33 -6.33,6.78 v 1.36 c 6.78,0 12.67,1.355 18.995,4.965 v 3.175 z m 101.73,-29.858 c -1.36,-1.355 -2.71,-2.715 -4.52,-2.715 -1.345,-1.81 -3.14,-4.065 -4.98,-4.065 1.37,-0.45499 3.175,-1.36 5.435,-1.36 1.355,2.255 2.705,4.065 3.165,5.425 l 0.90002,2.715 z m -173.64,-5.425 -3.165,1.35 0.455,-2.705 c 0.90002,-1.36 1.355,-2.725 2.71,-4.075 v 5.43 z m 159.19,-4.52 c -1.81,0 -3.155,0.43998 -5,0 -0.885,-0.90999 -2.235,0 -3.135,0.43998 -0.91996,0 -1.805,-0.43998 -3.165,-1.35 2.7,0 4.065,-1.805 6.3,-2.72 1.845,1.36 3.63,2.27 5,3.63 m -99.955,130.72 c 0,-1.805 -1.36,-2.715 -3.165,-2.715 -1.355,0 -3.165,1.81 -3.165,2.715 0,1.815 -1.36,12.21 -1.36,12.21 h 3.62 c 1.36,-4.52 4.07,-9.95 4.07,-12.21 m -10.395,-0.46501 h -0.46 l -3.61,-3.61 h -0.46 c -0.90002,0.89501 -1.36,2.27 -2.26,3.61 0,4.085 1.36,8.615 2.26,12.675 h 4.07 c 0,-4.52 0.46,-8.59 0.46,-12.675 m 72.815,-5.425 -4.515,0.455 c 1.35,1.36 1.35,3.17 1.35,4.075 0,1.36 -0.45499,2.71 -1.35,3.62 -1.37,-0.90999 -1.37,-2.26 -2.28,-3.62 -0.90503,0 -1.35,2.25 -1.35,3.175 0,4.52 1.8,7.695 3.17,10.395 h 4.525 c -0.46497,-4.06 -1.355,-7.24 -1.355,-11.32 0,-2.25 1.355,-4.965 1.805,-6.78 m 102.19,-43.425 c 0,-18.995 -6.325,-39.345 -23.52,-56.53 -2.74,-2.715 -6.32,-5.89 -9.955,-8.145 -6.785,-4.515 -13.095,-10.86 -16.735,-17.64 -2.26,-2.72 -4.065,-4.075 -6.79,-5.425 0.46496,1.35 1.355,2.705 1.81,4.065 h -0.455 c -2.695,0 -4.95,-1.36 -6.785,-2.715 l 1.835,-1.805 c -0.455,-0.90499 -1.835,-0.90499 -2.74,-0.90499 -8.11,-1.355 -14.9,2.71 -22.135,4.065 v 0.915 c 4.52,1.805 5.435,7.235 8.13,9.945 h 2.74 c 1.34,0 2.705,1.36 3.595,0.90999 0,-0.90999 -0.89001,-2.27 -0.89001,-2.72 0.89001,-0.89998 1.805,-0.89998 2.705,0 2.25,1.355 5.855,-0.89998 7.66,2.72 -2.69,0 -5.41,0.44999 -7.66,1.35 0,0.45504 1.375,1.81 0.90498,2.725 -2.26,-0.91499 -4.975,0 -6.315,-2.27 l -0.47001,0.90499 c 3.175,3.165 7.255,5.88 11.32,7.245 6.315,1.355 11.74,-1.815 17.625,-0.46 6.79,3.165 12.205,7.24 16.73,11.765 14.925,15.83 20.365,32.555 20.365,47.48 0,18.55 -5.44,31.67 -13.575,39.81 -4.99,4.99 -11.315,9.5 -19.005,9.5 -1.8,0 -5.43,-0.45499 -7.685,-2.26 1.35,-5.435 2.255,-11.31 2.255,-19.895 0,-4.995 0,-18.1 -6.32,-33.48 -1.37,-3.165 -6.35,-13.125 -12.67,-19.895 -4.975,-4.98 -10.855,-9.505 -16.715,-9.505 -2.725,0 -5.44,0.45499 -7.71,2.275 -2.25,2.25 -3.61,5.875 -3.15,8.58 -4.075,2.255 -9.96,4.07 -14.935,4.07 -5.875,0 -12.2,-3.17 -17.64,-6.775 v -6.795 c -3.165,-1.355 -4.065,-2.71 -4.51,-5.4249 l 0.44498,-0.46001 c 1.355,0.46001 2.275,1.36 3.165,1.82 -0.44999,-3.175 -0.88997,-6.785 -2.705,-9.5 -1.36,0 -2.715,-0.44999 -4.085,-1.36 -1.795,-1.36 -2.705,-3.16 -2.705,-5.425 1.365,2.265 3.62,1.36 4.975,2.715 -2.27,-5.425 -1.355,-8.145 -5.43,-16.735 -1.35,-4.08 -5.425,-6.335 -8.14,-9.05 -1.35,-1.36 -1.81,-2.72 -4.065,-2.72 -1.355,-0.45499 -1.355,-2.705 -1.8,-4.065 0.89998,0 1.8,0.90499 2.705,1.36 -2.26,-6.785 -4.52,-13.575 -10.865,-17.645 l -0.90002,0.90999 c -2.715,0.44002 -5.42,0.44002 -7.685,0.44002 0.89998,-1.35 2.71,-1.8 4.52,-2.7 -1.81,-1.36 -3.16,-1.815 -5.875,-1.815 -0.90999,0.45499 -3.17,1.815 -4.975,1.815 h -0.45499 c 0,-1.36 -0.44499,-3.18 2.26,-4.075 -2.705,-0.46 -4.975,-0.46 -8.135,0 -0.46,2.26 -2.265,3.62 -2.265,5.425 -1.355,1.35 -1.81,2.71 -3.16,4.07 0,-3.16 1.35,-5.875 1.805,-8.6 -1.805,0.45499 -4.06,1.82 -5.43,1.82 -3.62,-1.82 -8.14,-4.075 -9.96,-4.075 2.72,2.255 1.37,5.435 1.82,8.135 l -1.82,-1.35 c -0.88997,-1.805 -2.69,-3.165 -3.605,-5.425 -2.71,0 -4.52,0.89502 -6.78,2.26 l -0.44499,0.45499 c 1.805,0 3.615,1.36 4.515,2.71 -3.17,0 -5.425,-1.35 -8.585,-1.35 0,0 0,-0.45503 -0.91003,-0.45503 -1.36,0.45503 -2.72,1.805 -3.625,2.715 -3.16,2.705 -5.42,5.425 -7.23,9.495 0.90999,0 2.265,0 2.72,0.45499 -1.365,0.89998 -2.72,2.715 -4.52,3.61 v 6.795 c -1.355,1.805 -3.165,3.155 -4.075,5.425 -2.265,8.14 -2.715,16.74 -2.715,26.235 -0.90499,1.355 -1.81,1.805 -2.7,2.265 v 8.14 c 0,0 3.15,-3.17 4.51,-4.08 0,1.815 -0.44999,4.53 -0.44999,6.34 -1.36,0 -3.17,1.82 -3.17,3.62 0,1.81 0.44999,3.625 0.44999,5.43 0,0.89001 0,1.35 0.45504,2.25 0.45499,-0.89998 1.355,-2.25 2.265,-2.71 0.44999,0 1.355,-0.89501 2.71,-0.89501 -0.89998,1.355 -1.355,3.605 -2.26,5.415 l -1.36,1.36 c 0,0 -0.44999,0.90999 -0.44999,1.35 1.36,9.5099 4.52,18.555 8.145,28.055 -3.17,6.32 -6.335,13.115 -7.695,18.085 -1.355,3.62 -3.15,10.86 -3.15,10.86 -2.265,-2.255 -5.44,-2.71 -8.155,-2.71 -3.16,0.45499 -5.875,1.355 -8.14,4.065 -2.71,-1.355 -6.33,-0.90499 -8.1399,1.355 -4.065,3.635 -4.065,5.435 -4.065,8.145 -1.36,1.36 -3.17,3.63 -3.17,6.785 0,4.53 0.90999,7.23 3.17,10.86 h 71.89 c -0.90002,-1.355 -1.81,-3.165 -2.715,-4.52 -1.35,-2.72 -0.44498,-6.34 -0.44498,-9.05 1.35,-2.715 3.16,-5.43 4.53,-8.14 0.43502,-1.355 0,-1.355 0.89998,-1.815 l 3.165,-1.35 c 1.8,0 3.17,-0.915 5.43,-0.915 1.8,2.265 1.8,-1.805 4.07,-2.71 5.43,-0.45499 9.945,0 12.66,4.065 0,0.90999 0.90499,0.90999 0.90499,1.37 h -2.265 c -2.715,-1.37 -6.33,-2.725 -9.5,-1.37 0,1.37 -0.45499,1.37 -0.45499,2.725 v 2.26 c 1.815,0.45003 3.17,1.805 4.98,3.165 0.89998,-1.815 3.62,-3.165 5.875,-3.165 2.265,0 5.885,1.35 5.885,5.435 0,1.805 -0.45499,3.62 -0.45499,5.425 1.805,1.35 4.525,1.79 6.79,3.155 -0.90999,1.375 -2.265,1.375 -3.615,1.375 h -4.08 c -0.45504,-0.46 -1.36,-0.46 -1.36,-1.375 -1.355,1.375 -2.26,3.625 -3.165,5.435 h 55.185 c -0.90498,-1.81 -1.825,-3.165 -2.265,-4.52 -1.355,-2.72 -0.91499,-6.34 -1.355,-9.05 l 5.42,-7.225 c 2.725,0 5.435,-0.91499 10.405,-1.36 0.89497,-1.37 0,-2.28 4.06,-2.72 3.615,0 5.89,1.35 6.805,1.81 0.44002,0.90999 0.44002,0.90999 0,1.815 -0.91499,0.89501 -2.72,-0.90499 -4.08,-0.45996 -0.89998,0.91499 0.45499,1.355 0.45499,2.26 0.90499,0.90002 -4.065,-0.90499 -4.065,-0.90499 0,0 -1.365,2.71 -1.815,4.07 0,0 2.26,1.36 2.7,2.715 0.915,1.36 -0.88496,2.71 -0.88496,4.075 -1.365,-0.45503 -2.74,-1.825 -3.175,-1.365 -0.90503,3.62 0,6.8 -0.47001,10.86 h 4.99 l 0.90503,-8.145 c 0.46,-4.53 5.88,-13.105 9.045,-13.105 2.275,0 3.175,0.89501 4.985,2.25 1.34,1.355 3.15,2.715 3.15,3.61 0,0.46501 -1.35,1.375 -3.61,1.375 -0.89998,0 -1.35,-1.375 -2.25,-2.27 l -2.725,2.715 c 0,0 3.165,2.71 3.165,4.98 0,1.79 -0.44002,3.155 -2.265,4.07 l -2.7,-5.43 c -1.355,0 -3.64,2.71 -3.64,4.515 0,1.805 -0.90498,2.735 -0.90498,5.435 h 29.385 c 3.19,0 5.895,-0.915 9.07,-2.7 h 5.87 c 8.155,0 18.555,-1.36 29.39,-11.775 17.19,-16.28 18.1,-38.46 18.1,-47.05 m -183.15,61.525 c -2.26,-4.52 -2.715,-10.86 -2.715,-12.21 0,-2.715 0,-5.89 1.35,-8.145 l -5.415,1.355 c -0.915,1.355 -1.365,2.715 -1.365,3.61 l 1.805,-0.89501 c 0.91003,0 1.37,0.89501 1.81,1.36 -0.44002,2.715 -3.165,2.715 -4.53,3.605 -1.345,4.52 2.72,7.26 3.63,11.32 h 5.43 z"
       inkscape:connector-curvature="0"
       style="fill:#eb6606" />
  </g>
</svg>
