<?xml version="1.0" standalone="no"?>
<!DOCTYPE svg PUBLIC "-//W3C//DTD SVG 20010904//EN"
 "http://www.w3.org/TR/2001/REC-SVG-20010904/DTD/svg10.dtd">
<svg version="1.0" xmlns="http://www.w3.org/2000/svg"
 width="175.000000pt" height="119.000000pt" viewBox="0 0 175.000000 119.000000"
 preserveAspectRatio="xMidYMid meet">
<metadata>
Created by potrace 1.12, written by Peter Selinger 2001-2015
</metadata>
<g transform="translate(0.000000,119.000000) scale(0.100000,-0.100000)"
fill="#000000" stroke="none">
<path d="M687 1170 l-342 0 -160 -277 c-88 -152 -160 -286 -160 -298 0 -12 72
-146 160 -298 l160 -277 343 2 343 3 166 285 c159 274 164 285 150 310 -8 14
-83 143 -167 288 l-152 262 -341 0z m-282 -30 c3 0 29 -12 58 -26 29 -15 80
-46 113 -70 34 -24 80 -65 103 -93 22 -27 54 -77 71 -112 16 -35 32 -89 36
-119 3 -31 2 -72 -4 -92 -10 -36 -10 -36 38 -66 26 -16 66 -53 88 -81 22 -28
52 -74 66 -103 14 -29 32 -80 41 -113 8 -32 15 -89 15 -127 0 -37 -4 -69 -9
-72 -4 -3 -14 14 -21 37 -7 23 -24 65 -37 92 -14 28 -45 78 -69 112 -24 33
-69 84 -101 112 -31 28 -96 71 -143 95 -47 24 -103 49 -125 56 -22 7 -44 15
-49 18 -5 2 5 11 23 18 17 7 40 28 51 46 10 18 22 52 26 77 4 25 2 72 -4 105
-6 33 -23 84 -37 113 -15 29 -51 84 -81 123 -30 38 -52 70 -49 70z"/>
<path d="M1206 1168 c-53 2 -67 0 -63 -10 2 -7 76 -134 162 -283 87 -148 158
-274 158 -280 0 -5 -71 -131 -158 -280 -86 -148 -160 -276 -162 -283 -4 -10
10 -12 63 -10 l68 3 163 280 c89 154 163 285 163 290 0 6 -74 136 -163 290
l-163 280 -68 3z"/>
</g>
</svg>
