<?xml version="1.0" encoding="UTF-8" standalone="no"?>
<svg
   xmlns:dc="http://purl.org/dc/elements/1.1/"
   xmlns:cc="http://creativecommons.org/ns#"
   xmlns:rdf="http://www.w3.org/1999/02/22-rdf-syntax-ns#"
   xmlns:svg="http://www.w3.org/2000/svg"
   xmlns="http://www.w3.org/2000/svg"
   xmlns:sodipodi="http://sodipodi.sourceforge.net/DTD/sodipodi-0.dtd"
   xmlns:inkscape="http://www.inkscape.org/namespaces/inkscape"
   version="1.0"
   width="216.875"
   height="213.75"
   viewBox="0 0 173.5 171"
   preserveAspectRatio="xMidYMid meet"
   id="svg2"
   inkscape:version="0.48.4 r9939"
   sodipodi:docname="960.svg">
  <defs
     id="defs14" />
  <sodipodi:namedview
     pagecolor="#ffffff"
     bordercolor="#666666"
     borderopacity="1"
     objecttolerance="10"
     gridtolerance="10"
     guidetolerance="10"
     inkscape:pageopacity="0"
     inkscape:pageshadow="2"
     inkscape:window-width="1855"
     inkscape:window-height="1056"
     id="namedview12"
     showgrid="false"
     fit-margin-left="10"
     fit-margin-top="35"
     fit-margin-bottom="35"
     fit-margin-right="10"
     inkscape:zoom="1.887773"
     inkscape:cx="263.28544"
     inkscape:cy="40.901111"
     inkscape:window-x="65"
     inkscape:window-y="24"
     inkscape:window-maximized="1"
     inkscape:current-layer="svg2" />
  <metadata
     id="metadata4">
Created by potrace 1.12, written by Peter Selinger 2001-2015
<rdf:RDF>
  <cc:Work
     rdf:about="">
    <dc:format>image/svg+xml</dc:format>
    <dc:type
       rdf:resource="http://purl.org/dc/dcmitype/StillImage" />
  </cc:Work>
</rdf:RDF>
</metadata>
  <path
     style="fill:#d4a018;stroke:none"
     inkscape:connector-curvature="0"
     id="path10"
     d="M 119.11136,27.771963 151.8,85.449248 l -32.51155,57.235332 14.671,-0.0234 L 165.5,85.449248 132.84703,27.707633 z"
     sodipodi:nodetypes="ccccccc" />
  <g
     id="g3043"
     transform="translate(100.01202,-87.722411)">
    <path
       sodipodi:nodetypes="cccc"
       d="m -58.995704,115.88698 -32,57.5 32,57.49999 68.5999896,-0.5"
       id="path8-2"
       inkscape:connector-curvature="0"
       style="fill:#000094;stroke:none" />
    <path
       sodipodi:nodetypes="cccc"
       d="M 9.6125188,230.40699 41.612509,172.907 9.6125188,115.40701 l -68.5999898,0.5"
       id="path8-2-2"
       inkscape:connector-curvature="0"
       style="fill:#64dcfc;stroke:none" />
  </g>
  <g
     inkscape:groupmode="layer"
     id="layer1"
     inkscape:label="Layer" />
  <path
     style="fill:#ffffff;stroke:none"
     inkscape:connector-curvature="0"
     id="path8"
     d="m 41.030185,28.179216 c 0.332531,0 3.525686,3.220558 6.740168,4.675782 3.214473,1.559169 6.74862,4.781451 10.406472,7.27612 3.768697,2.494669 8.867519,6.756394 11.416928,9.666842 2.438567,2.806502 5.985577,8.003731 7.869925,11.641789 1.773503,3.63806 3.547008,9.25107 3.990384,12.3694 0.332532,3.22229 0.221688,7.48401 -0.443376,9.56291 -1.108441,3.742 -1.108441,3.742 4.212071,6.86034 2.881945,1.66312 7.315706,5.50905 9.754274,8.4195 2.438569,2.910451 5.763889,7.691901 7.315709,10.706291 1.55181,3.01438 3.547,8.31556 4.5446,11.74572 0.88676,3.32624 1.66267,9.25107 1.66267,13.20097 0,3.84595 1.61933,7.97052 1.06511,8.28237 -0.44339,0.31183 -3.35932,-3.81759 -4.13523,-6.20833 -0.7759,-2.39072 -2.91547,-5.19238 -4.35644,-7.99889 -1.551815,-2.91044 -4.987979,-8.10767 -7.648235,-11.64179 -2.660256,-3.43016 -7.648237,-8.73133 -11.195245,-11.64177 -3.436165,-2.91045 -10.641025,-7.380061 -15.850697,-9.874741 -5.20966,-2.49467 -11.416921,-5.09328 -13.855495,-5.82089 -2.438564,-0.72762 -4.877137,-1.55917 -5.431353,-1.871 -0.554225,-0.20789 0.554216,-1.14339 2.549411,-1.87101 1.884349,-0.7276 4.43376,-2.91044 5.653047,-4.78144 1.10844,-1.871 2.438563,-5.40513 2.881942,-8.00374 0.443378,-2.59861 0.221683,-7.484006 -0.443379,-10.914177 C 57.068384,58.529303 55.184035,53.22813 53.632218,50.213739 51.969562,47.199347 48.402951,40.211058 45.077631,36.15722 41.752312,32.207327 40.697654,28.179216 41.030185,28.179216 z"
     sodipodi:nodetypes="scccccccsscscscccsscccssccs" />
</svg>
